<?xml version="1.0" encoding="utf-8" standalone="no"?>
<!DOCTYPE svg PUBLIC "-//W3C//DTD SVG 1.1//EN"
  "http://www.w3.org/Graphics/SVG/1.1/DTD/svg11.dtd">
<!-- Created with matplotlib (https://matplotlib.org/) -->
<svg height="1224pt" version="1.1" viewBox="0 0 1440 1224" width="1440pt" xmlns="http://www.w3.org/2000/svg" xmlns:xlink="http://www.w3.org/1999/xlink">
 <metadata>
  <rdf:RDF xmlns:cc="http://creativecommons.org/ns#" xmlns:dc="http://purl.org/dc/elements/1.1/" xmlns:rdf="http://www.w3.org/1999/02/22-rdf-syntax-ns#">
   <cc:Work>
    <dc:type rdf:resource="http://purl.org/dc/dcmitype/StillImage"/>
    <dc:date>2021-06-06T20:32:12.552640</dc:date>
    <dc:format>image/svg+xml</dc:format>
    <dc:creator>
     <cc:Agent>
      <dc:title>Matplotlib v3.3.4, https://matplotlib.org/</dc:title>
     </cc:Agent>
    </dc:creator>
   </cc:Work>
  </rdf:RDF>
 </metadata>
 <defs>
  <style type="text/css">*{stroke-linecap:butt;stroke-linejoin:round;}</style>
 </defs>
 <g id="figure_1">
  <g id="patch_1">
   <path d="M 0 1224 
L 1440 1224 
L 1440 0 
L 0 0 
z
" style="fill:#ffffff;"/>
  </g>
  <g id="axes_1">
   <g id="patch_2">
    <path d="M 180 1089.36 
L 1296 1089.36 
L 1296 146.88 
L 180 146.88 
z
" style="fill:#eaeaf2;"/>
   </g>
   <g id="matplotlib.axis_1">
    <g id="xtick_1">
     <g id="line2d_1">
      <path clip-path="url(#p479ac3e1d0)" d="M 180 1089.36 
L 180 146.88 
" style="fill:none;stroke:#ffffff;stroke-linecap:round;"/>
     </g>
     <g id="text_1">
      <!-- 0 -->
      <g style="fill:#262626;" transform="translate(176.688828 1107.276719)scale(0.11 -0.11)">
       <defs>
        <path d="M 23.578125 36.625 
Q 23.578125 39.3125 25.453125 41.265625 
Q 27.34375 43.21875 29.984375 43.21875 
Q 32.71875 43.21875 34.671875 41.265625 
Q 36.625 39.3125 36.625 36.625 
Q 36.625 33.890625 34.6875 31.984375 
Q 32.765625 30.078125 29.984375 30.078125 
Q 27.25 30.078125 25.40625 31.9375 
Q 23.578125 33.796875 23.578125 36.625 
z
M 30.078125 66.40625 
Q 23.1875 66.40625 19.796875 58.984375 
Q 16.40625 51.5625 16.40625 36.375 
Q 16.40625 21.234375 19.796875 13.8125 
Q 23.1875 6.390625 30.078125 6.390625 
Q 37.015625 6.390625 40.40625 13.8125 
Q 43.796875 21.234375 43.796875 36.375 
Q 43.796875 51.5625 40.40625 58.984375 
Q 37.015625 66.40625 30.078125 66.40625 
z
M 30.078125 74.21875 
Q 41.75 74.21875 47.734375 64.640625 
Q 53.71875 55.078125 53.71875 36.375 
Q 53.71875 17.71875 47.734375 8.140625 
Q 41.75 -1.421875 30.078125 -1.421875 
Q 18.40625 -1.421875 12.453125 8.140625 
Q 6.5 17.71875 6.5 36.375 
Q 6.5 55.078125 12.453125 64.640625 
Q 18.40625 74.21875 30.078125 74.21875 
z
" id="DejaVuSansMono-48"/>
       </defs>
       <use xlink:href="#DejaVuSansMono-48"/>
      </g>
     </g>
    </g>
    <g id="xtick_2">
     <g id="line2d_2">
      <path clip-path="url(#p479ac3e1d0)" d="M 313.12339 1089.36 
L 313.12339 146.88 
" style="fill:none;stroke:#ffffff;stroke-linecap:round;"/>
     </g>
     <g id="text_2">
      <!-- 1000 -->
      <g style="fill:#262626;" transform="translate(299.878702 1107.276719)scale(0.11 -0.11)">
       <defs>
        <path d="M 13.1875 8.296875 
L 28.515625 8.296875 
L 28.515625 64.015625 
L 12.015625 60.296875 
L 12.015625 69.28125 
L 28.421875 72.90625 
L 38.28125 72.90625 
L 38.28125 8.296875 
L 53.421875 8.296875 
L 53.421875 0 
L 13.1875 0 
z
" id="DejaVuSansMono-49"/>
       </defs>
       <use xlink:href="#DejaVuSansMono-49"/>
       <use x="60.205078" xlink:href="#DejaVuSansMono-48"/>
       <use x="120.410156" xlink:href="#DejaVuSansMono-48"/>
       <use x="180.615234" xlink:href="#DejaVuSansMono-48"/>
      </g>
     </g>
    </g>
    <g id="xtick_3">
     <g id="line2d_3">
      <path clip-path="url(#p479ac3e1d0)" d="M 446.246779 1089.36 
L 446.246779 146.88 
" style="fill:none;stroke:#ffffff;stroke-linecap:round;"/>
     </g>
     <g id="text_3">
      <!-- 2000 -->
      <g style="fill:#262626;" transform="translate(433.002092 1107.276719)scale(0.11 -0.11)">
       <defs>
        <path d="M 18.21875 8.296875 
L 51.703125 8.296875 
L 51.703125 0 
L 7.421875 0 
L 7.421875 8.296875 
Q 16.546875 17.921875 23.375 25.296875 
Q 30.21875 32.671875 32.8125 35.6875 
Q 37.703125 41.65625 39.40625 45.34375 
Q 41.109375 49.03125 41.109375 52.875 
Q 41.109375 58.984375 37.515625 62.453125 
Q 33.9375 65.921875 27.6875 65.921875 
Q 23.25 65.921875 18.359375 64.3125 
Q 13.484375 62.703125 8.015625 59.421875 
L 8.015625 69.390625 
Q 13.03125 71.78125 17.890625 73 
Q 22.75 74.21875 27.484375 74.21875 
Q 38.1875 74.21875 44.703125 68.53125 
Q 51.21875 62.84375 51.21875 53.609375 
Q 51.21875 48.921875 49.046875 44.234375 
Q 46.875 39.546875 42 33.890625 
Q 39.265625 30.71875 34.0625 25.09375 
Q 28.859375 19.484375 18.21875 8.296875 
z
" id="DejaVuSansMono-50"/>
       </defs>
       <use xlink:href="#DejaVuSansMono-50"/>
       <use x="60.205078" xlink:href="#DejaVuSansMono-48"/>
       <use x="120.410156" xlink:href="#DejaVuSansMono-48"/>
       <use x="180.615234" xlink:href="#DejaVuSansMono-48"/>
      </g>
     </g>
    </g>
    <g id="xtick_4">
     <g id="line2d_4">
      <path clip-path="url(#p479ac3e1d0)" d="M 579.370169 1089.36 
L 579.370169 146.88 
" style="fill:none;stroke:#ffffff;stroke-linecap:round;"/>
     </g>
     <g id="text_4">
      <!-- 3000 -->
      <g style="fill:#262626;" transform="translate(566.125481 1107.276719)scale(0.11 -0.11)">
       <defs>
        <path d="M 37.890625 39.015625 
Q 45.0625 37.109375 48.875 32.25 
Q 52.6875 27.390625 52.6875 20.125 
Q 52.6875 10.0625 45.921875 4.3125 
Q 39.15625 -1.421875 27.203125 -1.421875 
Q 22.171875 -1.421875 16.9375 -0.484375 
Q 11.71875 0.4375 6.6875 2.203125 
L 6.6875 12.015625 
Q 11.671875 9.421875 16.5 8.15625 
Q 21.34375 6.890625 26.125 6.890625 
Q 34.234375 6.890625 38.578125 10.546875 
Q 42.921875 14.203125 42.921875 21.09375 
Q 42.921875 27.4375 38.578125 31.171875 
Q 34.234375 34.90625 26.8125 34.90625 
L 19.28125 34.90625 
L 19.28125 43.015625 
L 26.8125 43.015625 
Q 33.59375 43.015625 37.40625 45.984375 
Q 41.21875 48.96875 41.21875 54.296875 
Q 41.21875 59.90625 37.671875 62.90625 
Q 34.125 65.921875 27.59375 65.921875 
Q 23.25 65.921875 18.609375 64.9375 
Q 13.96875 63.96875 8.890625 62.015625 
L 8.890625 71.09375 
Q 14.796875 72.65625 19.40625 73.4375 
Q 24.03125 74.21875 27.59375 74.21875 
Q 38.234375 74.21875 44.609375 68.875 
Q 50.984375 63.53125 50.984375 54.6875 
Q 50.984375 48.6875 47.625 44.671875 
Q 44.28125 40.671875 37.890625 39.015625 
z
" id="DejaVuSansMono-51"/>
       </defs>
       <use xlink:href="#DejaVuSansMono-51"/>
       <use x="60.205078" xlink:href="#DejaVuSansMono-48"/>
       <use x="120.410156" xlink:href="#DejaVuSansMono-48"/>
       <use x="180.615234" xlink:href="#DejaVuSansMono-48"/>
      </g>
     </g>
    </g>
    <g id="xtick_5">
     <g id="line2d_5">
      <path clip-path="url(#p479ac3e1d0)" d="M 712.493559 1089.36 
L 712.493559 146.88 
" style="fill:none;stroke:#ffffff;stroke-linecap:round;"/>
     </g>
     <g id="text_5">
      <!-- 4000 -->
      <g style="fill:#262626;" transform="translate(699.248871 1107.276719)scale(0.11 -0.11)">
       <defs>
        <path d="M 35.890625 63.921875 
L 12.890625 25.390625 
L 35.890625 25.390625 
z
M 34.28125 72.90625 
L 45.703125 72.90625 
L 45.703125 25.390625 
L 55.421875 25.390625 
L 55.421875 17.390625 
L 45.703125 17.390625 
L 45.703125 0 
L 35.890625 0 
L 35.890625 17.390625 
L 4.984375 17.390625 
L 4.984375 26.703125 
z
" id="DejaVuSansMono-52"/>
       </defs>
       <use xlink:href="#DejaVuSansMono-52"/>
       <use x="60.205078" xlink:href="#DejaVuSansMono-48"/>
       <use x="120.410156" xlink:href="#DejaVuSansMono-48"/>
       <use x="180.615234" xlink:href="#DejaVuSansMono-48"/>
      </g>
     </g>
    </g>
    <g id="xtick_6">
     <g id="line2d_6">
      <path clip-path="url(#p479ac3e1d0)" d="M 845.616948 1089.36 
L 845.616948 146.88 
" style="fill:none;stroke:#ffffff;stroke-linecap:round;"/>
     </g>
     <g id="text_6">
      <!-- 5000 -->
      <g style="fill:#262626;" transform="translate(832.372261 1107.276719)scale(0.11 -0.11)">
       <defs>
        <path d="M 10.109375 72.90625 
L 47.015625 72.90625 
L 47.015625 64.59375 
L 19.09375 64.59375 
L 19.09375 46.6875 
Q 21.1875 47.46875 23.3125 47.828125 
Q 25.4375 48.1875 27.59375 48.1875 
Q 38.921875 48.1875 45.5625 41.5 
Q 52.203125 34.8125 52.203125 23.390625 
Q 52.203125 11.859375 45.234375 5.21875 
Q 38.28125 -1.421875 26.21875 -1.421875 
Q 20.40625 -1.421875 15.59375 -0.640625 
Q 10.796875 0.140625 6.984375 1.703125 
L 6.984375 11.71875 
Q 11.46875 9.28125 16.015625 8.078125 
Q 20.5625 6.890625 25.296875 6.890625 
Q 33.453125 6.890625 37.859375 11.1875 
Q 42.28125 15.484375 42.28125 23.390625 
Q 42.28125 31.203125 37.71875 35.546875 
Q 33.15625 39.890625 25 39.890625 
Q 21.046875 39.890625 17.28125 38.984375 
Q 13.53125 38.09375 10.109375 36.28125 
z
" id="DejaVuSansMono-53"/>
       </defs>
       <use xlink:href="#DejaVuSansMono-53"/>
       <use x="60.205078" xlink:href="#DejaVuSansMono-48"/>
       <use x="120.410156" xlink:href="#DejaVuSansMono-48"/>
       <use x="180.615234" xlink:href="#DejaVuSansMono-48"/>
      </g>
     </g>
    </g>
    <g id="xtick_7">
     <g id="line2d_7">
      <path clip-path="url(#p479ac3e1d0)" d="M 978.740338 1089.36 
L 978.740338 146.88 
" style="fill:none;stroke:#ffffff;stroke-linecap:round;"/>
     </g>
     <g id="text_7">
      <!-- 6000 -->
      <g style="fill:#262626;" transform="translate(965.49565 1107.276719)scale(0.11 -0.11)">
       <defs>
        <path d="M 48.390625 71.296875 
L 48.390625 62.203125 
Q 45.3125 64.015625 41.84375 64.96875 
Q 38.375 65.921875 34.625 65.921875 
Q 25.25 65.921875 20.40625 58.859375 
Q 15.578125 51.8125 15.578125 38.09375 
Q 17.921875 42.96875 22.0625 45.578125 
Q 26.21875 48.1875 31.59375 48.1875 
Q 42.140625 48.1875 47.921875 41.71875 
Q 53.71875 35.25 53.71875 23.390625 
Q 53.71875 11.578125 47.75 5.078125 
Q 41.796875 -1.421875 31 -1.421875 
Q 18.3125 -1.421875 12.40625 7.6875 
Q 6.5 16.796875 6.5 36.375 
Q 6.5 54.828125 13.59375 64.515625 
Q 20.703125 74.21875 34.1875 74.21875 
Q 37.796875 74.21875 41.40625 73.453125 
Q 45.015625 72.703125 48.390625 71.296875 
z
M 30.8125 40.484375 
Q 24.515625 40.484375 20.890625 35.9375 
Q 17.28125 31.390625 17.28125 23.390625 
Q 17.28125 15.375 20.890625 10.828125 
Q 24.515625 6.296875 30.8125 6.296875 
Q 37.359375 6.296875 40.671875 10.609375 
Q 44 14.9375 44 23.390625 
Q 44 31.890625 40.671875 36.1875 
Q 37.359375 40.484375 30.8125 40.484375 
z
" id="DejaVuSansMono-54"/>
       </defs>
       <use xlink:href="#DejaVuSansMono-54"/>
       <use x="60.205078" xlink:href="#DejaVuSansMono-48"/>
       <use x="120.410156" xlink:href="#DejaVuSansMono-48"/>
       <use x="180.615234" xlink:href="#DejaVuSansMono-48"/>
      </g>
     </g>
    </g>
    <g id="xtick_8">
     <g id="line2d_8">
      <path clip-path="url(#p479ac3e1d0)" d="M 1111.863727 1089.36 
L 1111.863727 146.88 
" style="fill:none;stroke:#ffffff;stroke-linecap:round;"/>
     </g>
     <g id="text_8">
      <!-- 7000 -->
      <g style="fill:#262626;" transform="translate(1098.61904 1107.276719)scale(0.11 -0.11)">
       <defs>
        <path d="M 6.78125 72.90625 
L 52.6875 72.90625 
L 52.6875 68.703125 
L 26.609375 0 
L 16.3125 0 
L 41.703125 64.59375 
L 6.78125 64.59375 
z
" id="DejaVuSansMono-55"/>
       </defs>
       <use xlink:href="#DejaVuSansMono-55"/>
       <use x="60.205078" xlink:href="#DejaVuSansMono-48"/>
       <use x="120.410156" xlink:href="#DejaVuSansMono-48"/>
       <use x="180.615234" xlink:href="#DejaVuSansMono-48"/>
      </g>
     </g>
    </g>
    <g id="xtick_9">
     <g id="line2d_9">
      <path clip-path="url(#p479ac3e1d0)" d="M 1244.987117 1089.36 
L 1244.987117 146.88 
" style="fill:none;stroke:#ffffff;stroke-linecap:round;"/>
     </g>
     <g id="text_9">
      <!-- 8000 -->
      <g style="fill:#262626;" transform="translate(1231.74243 1107.276719)scale(0.11 -0.11)">
       <defs>
        <path d="M 30.078125 34.625 
Q 23.484375 34.625 19.890625 30.9375 
Q 16.3125 27.25 16.3125 20.515625 
Q 16.3125 13.765625 19.9375 10.03125 
Q 23.578125 6.296875 30.078125 6.296875 
Q 36.71875 6.296875 40.296875 9.984375 
Q 43.890625 13.671875 43.890625 20.515625 
Q 43.890625 27.203125 40.25 30.90625 
Q 36.625 34.625 30.078125 34.625 
z
M 21.484375 38.71875 
Q 15.1875 40.328125 11.640625 44.71875 
Q 8.109375 49.125 8.109375 55.328125 
Q 8.109375 64.015625 14.015625 69.109375 
Q 19.921875 74.21875 30.078125 74.21875 
Q 40.28125 74.21875 46.1875 69.109375 
Q 52.09375 64.015625 52.09375 55.328125 
Q 52.09375 49.125 48.546875 44.71875 
Q 45.015625 40.328125 38.71875 38.71875 
Q 46.046875 37.109375 49.921875 32.21875 
Q 53.8125 27.34375 53.8125 19.578125 
Q 53.8125 9.71875 47.515625 4.140625 
Q 41.21875 -1.421875 30.078125 -1.421875 
Q 18.953125 -1.421875 12.671875 4.125 
Q 6.390625 9.671875 6.390625 19.484375 
Q 6.390625 27.296875 10.265625 32.203125 
Q 14.15625 37.109375 21.484375 38.71875 
z
M 17.921875 54.390625 
Q 17.921875 48.53125 21.046875 45.453125 
Q 24.171875 42.390625 30.078125 42.390625 
Q 36.03125 42.390625 39.15625 45.453125 
Q 42.28125 48.53125 42.28125 54.390625 
Q 42.28125 60.359375 39.171875 63.484375 
Q 36.078125 66.609375 30.078125 66.609375 
Q 24.171875 66.609375 21.046875 63.453125 
Q 17.921875 60.296875 17.921875 54.390625 
z
" id="DejaVuSansMono-56"/>
       </defs>
       <use xlink:href="#DejaVuSansMono-56"/>
       <use x="60.205078" xlink:href="#DejaVuSansMono-48"/>
       <use x="120.410156" xlink:href="#DejaVuSansMono-48"/>
       <use x="180.615234" xlink:href="#DejaVuSansMono-48"/>
      </g>
     </g>
    </g>
    <g id="text_10">
     <!-- frequency -->
     <g style="fill:#262626;" transform="translate(705.490312 1122.721875)scale(0.12 -0.12)">
      <defs>
       <path d="M 51.90625 75.984375 
L 51.90625 68.5 
L 41.703125 68.5 
Q 36.859375 68.5 34.984375 66.515625 
Q 33.109375 64.546875 33.109375 59.515625 
L 33.109375 54.6875 
L 51.90625 54.6875 
L 51.90625 47.703125 
L 33.109375 47.703125 
L 33.109375 0 
L 24.125 0 
L 24.125 47.703125 
L 9.515625 47.703125 
L 9.515625 54.6875 
L 24.125 54.6875 
L 24.125 58.5 
Q 24.125 67.484375 28.25 71.734375 
Q 32.375 75.984375 41.109375 75.984375 
z
" id="DejaVuSansMono-102"/>
       <path d="M 56.390625 43.40625 
Q 53.515625 45.65625 50.53125 46.671875 
Q 47.5625 47.703125 44 47.703125 
Q 35.59375 47.703125 31.140625 42.421875 
Q 26.703125 37.15625 26.703125 27.203125 
L 26.703125 0 
L 17.671875 0 
L 17.671875 54.6875 
L 26.703125 54.6875 
L 26.703125 44 
Q 28.953125 49.8125 33.609375 52.90625 
Q 38.28125 56 44.671875 56 
Q 48 56 50.875 55.171875 
Q 53.765625 54.34375 56.390625 52.59375 
z
" id="DejaVuSansMono-114"/>
       <path d="M 54.296875 29.59375 
L 54.296875 25.203125 
L 15.375 25.203125 
L 15.375 24.90625 
Q 15.375 15.96875 20.03125 11.078125 
Q 24.703125 6.203125 33.203125 6.203125 
Q 37.5 6.203125 42.1875 7.5625 
Q 46.875 8.9375 52.203125 11.71875 
L 52.203125 2.78125 
Q 47.078125 0.6875 42.3125 -0.359375 
Q 37.546875 -1.421875 33.109375 -1.421875 
Q 20.359375 -1.421875 13.171875 6.21875 
Q 6 13.875 6 27.296875 
Q 6 40.375 13.03125 48.1875 
Q 20.0625 56 31.78125 56 
Q 42.234375 56 48.265625 48.921875 
Q 54.296875 41.84375 54.296875 29.59375 
z
M 45.3125 32.234375 
Q 45.125 40.140625 41.578125 44.265625 
Q 38.03125 48.390625 31.390625 48.390625 
Q 24.90625 48.390625 20.703125 44.09375 
Q 16.5 39.796875 15.71875 32.171875 
z
" id="DejaVuSansMono-101"/>
       <path d="M 16.21875 27.09375 
Q 16.21875 16.65625 19.5 11.328125 
Q 22.796875 6 29.296875 6 
Q 35.796875 6 39.140625 11.34375 
Q 42.484375 16.703125 42.484375 27.09375 
Q 42.484375 37.5 39.140625 42.84375 
Q 35.796875 48.1875 29.296875 48.1875 
Q 22.796875 48.1875 19.5 42.859375 
Q 16.21875 37.546875 16.21875 27.09375 
z
M 42.484375 6.78125 
Q 40.28125 2.734375 36.546875 0.5625 
Q 32.8125 -1.609375 27.875 -1.609375 
Q 18.0625 -1.609375 12.375 5.984375 
Q 6.6875 13.578125 6.6875 26.90625 
Q 6.6875 40.484375 12.34375 48.140625 
Q 18.015625 55.8125 27.875 55.8125 
Q 32.765625 55.8125 36.5 53.6875 
Q 40.234375 51.5625 42.484375 47.515625 
L 42.484375 54.5 
L 51.515625 54.5 
L 51.515625 -21 
L 42.484375 -21 
z
" id="DejaVuSansMono-113"/>
       <path d="M 9.515625 20.703125 
L 9.515625 54.59375 
L 18.5 54.59375 
L 18.5 20.703125 
Q 18.5 13.328125 21.109375 9.859375 
Q 23.734375 6.390625 29.203125 6.390625 
Q 35.546875 6.390625 38.90625 10.859375 
Q 42.28125 15.328125 42.28125 23.6875 
L 42.28125 54.59375 
L 51.3125 54.59375 
L 51.3125 0 
L 42.28125 0 
L 42.28125 8.203125 
Q 39.890625 3.46875 35.765625 1.015625 
Q 31.640625 -1.421875 26.125 -1.421875 
Q 17.71875 -1.421875 13.609375 4.078125 
Q 9.515625 9.578125 9.515625 20.703125 
z
" id="DejaVuSansMono-117"/>
       <path d="M 51.3125 33.890625 
L 51.3125 0 
L 42.28125 0 
L 42.28125 33.890625 
Q 42.28125 41.265625 39.6875 44.71875 
Q 37.109375 48.1875 31.59375 48.1875 
Q 25.296875 48.1875 21.890625 43.71875 
Q 18.5 39.265625 18.5 30.90625 
L 18.5 0 
L 9.515625 0 
L 9.515625 54.6875 
L 18.5 54.6875 
L 18.5 46.484375 
Q 20.90625 51.171875 25 53.578125 
Q 29.109375 56 34.71875 56 
Q 43.0625 56 47.1875 50.5 
Q 51.3125 45.015625 51.3125 33.890625 
z
" id="DejaVuSansMono-110"/>
       <path d="M 51.8125 2.78125 
Q 48.1875 0.6875 44.359375 -0.359375 
Q 40.53125 -1.421875 36.53125 -1.421875 
Q 23.828125 -1.421875 16.671875 6.1875 
Q 9.515625 13.8125 9.515625 27.296875 
Q 9.515625 40.765625 16.671875 48.375 
Q 23.828125 56 36.53125 56 
Q 40.484375 56 44.234375 54.96875 
Q 48 53.953125 51.8125 51.8125 
L 51.8125 42.390625 
Q 48.25 45.5625 44.65625 46.96875 
Q 41.0625 48.390625 36.53125 48.390625 
Q 28.078125 48.390625 23.53125 42.921875 
Q 19 37.453125 19 27.296875 
Q 19 17.1875 23.5625 11.6875 
Q 28.125 6.203125 36.53125 6.203125 
Q 41.21875 6.203125 44.921875 7.640625 
Q 48.640625 9.078125 51.8125 12.109375 
z
" id="DejaVuSansMono-99"/>
       <path d="M 41.890625 17.578125 
Q 39.65625 11.859375 36.1875 2.546875 
Q 31.34375 -10.359375 29.6875 -13.1875 
Q 27.4375 -17 24.0625 -18.890625 
Q 20.703125 -20.796875 16.21875 -20.796875 
L 8.984375 -20.796875 
L 8.984375 -13.28125 
L 14.3125 -13.28125 
Q 18.265625 -13.28125 20.5 -10.984375 
Q 22.75 -8.6875 26.21875 0.875 
L 5.078125 54.6875 
L 14.59375 54.6875 
L 30.8125 11.921875 
L 46.78125 54.6875 
L 56.296875 54.6875 
z
" id="DejaVuSansMono-121"/>
      </defs>
      <use xlink:href="#DejaVuSansMono-102"/>
      <use x="60.205078" xlink:href="#DejaVuSansMono-114"/>
      <use x="120.410156" xlink:href="#DejaVuSansMono-101"/>
      <use x="180.615234" xlink:href="#DejaVuSansMono-113"/>
      <use x="240.820312" xlink:href="#DejaVuSansMono-117"/>
      <use x="301.025391" xlink:href="#DejaVuSansMono-101"/>
      <use x="361.230469" xlink:href="#DejaVuSansMono-110"/>
      <use x="421.435547" xlink:href="#DejaVuSansMono-99"/>
      <use x="481.640625" xlink:href="#DejaVuSansMono-121"/>
     </g>
    </g>
   </g>
   <g id="matplotlib.axis_2">
    <g id="ytick_1">
     <g id="text_11">
      <!-- SYM (11) -->
      <g style="fill:#262626;" transform="translate(117.52125 173.528359)scale(0.11 -0.11)">
       <defs>
        <path d="M 49.421875 70.40625 
L 49.421875 60.40625 
Q 44.921875 63.28125 40.40625 64.75 
Q 35.890625 66.21875 31.296875 66.21875 
Q 24.3125 66.21875 20.265625 62.96875 
Q 16.21875 59.71875 16.21875 54.203125 
Q 16.21875 49.359375 18.875 46.8125 
Q 21.53125 44.28125 28.8125 42.578125 
L 33.984375 41.40625 
Q 44.234375 39.015625 48.921875 33.890625 
Q 53.609375 28.765625 53.609375 19.921875 
Q 53.609375 9.515625 47.15625 4.046875 
Q 40.71875 -1.421875 28.421875 -1.421875 
Q 23.296875 -1.421875 18.109375 -0.3125 
Q 12.9375 0.78125 7.71875 2.984375 
L 7.71875 13.484375 
Q 13.328125 9.90625 18.328125 8.25 
Q 23.34375 6.59375 28.421875 6.59375 
Q 35.890625 6.59375 40.03125 9.9375 
Q 44.1875 13.28125 44.1875 19.28125 
Q 44.1875 24.75 41.328125 27.625 
Q 38.484375 30.515625 31.390625 32.078125 
L 26.125 33.296875 
Q 15.96875 35.59375 11.375 40.234375 
Q 6.78125 44.875 6.78125 52.6875 
Q 6.78125 62.453125 13.34375 68.328125 
Q 19.921875 74.21875 30.8125 74.21875 
Q 35.015625 74.21875 39.640625 73.265625 
Q 44.28125 72.3125 49.421875 70.40625 
z
" id="DejaVuSansMono-83"/>
        <path d="M 1.8125 72.90625 
L 12.3125 72.90625 
L 30.078125 40.71875 
L 47.796875 72.90625 
L 58.40625 72.90625 
L 35.015625 32.71875 
L 35.015625 0 
L 25.09375 0 
L 25.09375 32.71875 
z
" id="DejaVuSansMono-89"/>
        <path d="M 4.203125 72.90625 
L 17.390625 72.90625 
L 29.984375 35.796875 
L 42.671875 72.90625 
L 55.90625 72.90625 
L 55.90625 0 
L 46.78125 0 
L 46.78125 64.40625 
L 33.796875 25.984375 
L 26.3125 25.984375 
L 13.28125 64.40625 
L 13.28125 0 
L 4.203125 0 
z
" id="DejaVuSansMono-77"/>
        <path id="DejaVuSansMono-32"/>
        <path d="M 43.21875 75.875 
Q 36.71875 64.75 33.515625 53.6875 
Q 30.328125 42.625 30.328125 31.390625 
Q 30.328125 20.21875 33.515625 9.125 
Q 36.71875 -1.953125 43.21875 -13.1875 
L 35.40625 -13.1875 
Q 28.03125 -1.5625 24.40625 9.4375 
Q 20.796875 20.453125 20.796875 31.390625 
Q 20.796875 42.28125 24.40625 53.3125 
Q 28.03125 64.359375 35.40625 75.875 
z
" id="DejaVuSansMono-40"/>
        <path d="M 17 75.875 
L 24.8125 75.875 
Q 32.171875 64.359375 35.78125 53.3125 
Q 39.40625 42.28125 39.40625 31.390625 
Q 39.40625 20.40625 35.78125 9.375 
Q 32.171875 -1.65625 24.8125 -13.1875 
L 17 -13.1875 
Q 23.484375 -1.859375 26.6875 9.21875 
Q 29.890625 20.3125 29.890625 31.390625 
Q 29.890625 42.53125 26.6875 53.609375 
Q 23.484375 64.703125 17 75.875 
z
" id="DejaVuSansMono-41"/>
       </defs>
       <use xlink:href="#DejaVuSansMono-83"/>
       <use x="60.205078" xlink:href="#DejaVuSansMono-89"/>
       <use x="120.410156" xlink:href="#DejaVuSansMono-77"/>
       <use x="180.615234" xlink:href="#DejaVuSansMono-32"/>
       <use x="240.820312" xlink:href="#DejaVuSansMono-40"/>
       <use x="301.025391" xlink:href="#DejaVuSansMono-49"/>
       <use x="361.230469" xlink:href="#DejaVuSansMono-49"/>
       <use x="421.435547" xlink:href="#DejaVuSansMono-41"/>
      </g>
     </g>
    </g>
    <g id="ytick_2">
     <g id="text_12">
      <!-- ! (13) -->
      <g style="fill:#262626;" transform="translate(130.765938 218.408359)scale(0.11 -0.11)">
       <defs>
        <path d="M 25.203125 72.90625 
L 35.109375 72.90625 
L 35.109375 40.921875 
L 34.078125 23.484375 
L 26.21875 23.484375 
L 25.203125 40.921875 
z
M 25.203125 12.40625 
L 35.109375 12.40625 
L 35.109375 0 
L 25.203125 0 
z
" id="DejaVuSansMono-33"/>
       </defs>
       <use xlink:href="#DejaVuSansMono-33"/>
       <use x="60.205078" xlink:href="#DejaVuSansMono-32"/>
       <use x="120.410156" xlink:href="#DejaVuSansMono-40"/>
       <use x="180.615234" xlink:href="#DejaVuSansMono-49"/>
       <use x="240.820312" xlink:href="#DejaVuSansMono-51"/>
       <use x="301.025391" xlink:href="#DejaVuSansMono-41"/>
      </g>
     </g>
    </g>
    <g id="ytick_3">
     <g id="text_13">
      <!-- FW (19) -->
      <g style="fill:#262626;" transform="translate(124.143594 263.288359)scale(0.11 -0.11)">
       <defs>
        <path d="M 11.375 72.90625 
L 54.296875 72.90625 
L 54.296875 64.59375 
L 21.296875 64.59375 
L 21.296875 43.109375 
L 51.21875 43.109375 
L 51.21875 34.8125 
L 21.296875 34.8125 
L 21.296875 0 
L 11.375 0 
z
" id="DejaVuSansMono-70"/>
        <path d="M 0 72.90625 
L 9.625 72.90625 
L 16.609375 13.71875 
L 24.90625 52.875 
L 35.203125 52.875 
L 43.609375 13.625 
L 50.59375 72.90625 
L 60.203125 72.90625 
L 49.3125 0 
L 39.984375 0 
L 30.078125 43.3125 
L 20.21875 0 
L 10.890625 0 
z
" id="DejaVuSansMono-87"/>
        <path d="M 29.109375 32.328125 
Q 35.40625 32.328125 38.984375 36.859375 
Q 42.578125 41.40625 42.578125 49.421875 
Q 42.578125 57.421875 38.984375 61.953125 
Q 35.40625 66.5 29.109375 66.5 
Q 22.5625 66.5 19.234375 62.171875 
Q 15.921875 57.859375 15.921875 49.421875 
Q 15.921875 40.921875 19.21875 36.625 
Q 22.515625 32.328125 29.109375 32.328125 
z
M 11.53125 1.515625 
L 11.53125 10.59375 
Q 14.59375 8.796875 18.0625 7.84375 
Q 21.53125 6.890625 25.296875 6.890625 
Q 34.671875 6.890625 39.46875 13.9375 
Q 44.28125 21 44.28125 34.71875 
Q 42 29.828125 37.84375 27.21875 
Q 33.6875 24.609375 28.328125 24.609375 
Q 17.78125 24.609375 11.984375 31.09375 
Q 6.203125 37.59375 6.203125 49.515625 
Q 6.203125 61.28125 12.125 67.75 
Q 18.0625 74.21875 28.90625 74.21875 
Q 41.609375 74.21875 47.515625 65.078125 
Q 53.421875 55.953125 53.421875 36.375 
Q 53.421875 17.96875 46.3125 8.265625 
Q 39.203125 -1.421875 25.6875 -1.421875 
Q 22.125 -1.421875 18.5 -0.65625 
Q 14.890625 0.09375 11.53125 1.515625 
z
" id="DejaVuSansMono-57"/>
       </defs>
       <use xlink:href="#DejaVuSansMono-70"/>
       <use x="60.205078" xlink:href="#DejaVuSansMono-87"/>
       <use x="120.410156" xlink:href="#DejaVuSansMono-32"/>
       <use x="180.615234" xlink:href="#DejaVuSansMono-40"/>
       <use x="240.820312" xlink:href="#DejaVuSansMono-49"/>
       <use x="301.025391" xlink:href="#DejaVuSansMono-57"/>
       <use x="361.230469" xlink:href="#DejaVuSansMono-41"/>
      </g>
     </g>
    </g>
    <g id="ytick_4">
     <g id="text_14">
      <!-- CDA (30) -->
      <g style="fill:#262626;" transform="translate(117.52125 308.168359)scale(0.11 -0.11)">
       <defs>
        <path d="M 52.390625 2.59375 
Q 48.640625 0.59375 44.671875 -0.40625 
Q 40.71875 -1.421875 36.28125 -1.421875 
Q 22.265625 -1.421875 14.515625 8.484375 
Q 6.78125 18.40625 6.78125 36.375 
Q 6.78125 54.25 14.5625 64.234375 
Q 22.359375 74.21875 36.28125 74.21875 
Q 40.71875 74.21875 44.671875 73.21875 
Q 48.640625 72.21875 52.390625 70.21875 
L 52.390625 60.109375 
Q 48.78125 63.09375 44.625 64.65625 
Q 40.484375 66.21875 36.28125 66.21875 
Q 26.65625 66.21875 21.875 58.796875 
Q 17.09375 51.375 17.09375 36.375 
Q 17.09375 21.4375 21.875 14.015625 
Q 26.65625 6.59375 36.28125 6.59375 
Q 40.578125 6.59375 44.703125 8.15625 
Q 48.828125 9.71875 52.390625 12.703125 
z
" id="DejaVuSansMono-67"/>
        <path d="M 21.296875 8.109375 
Q 33.734375 8.109375 38.671875 14.234375 
Q 43.609375 20.359375 43.609375 36.375 
Q 43.609375 52.546875 38.703125 58.671875 
Q 33.796875 64.796875 21.296875 64.796875 
L 16.609375 64.796875 
L 16.609375 8.109375 
z
M 21.484375 72.90625 
Q 38.1875 72.90625 46.09375 64.015625 
Q 54 55.125 54 36.375 
Q 54 17.71875 46.09375 8.859375 
Q 38.1875 0 21.484375 0 
L 6.6875 0 
L 6.6875 72.90625 
z
" id="DejaVuSansMono-68"/>
        <path d="M 30.078125 64.203125 
L 19.671875 26.90625 
L 40.484375 26.90625 
z
M 24.125 72.90625 
L 36.078125 72.90625 
L 58.40625 0 
L 48.1875 0 
L 42.828125 19 
L 17.28125 19 
L 12.015625 0 
L 1.8125 0 
z
" id="DejaVuSansMono-65"/>
       </defs>
       <use xlink:href="#DejaVuSansMono-67"/>
       <use x="60.205078" xlink:href="#DejaVuSansMono-68"/>
       <use x="120.410156" xlink:href="#DejaVuSansMono-65"/>
       <use x="180.615234" xlink:href="#DejaVuSansMono-32"/>
       <use x="240.820312" xlink:href="#DejaVuSansMono-40"/>
       <use x="301.025391" xlink:href="#DejaVuSansMono-51"/>
       <use x="361.230469" xlink:href="#DejaVuSansMono-48"/>
       <use x="421.435547" xlink:href="#DejaVuSansMono-41"/>
      </g>
     </g>
    </g>
    <g id="ytick_5">
     <g id="text_15">
      <!-- ? (74) -->
      <g style="fill:#262626;" transform="translate(130.765938 353.048359)scale(0.11 -0.11)">
       <defs>
        <path d="M 33.40625 19.578125 
L 24.125 19.578125 
L 24.125 27.09375 
Q 24.125 31.890625 25.609375 35.234375 
Q 27.09375 38.578125 31.203125 42.578125 
L 35.59375 46.921875 
Q 38.625 49.8125 39.765625 51.953125 
Q 40.921875 54.109375 40.921875 56.5 
Q 40.921875 60.84375 37.71875 63.53125 
Q 34.515625 66.21875 29.203125 66.21875 
Q 25.390625 66.21875 21.046875 64.53125 
Q 16.703125 62.84375 11.921875 59.515625 
L 11.921875 68.703125 
Q 16.5 71.484375 21.15625 72.84375 
Q 25.828125 74.21875 30.90625 74.21875 
Q 39.984375 74.21875 45.375 69.53125 
Q 50.78125 64.84375 50.78125 56.984375 
Q 50.78125 53.265625 49.140625 50.0625 
Q 47.515625 46.875 42.921875 42.390625 
L 38.625 38.1875 
Q 35.25 34.96875 34.328125 32.90625 
Q 33.40625 30.859375 33.40625 27.875 
L 33.40625 25.59375 
z
M 23.78125 12.40625 
L 33.6875 12.40625 
L 33.6875 0 
L 23.78125 0 
z
" id="DejaVuSansMono-63"/>
       </defs>
       <use xlink:href="#DejaVuSansMono-63"/>
       <use x="60.205078" xlink:href="#DejaVuSansMono-32"/>
       <use x="120.410156" xlink:href="#DejaVuSansMono-40"/>
       <use x="180.615234" xlink:href="#DejaVuSansMono-55"/>
       <use x="240.820312" xlink:href="#DejaVuSansMono-52"/>
       <use x="301.025391" xlink:href="#DejaVuSansMono-41"/>
      </g>
     </g>
    </g>
    <g id="ytick_6">
     <g id="text_16">
      <!-- CDI (91) -->
      <g style="fill:#262626;" transform="translate(117.52125 397.928359)scale(0.11 -0.11)">
       <defs>
        <path d="M 9.8125 72.90625 
L 50.296875 72.90625 
L 50.296875 64.59375 
L 35.015625 64.59375 
L 35.015625 8.296875 
L 50.296875 8.296875 
L 50.296875 0 
L 9.8125 0 
L 9.8125 8.296875 
L 25.09375 8.296875 
L 25.09375 64.59375 
L 9.8125 64.59375 
z
" id="DejaVuSansMono-73"/>
       </defs>
       <use xlink:href="#DejaVuSansMono-67"/>
       <use x="60.205078" xlink:href="#DejaVuSansMono-68"/>
       <use x="120.410156" xlink:href="#DejaVuSansMono-73"/>
       <use x="180.615234" xlink:href="#DejaVuSansMono-32"/>
       <use x="240.820312" xlink:href="#DejaVuSansMono-40"/>
       <use x="301.025391" xlink:href="#DejaVuSansMono-57"/>
       <use x="361.230469" xlink:href="#DejaVuSansMono-49"/>
       <use x="421.435547" xlink:href="#DejaVuSansMono-41"/>
      </g>
     </g>
    </g>
    <g id="ytick_7">
     <g id="text_17">
      <!-- MD (110) -->
      <g style="fill:#262626;" transform="translate(117.52125 442.808359)scale(0.11 -0.11)">
       <use xlink:href="#DejaVuSansMono-77"/>
       <use x="60.205078" xlink:href="#DejaVuSansMono-68"/>
       <use x="120.410156" xlink:href="#DejaVuSansMono-32"/>
       <use x="180.615234" xlink:href="#DejaVuSansMono-40"/>
       <use x="240.820312" xlink:href="#DejaVuSansMono-49"/>
       <use x="301.025391" xlink:href="#DejaVuSansMono-49"/>
       <use x="361.230469" xlink:href="#DejaVuSansMono-48"/>
       <use x="421.435547" xlink:href="#DejaVuSansMono-41"/>
      </g>
     </g>
    </g>
    <g id="ytick_8">
     <g id="text_18">
      <!-- WH (133) -->
      <g style="fill:#262626;" transform="translate(117.52125 487.688359)scale(0.11 -0.11)">
       <defs>
        <path d="M 6.6875 72.90625 
L 16.609375 72.90625 
L 16.609375 43.015625 
L 43.609375 43.015625 
L 43.609375 72.90625 
L 53.515625 72.90625 
L 53.515625 0 
L 43.609375 0 
L 43.609375 34.71875 
L 16.609375 34.71875 
L 16.609375 0 
L 6.6875 0 
z
" id="DejaVuSansMono-72"/>
       </defs>
       <use xlink:href="#DejaVuSansMono-87"/>
       <use x="60.205078" xlink:href="#DejaVuSansMono-72"/>
       <use x="120.410156" xlink:href="#DejaVuSansMono-32"/>
       <use x="180.615234" xlink:href="#DejaVuSansMono-40"/>
       <use x="240.820312" xlink:href="#DejaVuSansMono-49"/>
       <use x="301.025391" xlink:href="#DejaVuSansMono-51"/>
       <use x="361.230469" xlink:href="#DejaVuSansMono-51"/>
       <use x="421.435547" xlink:href="#DejaVuSansMono-41"/>
      </g>
     </g>
    </g>
    <g id="ytick_9">
     <g id="text_19">
      <!-- CD (179) -->
      <g style="fill:#262626;" transform="translate(117.52125 532.568359)scale(0.11 -0.11)">
       <use xlink:href="#DejaVuSansMono-67"/>
       <use x="60.205078" xlink:href="#DejaVuSansMono-68"/>
       <use x="120.410156" xlink:href="#DejaVuSansMono-32"/>
       <use x="180.615234" xlink:href="#DejaVuSansMono-40"/>
       <use x="240.820312" xlink:href="#DejaVuSansMono-49"/>
       <use x="301.025391" xlink:href="#DejaVuSansMono-55"/>
       <use x="361.230469" xlink:href="#DejaVuSansMono-57"/>
       <use x="421.435547" xlink:href="#DejaVuSansMono-41"/>
      </g>
     </g>
    </g>
    <g id="ytick_10">
     <g id="text_20">
      <!-- NEG (327) -->
      <g style="fill:#262626;" transform="translate(110.898906 577.448359)scale(0.11 -0.11)">
       <defs>
        <path d="M 6.78125 72.90625 
L 19.28125 72.90625 
L 43.890625 12.890625 
L 43.890625 72.90625 
L 53.421875 72.90625 
L 53.421875 0 
L 40.921875 0 
L 16.3125 60.015625 
L 16.3125 0 
L 6.78125 0 
z
" id="DejaVuSansMono-78"/>
        <path d="M 9.625 72.90625 
L 52.875 72.90625 
L 52.875 64.59375 
L 19.484375 64.59375 
L 19.484375 43.015625 
L 51.421875 43.015625 
L 51.421875 34.71875 
L 19.484375 34.71875 
L 19.484375 8.296875 
L 53.8125 8.296875 
L 53.8125 0 
L 9.625 0 
z
" id="DejaVuSansMono-69"/>
        <path d="M 53.90625 6 
Q 49.953125 2.34375 45 0.453125 
Q 40.046875 -1.421875 34.28125 -1.421875 
Q 20.40625 -1.421875 12.6875 8.515625 
Q 4.984375 18.453125 4.984375 36.375 
Q 4.984375 54.25 12.796875 64.234375 
Q 20.609375 74.21875 34.515625 74.21875 
Q 39.109375 74.21875 43.3125 72.921875 
Q 47.515625 71.625 51.421875 69 
L 51.421875 58.890625 
Q 47.46875 62.640625 43.3125 64.421875 
Q 39.15625 66.21875 34.515625 66.21875 
Q 24.90625 66.21875 20.09375 58.765625 
Q 15.28125 51.3125 15.28125 36.375 
Q 15.28125 21.1875 19.9375 13.890625 
Q 24.609375 6.59375 34.28125 6.59375 
Q 37.546875 6.59375 40.015625 7.34375 
Q 42.484375 8.109375 44.484375 9.71875 
L 44.484375 29.296875 
L 33.890625 29.296875 
L 33.890625 37.40625 
L 53.90625 37.40625 
z
" id="DejaVuSansMono-71"/>
       </defs>
       <use xlink:href="#DejaVuSansMono-78"/>
       <use x="60.205078" xlink:href="#DejaVuSansMono-69"/>
       <use x="120.410156" xlink:href="#DejaVuSansMono-71"/>
       <use x="180.615234" xlink:href="#DejaVuSansMono-32"/>
       <use x="240.820312" xlink:href="#DejaVuSansMono-40"/>
       <use x="301.025391" xlink:href="#DejaVuSansMono-51"/>
       <use x="361.230469" xlink:href="#DejaVuSansMono-50"/>
       <use x="421.435547" xlink:href="#DejaVuSansMono-55"/>
       <use x="481.640625" xlink:href="#DejaVuSansMono-41"/>
      </g>
     </g>
    </g>
    <g id="ytick_11">
     <g id="text_21">
      <!-- IN (483) -->
      <g style="fill:#262626;" transform="translate(117.52125 622.328359)scale(0.11 -0.11)">
       <use xlink:href="#DejaVuSansMono-73"/>
       <use x="60.205078" xlink:href="#DejaVuSansMono-78"/>
       <use x="120.410156" xlink:href="#DejaVuSansMono-32"/>
       <use x="180.615234" xlink:href="#DejaVuSansMono-40"/>
       <use x="240.820312" xlink:href="#DejaVuSansMono-52"/>
       <use x="301.025391" xlink:href="#DejaVuSansMono-56"/>
       <use x="361.230469" xlink:href="#DejaVuSansMono-51"/>
       <use x="421.435547" xlink:href="#DejaVuSansMono-41"/>
      </g>
     </g>
    </g>
    <g id="ytick_12">
     <g id="text_22">
      <!-- DT (724) -->
      <g style="fill:#262626;" transform="translate(117.52125 667.208359)scale(0.11 -0.11)">
       <defs>
        <path d="M 2.296875 72.90625 
L 57.90625 72.90625 
L 57.90625 64.59375 
L 35.109375 64.59375 
L 35.109375 0 
L 25.203125 0 
L 25.203125 64.59375 
L 2.296875 64.59375 
z
" id="DejaVuSansMono-84"/>
       </defs>
       <use xlink:href="#DejaVuSansMono-68"/>
       <use x="60.205078" xlink:href="#DejaVuSansMono-84"/>
       <use x="120.410156" xlink:href="#DejaVuSansMono-32"/>
       <use x="180.615234" xlink:href="#DejaVuSansMono-40"/>
       <use x="240.820312" xlink:href="#DejaVuSansMono-55"/>
       <use x="301.025391" xlink:href="#DejaVuSansMono-50"/>
       <use x="361.230469" xlink:href="#DejaVuSansMono-52"/>
       <use x="421.435547" xlink:href="#DejaVuSansMono-41"/>
      </g>
     </g>
    </g>
    <g id="ytick_13">
     <g id="text_23">
      <!-- PRP (726) -->
      <g style="fill:#262626;" transform="translate(110.898906 712.088359)scale(0.11 -0.11)">
       <defs>
        <path d="M 19.484375 64.796875 
L 19.484375 37.40625 
L 30.90625 37.40625 
Q 37.75 37.40625 41.578125 41.015625 
Q 45.40625 44.625 45.40625 51.125 
Q 45.40625 57.625 41.59375 61.203125 
Q 37.796875 64.796875 30.90625 64.796875 
z
M 9.625 72.90625 
L 30.90625 72.90625 
Q 43.109375 72.90625 49.40625 67.359375 
Q 55.71875 61.8125 55.71875 51.125 
Q 55.71875 40.328125 49.4375 34.8125 
Q 43.171875 29.296875 30.90625 29.296875 
L 19.484375 29.296875 
L 19.484375 0 
L 9.625 0 
z
" id="DejaVuSansMono-80"/>
        <path d="M 37.109375 34.421875 
Q 40.921875 33.453125 43.609375 30.734375 
Q 46.296875 28.03125 50.296875 19.921875 
L 60.203125 0 
L 49.609375 0 
L 40.921875 18.40625 
Q 37.15625 26.265625 34.15625 28.53125 
Q 31.15625 30.8125 26.3125 30.8125 
L 16.890625 30.8125 
L 16.890625 0 
L 6.984375 0 
L 6.984375 72.90625 
L 27.296875 72.90625 
Q 39.3125 72.90625 45.703125 67.484375 
Q 52.09375 62.0625 52.09375 51.8125 
Q 52.09375 44.578125 48.15625 40.015625 
Q 44.234375 35.453125 37.109375 34.421875 
z
M 16.890625 64.796875 
L 16.890625 38.921875 
L 27.6875 38.921875 
Q 34.765625 38.921875 38.234375 42.09375 
Q 41.703125 45.265625 41.703125 51.8125 
Q 41.703125 58.109375 38.015625 61.453125 
Q 34.328125 64.796875 27.296875 64.796875 
z
" id="DejaVuSansMono-82"/>
       </defs>
       <use xlink:href="#DejaVuSansMono-80"/>
       <use x="60.205078" xlink:href="#DejaVuSansMono-82"/>
       <use x="120.410156" xlink:href="#DejaVuSansMono-80"/>
       <use x="180.615234" xlink:href="#DejaVuSansMono-32"/>
       <use x="240.820312" xlink:href="#DejaVuSansMono-40"/>
       <use x="301.025391" xlink:href="#DejaVuSansMono-55"/>
       <use x="361.230469" xlink:href="#DejaVuSansMono-50"/>
       <use x="421.435547" xlink:href="#DejaVuSansMono-54"/>
       <use x="481.640625" xlink:href="#DejaVuSansMono-41"/>
      </g>
     </g>
    </g>
    <g id="ytick_14">
     <g id="text_24">
      <!-- RP (765) -->
      <g style="fill:#262626;" transform="translate(117.52125 756.968359)scale(0.11 -0.11)">
       <use xlink:href="#DejaVuSansMono-82"/>
       <use x="60.205078" xlink:href="#DejaVuSansMono-80"/>
       <use x="120.410156" xlink:href="#DejaVuSansMono-32"/>
       <use x="180.615234" xlink:href="#DejaVuSansMono-40"/>
       <use x="240.820312" xlink:href="#DejaVuSansMono-55"/>
       <use x="301.025391" xlink:href="#DejaVuSansMono-54"/>
       <use x="361.230469" xlink:href="#DejaVuSansMono-53"/>
       <use x="421.435547" xlink:href="#DejaVuSansMono-41"/>
      </g>
     </g>
    </g>
    <g id="ytick_15">
     <g id="text_25">
      <!-- JJ (879) -->
      <g style="fill:#262626;" transform="translate(117.52125 801.848359)scale(0.11 -0.11)">
       <defs>
        <path d="M 5.328125 2.984375 
L 5.328125 14.5 
Q 9.765625 10.546875 14.5 8.5625 
Q 19.234375 6.59375 24.3125 6.59375 
Q 31.296875 6.59375 34.046875 10.234375 
Q 36.8125 13.875 36.8125 23.78125 
L 36.8125 64.59375 
L 18.21875 64.59375 
L 18.21875 72.90625 
L 46.6875 72.90625 
L 46.6875 23.78125 
Q 46.6875 10.015625 41.53125 4.296875 
Q 36.375 -1.421875 24.3125 -1.421875 
Q 19.625 -1.421875 14.984375 -0.34375 
Q 10.359375 0.734375 5.328125 2.984375 
z
" id="DejaVuSansMono-74"/>
       </defs>
       <use xlink:href="#DejaVuSansMono-74"/>
       <use x="60.205078" xlink:href="#DejaVuSansMono-74"/>
       <use x="120.410156" xlink:href="#DejaVuSansMono-32"/>
       <use x="180.615234" xlink:href="#DejaVuSansMono-40"/>
       <use x="240.820312" xlink:href="#DejaVuSansMono-56"/>
       <use x="301.025391" xlink:href="#DejaVuSansMono-55"/>
       <use x="361.230469" xlink:href="#DejaVuSansMono-57"/>
       <use x="421.435547" xlink:href="#DejaVuSansMono-41"/>
      </g>
     </g>
    </g>
    <g id="ytick_16">
     <g id="text_26">
      <!-- CON (958) -->
      <g style="fill:#262626;" transform="translate(110.898906 846.728359)scale(0.11 -0.11)">
       <defs>
        <path d="M 44.1875 36.375 
Q 44.1875 52.4375 40.890625 59.328125 
Q 37.59375 66.21875 30.078125 66.21875 
Q 22.609375 66.21875 19.3125 59.328125 
Q 16.015625 52.4375 16.015625 36.375 
Q 16.015625 20.359375 19.3125 13.46875 
Q 22.609375 6.59375 30.078125 6.59375 
Q 37.59375 6.59375 40.890625 13.453125 
Q 44.1875 20.3125 44.1875 36.375 
z
M 54.5 36.375 
Q 54.5 17.328125 48.46875 7.953125 
Q 42.4375 -1.421875 30.078125 -1.421875 
Q 17.71875 -1.421875 11.71875 7.90625 
Q 5.71875 17.234375 5.71875 36.375 
Q 5.71875 55.46875 11.75 64.84375 
Q 17.78125 74.21875 30.078125 74.21875 
Q 42.4375 74.21875 48.46875 64.84375 
Q 54.5 55.46875 54.5 36.375 
z
" id="DejaVuSansMono-79"/>
       </defs>
       <use xlink:href="#DejaVuSansMono-67"/>
       <use x="60.205078" xlink:href="#DejaVuSansMono-79"/>
       <use x="120.410156" xlink:href="#DejaVuSansMono-78"/>
       <use x="180.615234" xlink:href="#DejaVuSansMono-32"/>
       <use x="240.820312" xlink:href="#DejaVuSansMono-40"/>
       <use x="301.025391" xlink:href="#DejaVuSansMono-57"/>
       <use x="361.230469" xlink:href="#DejaVuSansMono-53"/>
       <use x="421.435547" xlink:href="#DejaVuSansMono-56"/>
       <use x="481.640625" xlink:href="#DejaVuSansMono-41"/>
      </g>
     </g>
    </g>
    <g id="ytick_17">
     <g id="text_27">
      <!-- NNP (1022) -->
      <g style="fill:#262626;" transform="translate(104.276562 891.608359)scale(0.11 -0.11)">
       <use xlink:href="#DejaVuSansMono-78"/>
       <use x="60.205078" xlink:href="#DejaVuSansMono-78"/>
       <use x="120.410156" xlink:href="#DejaVuSansMono-80"/>
       <use x="180.615234" xlink:href="#DejaVuSansMono-32"/>
       <use x="240.820312" xlink:href="#DejaVuSansMono-40"/>
       <use x="301.025391" xlink:href="#DejaVuSansMono-49"/>
       <use x="361.230469" xlink:href="#DejaVuSansMono-48"/>
       <use x="421.435547" xlink:href="#DejaVuSansMono-50"/>
       <use x="481.640625" xlink:href="#DejaVuSansMono-50"/>
       <use x="541.845703" xlink:href="#DejaVuSansMono-41"/>
      </g>
     </g>
    </g>
    <g id="ytick_18">
     <g id="text_28">
      <!-- RB (1290) -->
      <g style="fill:#262626;" transform="translate(110.898906 936.488359)scale(0.11 -0.11)">
       <defs>
        <path d="M 18.015625 34.8125 
L 18.015625 8.109375 
L 29.6875 8.109375 
Q 38.28125 8.109375 41.9375 11.109375 
Q 45.609375 14.109375 45.609375 21 
Q 45.609375 28.125 41.75 31.46875 
Q 37.890625 34.8125 29.6875 34.8125 
z
M 18.015625 64.796875 
L 18.015625 42.828125 
L 29.5 42.828125 
Q 36.625 42.828125 39.8125 45.5625 
Q 43.015625 48.296875 43.015625 54.390625 
Q 43.015625 59.90625 39.859375 62.34375 
Q 36.71875 64.796875 29.5 64.796875 
z
M 8.109375 72.90625 
L 29.6875 72.90625 
Q 40.875 72.90625 46.921875 68.0625 
Q 52.984375 63.234375 52.984375 54.390625 
Q 52.984375 47.703125 49.78125 43.84375 
Q 46.578125 39.984375 40.1875 39.015625 
Q 47.359375 37.9375 51.4375 32.875 
Q 55.515625 27.828125 55.515625 20.015625 
Q 55.515625 10.109375 49.015625 5.046875 
Q 42.53125 0 29.6875 0 
L 8.109375 0 
z
" id="DejaVuSansMono-66"/>
       </defs>
       <use xlink:href="#DejaVuSansMono-82"/>
       <use x="60.205078" xlink:href="#DejaVuSansMono-66"/>
       <use x="120.410156" xlink:href="#DejaVuSansMono-32"/>
       <use x="180.615234" xlink:href="#DejaVuSansMono-40"/>
       <use x="240.820312" xlink:href="#DejaVuSansMono-49"/>
       <use x="301.025391" xlink:href="#DejaVuSansMono-50"/>
       <use x="361.230469" xlink:href="#DejaVuSansMono-57"/>
       <use x="421.435547" xlink:href="#DejaVuSansMono-48"/>
       <use x="481.640625" xlink:href="#DejaVuSansMono-41"/>
      </g>
     </g>
    </g>
    <g id="ytick_19">
     <g id="text_29">
      <!-- . (1413) -->
      <g style="fill:#262626;" transform="translate(117.52125 981.368359)scale(0.11 -0.11)">
       <defs>
        <path d="M 23.875 14.890625 
L 36.1875 14.890625 
L 36.1875 0 
L 23.875 0 
z
" id="DejaVuSansMono-46"/>
       </defs>
       <use xlink:href="#DejaVuSansMono-46"/>
       <use x="60.205078" xlink:href="#DejaVuSansMono-32"/>
       <use x="120.410156" xlink:href="#DejaVuSansMono-40"/>
       <use x="180.615234" xlink:href="#DejaVuSansMono-49"/>
       <use x="240.820312" xlink:href="#DejaVuSansMono-52"/>
       <use x="301.025391" xlink:href="#DejaVuSansMono-49"/>
       <use x="361.230469" xlink:href="#DejaVuSansMono-51"/>
       <use x="421.435547" xlink:href="#DejaVuSansMono-41"/>
      </g>
     </g>
    </g>
    <g id="ytick_20">
     <g id="text_30">
      <!-- VB (2273) -->
      <g style="fill:#262626;" transform="translate(110.898906 1026.248359)scale(0.11 -0.11)">
       <defs>
        <path d="M 30.078125 8.296875 
L 47.21875 72.90625 
L 57.421875 72.90625 
L 36.078125 0 
L 24.125 0 
L 2.78125 72.90625 
L 12.984375 72.90625 
z
" id="DejaVuSansMono-86"/>
       </defs>
       <use xlink:href="#DejaVuSansMono-86"/>
       <use x="60.205078" xlink:href="#DejaVuSansMono-66"/>
       <use x="120.410156" xlink:href="#DejaVuSansMono-32"/>
       <use x="180.615234" xlink:href="#DejaVuSansMono-40"/>
       <use x="240.820312" xlink:href="#DejaVuSansMono-50"/>
       <use x="301.025391" xlink:href="#DejaVuSansMono-50"/>
       <use x="361.230469" xlink:href="#DejaVuSansMono-55"/>
       <use x="421.435547" xlink:href="#DejaVuSansMono-51"/>
       <use x="481.640625" xlink:href="#DejaVuSansMono-41"/>
      </g>
     </g>
    </g>
    <g id="ytick_21">
     <g id="text_31">
      <!-- NN (2851) -->
      <g style="fill:#262626;" transform="translate(110.898906 1071.128359)scale(0.11 -0.11)">
       <use xlink:href="#DejaVuSansMono-78"/>
       <use x="60.205078" xlink:href="#DejaVuSansMono-78"/>
       <use x="120.410156" xlink:href="#DejaVuSansMono-32"/>
       <use x="180.615234" xlink:href="#DejaVuSansMono-40"/>
       <use x="240.820312" xlink:href="#DejaVuSansMono-50"/>
       <use x="301.025391" xlink:href="#DejaVuSansMono-56"/>
       <use x="361.230469" xlink:href="#DejaVuSansMono-53"/>
       <use x="421.435547" xlink:href="#DejaVuSansMono-49"/>
       <use x="481.640625" xlink:href="#DejaVuSansMono-41"/>
      </g>
     </g>
    </g>
    <g id="text_32">
     <!-- POS -->
     <g style="fill:#262626;" transform="translate(97.780937 628.956562)rotate(-90)scale(0.12 -0.12)">
      <use xlink:href="#DejaVuSansMono-80"/>
      <use x="60.205078" xlink:href="#DejaVuSansMono-79"/>
      <use x="120.410156" xlink:href="#DejaVuSansMono-83"/>
     </g>
    </g>
   </g>
   <g id="patch_3">
    <path clip-path="url(#p479ac3e1d0)" d="M 180 151.368 
L 181.064987 151.368 
L 181.064987 187.272 
L 180 187.272 
z
" style="fill:#1f77b4;stroke:#ffffff;stroke-linejoin:miter;"/>
   </g>
   <g id="patch_4">
    <path clip-path="url(#p479ac3e1d0)" d="M 180 196.248 
L 184.393072 196.248 
L 184.393072 232.152 
L 180 232.152 
z
" style="fill:#ff7f0e;stroke:#ffffff;stroke-linejoin:miter;"/>
   </g>
   <g id="patch_5">
    <path clip-path="url(#p479ac3e1d0)" d="M 180 241.128 
L 184.659319 241.128 
L 184.659319 277.032 
L 180 277.032 
z
" style="fill:#2ca02c;stroke:#ffffff;stroke-linejoin:miter;"/>
   </g>
   <g id="patch_6">
    <path clip-path="url(#p479ac3e1d0)" d="M 180 286.008 
L 186.123676 286.008 
L 186.123676 321.912 
L 180 321.912 
z
" style="fill:#d62728;stroke:#ffffff;stroke-linejoin:miter;"/>
   </g>
   <g id="patch_7">
    <path clip-path="url(#p479ac3e1d0)" d="M 180 330.888 
L 186.523046 330.888 
L 186.523046 366.792 
L 180 366.792 
z
" style="fill:#9467bd;stroke:#ffffff;stroke-linejoin:miter;"/>
   </g>
   <g id="patch_8">
    <path clip-path="url(#p479ac3e1d0)" d="M 180 375.768 
L 186.922416 375.768 
L 186.922416 411.672 
L 180 411.672 
z
" style="fill:#8c564b;stroke:#ffffff;stroke-linejoin:miter;"/>
   </g>
   <g id="patch_9">
    <path clip-path="url(#p479ac3e1d0)" d="M 180 420.648 
L 208.089035 420.648 
L 208.089035 456.552 
L 180 456.552 
z
" style="fill:#e377c2;stroke:#ffffff;stroke-linejoin:miter;"/>
   </g>
   <g id="patch_10">
    <path clip-path="url(#p479ac3e1d0)" d="M 180 465.528 
L 259.607787 465.528 
L 259.607787 501.432 
L 180 501.432 
z
" style="fill:#7f7f7f;stroke:#ffffff;stroke-linejoin:miter;"/>
   </g>
   <g id="patch_11">
    <path clip-path="url(#p479ac3e1d0)" d="M 180 510.408 
L 266.929573 510.408 
L 266.929573 546.312 
L 180 546.312 
z
" style="fill:#bcbd22;stroke:#ffffff;stroke-linejoin:miter;"/>
   </g>
   <g id="patch_12">
    <path clip-path="url(#p479ac3e1d0)" d="M 180 555.288 
L 314.454624 555.288 
L 314.454624 591.192 
L 180 591.192 
z
" style="fill:#17becf;stroke:#ffffff;stroke-linejoin:miter;"/>
   </g>
   <g id="patch_13">
    <path clip-path="url(#p479ac3e1d0)" d="M 180 600.168 
L 315.785857 600.168 
L 315.785857 636.072 
L 180 636.072 
z
" style="fill:#1f77b4;stroke:#ffffff;stroke-linejoin:miter;"/>
   </g>
   <g id="patch_14">
    <path clip-path="url(#p479ac3e1d0)" d="M 180 645.048 
L 374.759519 645.048 
L 374.759519 680.952 
L 180 680.952 
z
" style="fill:#ff7f0e;stroke:#ffffff;stroke-linejoin:miter;"/>
   </g>
   <g id="patch_15">
    <path clip-path="url(#p479ac3e1d0)" d="M 180 689.928 
L 379.818208 689.928 
L 379.818208 725.832 
L 180 725.832 
z
" style="fill:#2ca02c;stroke:#ffffff;stroke-linejoin:miter;"/>
   </g>
   <g id="patch_16">
    <path clip-path="url(#p479ac3e1d0)" d="M 180 734.808 
L 418.024621 734.808 
L 418.024621 770.712 
L 180 770.712 
z
" style="fill:#d62728;stroke:#ffffff;stroke-linejoin:miter;"/>
   </g>
   <g id="patch_17">
    <path clip-path="url(#p479ac3e1d0)" d="M 180 779.688 
L 422.284569 779.688 
L 422.284569 815.592 
L 180 815.592 
z
" style="fill:#9467bd;stroke:#ffffff;stroke-linejoin:miter;"/>
   </g>
   <g id="patch_18">
    <path clip-path="url(#p479ac3e1d0)" d="M 180 824.568 
L 455.032923 824.568 
L 455.032923 860.472 
L 180 860.472 
z
" style="fill:#8c564b;stroke:#ffffff;stroke-linejoin:miter;"/>
   </g>
   <g id="patch_19">
    <path clip-path="url(#p479ac3e1d0)" d="M 180 869.448 
L 530.780132 869.448 
L 530.780132 905.352 
L 180 905.352 
z
" style="fill:#e377c2;stroke:#ffffff;stroke-linejoin:miter;"/>
   </g>
   <g id="patch_20">
    <path clip-path="url(#p479ac3e1d0)" d="M 180 914.328 
L 954.112511 914.328 
L 954.112511 950.232 
L 180 950.232 
z
" style="fill:#7f7f7f;stroke:#ffffff;stroke-linejoin:miter;"/>
   </g>
   <g id="patch_21">
    <path clip-path="url(#p479ac3e1d0)" d="M 180 959.208 
L 984.198397 959.208 
L 984.198397 995.112 
L 180 995.112 
z
" style="fill:#bcbd22;stroke:#ffffff;stroke-linejoin:miter;"/>
   </g>
   <g id="patch_22">
    <path clip-path="url(#p479ac3e1d0)" d="M 180 1004.088 
L 1242.857143 1004.088 
L 1242.857143 1039.992 
L 180 1039.992 
z
" style="fill:#17becf;stroke:#ffffff;stroke-linejoin:miter;"/>
   </g>
   <g id="patch_23">
    <path clip-path="url(#p479ac3e1d0)" d="M 180 151.368 
L 181.464357 151.368 
L 181.464357 187.272 
L 180 187.272 
z
" style="fill:#1f77b4;stroke:#ffffff;stroke-linejoin:miter;"/>
   </g>
   <g id="patch_24">
    <path clip-path="url(#p479ac3e1d0)" d="M 180 196.248 
L 181.730604 196.248 
L 181.730604 232.152 
L 180 232.152 
z
" style="fill:#ff7f0e;stroke:#ffffff;stroke-linejoin:miter;"/>
   </g>
   <g id="patch_25">
    <path clip-path="url(#p479ac3e1d0)" d="M 180 241.128 
L 182.529344 241.128 
L 182.529344 277.032 
L 180 277.032 
z
" style="fill:#2ca02c;stroke:#ffffff;stroke-linejoin:miter;"/>
   </g>
   <g id="patch_26">
    <path clip-path="url(#p479ac3e1d0)" d="M 180 286.008 
L 183.993702 286.008 
L 183.993702 321.912 
L 180 321.912 
z
" style="fill:#d62728;stroke:#ffffff;stroke-linejoin:miter;"/>
   </g>
   <g id="patch_27">
    <path clip-path="url(#p479ac3e1d0)" d="M 180 330.888 
L 189.851131 330.888 
L 189.851131 366.792 
L 180 366.792 
z
" style="fill:#9467bd;stroke:#ffffff;stroke-linejoin:miter;"/>
   </g>
   <g id="patch_28">
    <path clip-path="url(#p479ac3e1d0)" d="M 180 375.768 
L 192.114228 375.768 
L 192.114228 411.672 
L 180 411.672 
z
" style="fill:#8c564b;stroke:#ffffff;stroke-linejoin:miter;"/>
   </g>
   <g id="patch_29">
    <path clip-path="url(#p479ac3e1d0)" d="M 180 420.648 
L 194.643573 420.648 
L 194.643573 456.552 
L 180 456.552 
z
" style="fill:#e377c2;stroke:#ffffff;stroke-linejoin:miter;"/>
   </g>
   <g id="patch_30">
    <path clip-path="url(#p479ac3e1d0)" d="M 180 465.528 
L 197.705411 465.528 
L 197.705411 501.432 
L 180 501.432 
z
" style="fill:#7f7f7f;stroke:#ffffff;stroke-linejoin:miter;"/>
   </g>
   <g id="patch_31">
    <path clip-path="url(#p479ac3e1d0)" d="M 180 510.408 
L 203.829087 510.408 
L 203.829087 546.312 
L 180 546.312 
z
" style="fill:#bcbd22;stroke:#ffffff;stroke-linejoin:miter;"/>
   </g>
   <g id="patch_32">
    <path clip-path="url(#p479ac3e1d0)" d="M 180 555.288 
L 223.531348 555.288 
L 223.531348 591.192 
L 180 591.192 
z
" style="fill:#17becf;stroke:#ffffff;stroke-linejoin:miter;"/>
   </g>
   <g id="patch_33">
    <path clip-path="url(#p479ac3e1d0)" d="M 180 600.168 
L 244.298597 600.168 
L 244.298597 636.072 
L 180 636.072 
z
" style="fill:#1f77b4;stroke:#ffffff;stroke-linejoin:miter;"/>
   </g>
   <g id="patch_34">
    <path clip-path="url(#p479ac3e1d0)" d="M 180 645.048 
L 276.381334 645.048 
L 276.381334 680.952 
L 180 680.952 
z
" style="fill:#ff7f0e;stroke:#ffffff;stroke-linejoin:miter;"/>
   </g>
   <g id="patch_35">
    <path clip-path="url(#p479ac3e1d0)" d="M 180 689.928 
L 276.647581 689.928 
L 276.647581 725.832 
L 180 725.832 
z
" style="fill:#2ca02c;stroke:#ffffff;stroke-linejoin:miter;"/>
   </g>
   <g id="patch_36">
    <path clip-path="url(#p479ac3e1d0)" d="M 180 734.808 
L 281.839393 734.808 
L 281.839393 770.712 
L 180 770.712 
z
" style="fill:#d62728;stroke:#ffffff;stroke-linejoin:miter;"/>
   </g>
   <g id="patch_37">
    <path clip-path="url(#p479ac3e1d0)" d="M 180 779.688 
L 297.015459 779.688 
L 297.015459 815.592 
L 180 815.592 
z
" style="fill:#9467bd;stroke:#ffffff;stroke-linejoin:miter;"/>
   </g>
   <g id="patch_38">
    <path clip-path="url(#p479ac3e1d0)" d="M 180 824.568 
L 307.532207 824.568 
L 307.532207 860.472 
L 180 860.472 
z
" style="fill:#8c564b;stroke:#ffffff;stroke-linejoin:miter;"/>
   </g>
   <g id="patch_39">
    <path clip-path="url(#p479ac3e1d0)" d="M 180 869.448 
L 316.052104 869.448 
L 316.052104 905.352 
L 180 905.352 
z
" style="fill:#e377c2;stroke:#ffffff;stroke-linejoin:miter;"/>
   </g>
   <g id="patch_40">
    <path clip-path="url(#p479ac3e1d0)" d="M 180 914.328 
L 351.729173 914.328 
L 351.729173 950.232 
L 180 950.232 
z
" style="fill:#7f7f7f;stroke:#ffffff;stroke-linejoin:miter;"/>
   </g>
   <g id="patch_41">
    <path clip-path="url(#p479ac3e1d0)" d="M 180 959.208 
L 368.10335 959.208 
L 368.10335 995.112 
L 180 995.112 
z
" style="fill:#bcbd22;stroke:#ffffff;stroke-linejoin:miter;"/>
   </g>
   <g id="patch_42">
    <path clip-path="url(#p479ac3e1d0)" d="M 180 1004.088 
L 482.589465 1004.088 
L 482.589465 1039.992 
L 180 1039.992 
z
" style="fill:#17becf;stroke:#ffffff;stroke-linejoin:miter;"/>
   </g>
   <g id="patch_43">
    <path clip-path="url(#p479ac3e1d0)" d="M 180 1048.968 
L 559.534784 1048.968 
L 559.534784 1084.872 
L 180 1084.872 
z
" style="fill:#1f77b4;stroke:#ffffff;stroke-linejoin:miter;"/>
   </g>
   <g id="line2d_10">
    <path clip-path="url(#p479ac3e1d0)" d="M 0 0 
" style="fill:none;stroke:#424242;stroke-linecap:round;stroke-width:2.7;"/>
   </g>
   <g id="line2d_11">
    <path clip-path="url(#p479ac3e1d0)" d="M 0 0 
" style="fill:none;stroke:#424242;stroke-linecap:round;stroke-width:2.7;"/>
   </g>
   <g id="line2d_12">
    <path clip-path="url(#p479ac3e1d0)" d="M 0 0 
" style="fill:none;stroke:#424242;stroke-linecap:round;stroke-width:2.7;"/>
   </g>
   <g id="line2d_13">
    <path clip-path="url(#p479ac3e1d0)" d="M 0 0 
" style="fill:none;stroke:#424242;stroke-linecap:round;stroke-width:2.7;"/>
   </g>
   <g id="line2d_14">
    <path clip-path="url(#p479ac3e1d0)" d="M 0 0 
" style="fill:none;stroke:#424242;stroke-linecap:round;stroke-width:2.7;"/>
   </g>
   <g id="line2d_15">
    <path clip-path="url(#p479ac3e1d0)" d="M 0 0 
" style="fill:none;stroke:#424242;stroke-linecap:round;stroke-width:2.7;"/>
   </g>
   <g id="line2d_16">
    <path clip-path="url(#p479ac3e1d0)" d="M 0 0 
" style="fill:none;stroke:#424242;stroke-linecap:round;stroke-width:2.7;"/>
   </g>
   <g id="line2d_17">
    <path clip-path="url(#p479ac3e1d0)" d="M 0 0 
" style="fill:none;stroke:#424242;stroke-linecap:round;stroke-width:2.7;"/>
   </g>
   <g id="line2d_18">
    <path clip-path="url(#p479ac3e1d0)" d="M 0 0 
" style="fill:none;stroke:#424242;stroke-linecap:round;stroke-width:2.7;"/>
   </g>
   <g id="line2d_19">
    <path clip-path="url(#p479ac3e1d0)" d="M 0 0 
" style="fill:none;stroke:#424242;stroke-linecap:round;stroke-width:2.7;"/>
   </g>
   <g id="line2d_20">
    <path clip-path="url(#p479ac3e1d0)" d="M 0 0 
" style="fill:none;stroke:#424242;stroke-linecap:round;stroke-width:2.7;"/>
   </g>
   <g id="line2d_21">
    <path clip-path="url(#p479ac3e1d0)" d="M 0 0 
" style="fill:none;stroke:#424242;stroke-linecap:round;stroke-width:2.7;"/>
   </g>
   <g id="line2d_22">
    <path clip-path="url(#p479ac3e1d0)" d="M 0 0 
" style="fill:none;stroke:#424242;stroke-linecap:round;stroke-width:2.7;"/>
   </g>
   <g id="line2d_23">
    <path clip-path="url(#p479ac3e1d0)" d="M 0 0 
" style="fill:none;stroke:#424242;stroke-linecap:round;stroke-width:2.7;"/>
   </g>
   <g id="line2d_24">
    <path clip-path="url(#p479ac3e1d0)" d="M 0 0 
" style="fill:none;stroke:#424242;stroke-linecap:round;stroke-width:2.7;"/>
   </g>
   <g id="line2d_25">
    <path clip-path="url(#p479ac3e1d0)" d="M 0 0 
" style="fill:none;stroke:#424242;stroke-linecap:round;stroke-width:2.7;"/>
   </g>
   <g id="line2d_26">
    <path clip-path="url(#p479ac3e1d0)" d="M 0 0 
" style="fill:none;stroke:#424242;stroke-linecap:round;stroke-width:2.7;"/>
   </g>
   <g id="line2d_27">
    <path clip-path="url(#p479ac3e1d0)" d="M 0 0 
" style="fill:none;stroke:#424242;stroke-linecap:round;stroke-width:2.7;"/>
   </g>
   <g id="line2d_28">
    <path clip-path="url(#p479ac3e1d0)" d="M 0 0 
" style="fill:none;stroke:#424242;stroke-linecap:round;stroke-width:2.7;"/>
   </g>
   <g id="line2d_29">
    <path clip-path="url(#p479ac3e1d0)" d="M 0 0 
" style="fill:none;stroke:#424242;stroke-linecap:round;stroke-width:2.7;"/>
   </g>
   <g id="line2d_30">
    <path clip-path="url(#p479ac3e1d0)" d="M 0 0 
" style="fill:none;stroke:#424242;stroke-linecap:round;stroke-width:2.7;"/>
   </g>
   <g id="line2d_31">
    <path clip-path="url(#p479ac3e1d0)" d="M 0 0 
" style="fill:none;stroke:#424242;stroke-linecap:round;stroke-width:2.7;"/>
   </g>
   <g id="line2d_32">
    <path clip-path="url(#p479ac3e1d0)" d="M 0 0 
" style="fill:none;stroke:#424242;stroke-linecap:round;stroke-width:2.7;"/>
   </g>
   <g id="line2d_33">
    <path clip-path="url(#p479ac3e1d0)" d="M 0 0 
" style="fill:none;stroke:#424242;stroke-linecap:round;stroke-width:2.7;"/>
   </g>
   <g id="line2d_34">
    <path clip-path="url(#p479ac3e1d0)" d="M 0 0 
" style="fill:none;stroke:#424242;stroke-linecap:round;stroke-width:2.7;"/>
   </g>
   <g id="line2d_35">
    <path clip-path="url(#p479ac3e1d0)" d="M 0 0 
" style="fill:none;stroke:#424242;stroke-linecap:round;stroke-width:2.7;"/>
   </g>
   <g id="line2d_36">
    <path clip-path="url(#p479ac3e1d0)" d="M 0 0 
" style="fill:none;stroke:#424242;stroke-linecap:round;stroke-width:2.7;"/>
   </g>
   <g id="line2d_37">
    <path clip-path="url(#p479ac3e1d0)" d="M 0 0 
" style="fill:none;stroke:#424242;stroke-linecap:round;stroke-width:2.7;"/>
   </g>
   <g id="line2d_38">
    <path clip-path="url(#p479ac3e1d0)" d="M 0 0 
" style="fill:none;stroke:#424242;stroke-linecap:round;stroke-width:2.7;"/>
   </g>
   <g id="line2d_39">
    <path clip-path="url(#p479ac3e1d0)" d="M 0 0 
" style="fill:none;stroke:#424242;stroke-linecap:round;stroke-width:2.7;"/>
   </g>
   <g id="line2d_40">
    <path clip-path="url(#p479ac3e1d0)" d="M 0 0 
" style="fill:none;stroke:#424242;stroke-linecap:round;stroke-width:2.7;"/>
   </g>
   <g id="line2d_41">
    <path clip-path="url(#p479ac3e1d0)" d="M 0 0 
" style="fill:none;stroke:#424242;stroke-linecap:round;stroke-width:2.7;"/>
   </g>
   <g id="line2d_42">
    <path clip-path="url(#p479ac3e1d0)" d="M 0 0 
" style="fill:none;stroke:#424242;stroke-linecap:round;stroke-width:2.7;"/>
   </g>
   <g id="line2d_43">
    <path clip-path="url(#p479ac3e1d0)" d="M 0 0 
" style="fill:none;stroke:#424242;stroke-linecap:round;stroke-width:2.7;"/>
   </g>
   <g id="line2d_44">
    <path clip-path="url(#p479ac3e1d0)" d="M 0 0 
" style="fill:none;stroke:#424242;stroke-linecap:round;stroke-width:2.7;"/>
   </g>
   <g id="line2d_45">
    <path clip-path="url(#p479ac3e1d0)" d="M 0 0 
" style="fill:none;stroke:#424242;stroke-linecap:round;stroke-width:2.7;"/>
   </g>
   <g id="line2d_46">
    <path clip-path="url(#p479ac3e1d0)" d="M 0 0 
" style="fill:none;stroke:#424242;stroke-linecap:round;stroke-width:2.7;"/>
   </g>
   <g id="line2d_47">
    <path clip-path="url(#p479ac3e1d0)" d="M 0 0 
" style="fill:none;stroke:#424242;stroke-linecap:round;stroke-width:2.7;"/>
   </g>
   <g id="line2d_48">
    <path clip-path="url(#p479ac3e1d0)" d="M 0 0 
" style="fill:none;stroke:#424242;stroke-linecap:round;stroke-width:2.7;"/>
   </g>
   <g id="line2d_49">
    <path clip-path="url(#p479ac3e1d0)" d="M 0 0 
" style="fill:none;stroke:#424242;stroke-linecap:round;stroke-width:2.7;"/>
   </g>
   <g id="line2d_50">
    <path clip-path="url(#p479ac3e1d0)" d="M 0 0 
" style="fill:none;stroke:#424242;stroke-linecap:round;stroke-width:2.7;"/>
   </g>
   <g id="patch_44">
    <path d="M 180 1089.36 
L 180 146.88 
" style="fill:none;stroke:#ffffff;stroke-linecap:square;stroke-linejoin:miter;stroke-width:1.25;"/>
   </g>
   <g id="patch_45">
    <path d="M 1296 1089.36 
L 1296 146.88 
" style="fill:none;stroke:#ffffff;stroke-linecap:square;stroke-linejoin:miter;stroke-width:1.25;"/>
   </g>
   <g id="patch_46">
    <path d="M 180 1089.36 
L 1296 1089.36 
" style="fill:none;stroke:#ffffff;stroke-linecap:square;stroke-linejoin:miter;stroke-width:1.25;"/>
   </g>
   <g id="patch_47">
    <path d="M 180 146.88 
L 1296 146.88 
" style="fill:none;stroke:#ffffff;stroke-linecap:square;stroke-linejoin:miter;stroke-width:1.25;"/>
   </g>
  </g>
 </g>
 <defs>
  <clipPath id="p479ac3e1d0">
   <rect height="942.48" width="1116" x="180" y="146.88"/>
  </clipPath>
 </defs>
</svg>
