<?xml version="1.0" encoding="utf-8" standalone="no"?>
<!DOCTYPE svg PUBLIC "-//W3C//DTD SVG 1.1//EN"
  "http://www.w3.org/Graphics/SVG/1.1/DTD/svg11.dtd">
<!-- Created with matplotlib (https://matplotlib.org/) -->
<svg height="1224pt" version="1.1" viewBox="0 0 1440 1224" width="1440pt" xmlns="http://www.w3.org/2000/svg" xmlns:xlink="http://www.w3.org/1999/xlink">
 <metadata>
  <rdf:RDF xmlns:cc="http://creativecommons.org/ns#" xmlns:dc="http://purl.org/dc/elements/1.1/" xmlns:rdf="http://www.w3.org/1999/02/22-rdf-syntax-ns#">
   <cc:Work>
    <dc:type rdf:resource="http://purl.org/dc/dcmitype/StillImage"/>
    <dc:date>2021-06-06T20:32:15.978640</dc:date>
    <dc:format>image/svg+xml</dc:format>
    <dc:creator>
     <cc:Agent>
      <dc:title>Matplotlib v3.3.4, https://matplotlib.org/</dc:title>
     </cc:Agent>
    </dc:creator>
   </cc:Work>
  </rdf:RDF>
 </metadata>
 <defs>
  <style type="text/css">*{stroke-linecap:butt;stroke-linejoin:round;}</style>
 </defs>
 <g id="figure_1">
  <g id="patch_1">
   <path d="M 0 1224 
L 1440 1224 
L 1440 0 
L 0 0 
z
" style="fill:#ffffff;"/>
  </g>
  <g id="axes_1">
   <g id="patch_2">
    <path d="M 180 1089.36 
L 1296 1089.36 
L 1296 146.88 
L 180 146.88 
z
" style="fill:#eaeaf2;"/>
   </g>
   <g id="matplotlib.axis_1">
    <g id="xtick_1">
     <g id="line2d_1">
      <path clip-path="url(#p2c89f0f692)" d="M 180 1089.36 
L 180 146.88 
" style="fill:none;stroke:#ffffff;stroke-linecap:round;"/>
     </g>
     <g id="text_1">
      <!-- 0 -->
      <g style="fill:#262626;" transform="translate(176.688828 1107.276719)scale(0.11 -0.11)">
       <defs>
        <path d="M 23.578125 36.625 
Q 23.578125 39.3125 25.453125 41.265625 
Q 27.34375 43.21875 29.984375 43.21875 
Q 32.71875 43.21875 34.671875 41.265625 
Q 36.625 39.3125 36.625 36.625 
Q 36.625 33.890625 34.6875 31.984375 
Q 32.765625 30.078125 29.984375 30.078125 
Q 27.25 30.078125 25.40625 31.9375 
Q 23.578125 33.796875 23.578125 36.625 
z
M 30.078125 66.40625 
Q 23.1875 66.40625 19.796875 58.984375 
Q 16.40625 51.5625 16.40625 36.375 
Q 16.40625 21.234375 19.796875 13.8125 
Q 23.1875 6.390625 30.078125 6.390625 
Q 37.015625 6.390625 40.40625 13.8125 
Q 43.796875 21.234375 43.796875 36.375 
Q 43.796875 51.5625 40.40625 58.984375 
Q 37.015625 66.40625 30.078125 66.40625 
z
M 30.078125 74.21875 
Q 41.75 74.21875 47.734375 64.640625 
Q 53.71875 55.078125 53.71875 36.375 
Q 53.71875 17.71875 47.734375 8.140625 
Q 41.75 -1.421875 30.078125 -1.421875 
Q 18.40625 -1.421875 12.453125 8.140625 
Q 6.5 17.71875 6.5 36.375 
Q 6.5 55.078125 12.453125 64.640625 
Q 18.40625 74.21875 30.078125 74.21875 
z
" id="DejaVuSansMono-48"/>
       </defs>
       <use xlink:href="#DejaVuSansMono-48"/>
      </g>
     </g>
    </g>
    <g id="xtick_2">
     <g id="line2d_2">
      <path clip-path="url(#p2c89f0f692)" d="M 365.425182 1089.36 
L 365.425182 146.88 
" style="fill:none;stroke:#ffffff;stroke-linecap:round;"/>
     </g>
     <g id="text_2">
      <!-- 2000 -->
      <g style="fill:#262626;" transform="translate(352.180494 1107.276719)scale(0.11 -0.11)">
       <defs>
        <path d="M 18.21875 8.296875 
L 51.703125 8.296875 
L 51.703125 0 
L 7.421875 0 
L 7.421875 8.296875 
Q 16.546875 17.921875 23.375 25.296875 
Q 30.21875 32.671875 32.8125 35.6875 
Q 37.703125 41.65625 39.40625 45.34375 
Q 41.109375 49.03125 41.109375 52.875 
Q 41.109375 58.984375 37.515625 62.453125 
Q 33.9375 65.921875 27.6875 65.921875 
Q 23.25 65.921875 18.359375 64.3125 
Q 13.484375 62.703125 8.015625 59.421875 
L 8.015625 69.390625 
Q 13.03125 71.78125 17.890625 73 
Q 22.75 74.21875 27.484375 74.21875 
Q 38.1875 74.21875 44.703125 68.53125 
Q 51.21875 62.84375 51.21875 53.609375 
Q 51.21875 48.921875 49.046875 44.234375 
Q 46.875 39.546875 42 33.890625 
Q 39.265625 30.71875 34.0625 25.09375 
Q 28.859375 19.484375 18.21875 8.296875 
z
" id="DejaVuSansMono-50"/>
       </defs>
       <use xlink:href="#DejaVuSansMono-50"/>
       <use x="60.205078" xlink:href="#DejaVuSansMono-48"/>
       <use x="120.410156" xlink:href="#DejaVuSansMono-48"/>
       <use x="180.615234" xlink:href="#DejaVuSansMono-48"/>
      </g>
     </g>
    </g>
    <g id="xtick_3">
     <g id="line2d_3">
      <path clip-path="url(#p2c89f0f692)" d="M 550.850364 1089.36 
L 550.850364 146.88 
" style="fill:none;stroke:#ffffff;stroke-linecap:round;"/>
     </g>
     <g id="text_3">
      <!-- 4000 -->
      <g style="fill:#262626;" transform="translate(537.605676 1107.276719)scale(0.11 -0.11)">
       <defs>
        <path d="M 35.890625 63.921875 
L 12.890625 25.390625 
L 35.890625 25.390625 
z
M 34.28125 72.90625 
L 45.703125 72.90625 
L 45.703125 25.390625 
L 55.421875 25.390625 
L 55.421875 17.390625 
L 45.703125 17.390625 
L 45.703125 0 
L 35.890625 0 
L 35.890625 17.390625 
L 4.984375 17.390625 
L 4.984375 26.703125 
z
" id="DejaVuSansMono-52"/>
       </defs>
       <use xlink:href="#DejaVuSansMono-52"/>
       <use x="60.205078" xlink:href="#DejaVuSansMono-48"/>
       <use x="120.410156" xlink:href="#DejaVuSansMono-48"/>
       <use x="180.615234" xlink:href="#DejaVuSansMono-48"/>
      </g>
     </g>
    </g>
    <g id="xtick_4">
     <g id="line2d_4">
      <path clip-path="url(#p2c89f0f692)" d="M 736.275546 1089.36 
L 736.275546 146.88 
" style="fill:none;stroke:#ffffff;stroke-linecap:round;"/>
     </g>
     <g id="text_4">
      <!-- 6000 -->
      <g style="fill:#262626;" transform="translate(723.030858 1107.276719)scale(0.11 -0.11)">
       <defs>
        <path d="M 48.390625 71.296875 
L 48.390625 62.203125 
Q 45.3125 64.015625 41.84375 64.96875 
Q 38.375 65.921875 34.625 65.921875 
Q 25.25 65.921875 20.40625 58.859375 
Q 15.578125 51.8125 15.578125 38.09375 
Q 17.921875 42.96875 22.0625 45.578125 
Q 26.21875 48.1875 31.59375 48.1875 
Q 42.140625 48.1875 47.921875 41.71875 
Q 53.71875 35.25 53.71875 23.390625 
Q 53.71875 11.578125 47.75 5.078125 
Q 41.796875 -1.421875 31 -1.421875 
Q 18.3125 -1.421875 12.40625 7.6875 
Q 6.5 16.796875 6.5 36.375 
Q 6.5 54.828125 13.59375 64.515625 
Q 20.703125 74.21875 34.1875 74.21875 
Q 37.796875 74.21875 41.40625 73.453125 
Q 45.015625 72.703125 48.390625 71.296875 
z
M 30.8125 40.484375 
Q 24.515625 40.484375 20.890625 35.9375 
Q 17.28125 31.390625 17.28125 23.390625 
Q 17.28125 15.375 20.890625 10.828125 
Q 24.515625 6.296875 30.8125 6.296875 
Q 37.359375 6.296875 40.671875 10.609375 
Q 44 14.9375 44 23.390625 
Q 44 31.890625 40.671875 36.1875 
Q 37.359375 40.484375 30.8125 40.484375 
z
" id="DejaVuSansMono-54"/>
       </defs>
       <use xlink:href="#DejaVuSansMono-54"/>
       <use x="60.205078" xlink:href="#DejaVuSansMono-48"/>
       <use x="120.410156" xlink:href="#DejaVuSansMono-48"/>
       <use x="180.615234" xlink:href="#DejaVuSansMono-48"/>
      </g>
     </g>
    </g>
    <g id="xtick_5">
     <g id="line2d_5">
      <path clip-path="url(#p2c89f0f692)" d="M 921.700728 1089.36 
L 921.700728 146.88 
" style="fill:none;stroke:#ffffff;stroke-linecap:round;"/>
     </g>
     <g id="text_5">
      <!-- 8000 -->
      <g style="fill:#262626;" transform="translate(908.45604 1107.276719)scale(0.11 -0.11)">
       <defs>
        <path d="M 30.078125 34.625 
Q 23.484375 34.625 19.890625 30.9375 
Q 16.3125 27.25 16.3125 20.515625 
Q 16.3125 13.765625 19.9375 10.03125 
Q 23.578125 6.296875 30.078125 6.296875 
Q 36.71875 6.296875 40.296875 9.984375 
Q 43.890625 13.671875 43.890625 20.515625 
Q 43.890625 27.203125 40.25 30.90625 
Q 36.625 34.625 30.078125 34.625 
z
M 21.484375 38.71875 
Q 15.1875 40.328125 11.640625 44.71875 
Q 8.109375 49.125 8.109375 55.328125 
Q 8.109375 64.015625 14.015625 69.109375 
Q 19.921875 74.21875 30.078125 74.21875 
Q 40.28125 74.21875 46.1875 69.109375 
Q 52.09375 64.015625 52.09375 55.328125 
Q 52.09375 49.125 48.546875 44.71875 
Q 45.015625 40.328125 38.71875 38.71875 
Q 46.046875 37.109375 49.921875 32.21875 
Q 53.8125 27.34375 53.8125 19.578125 
Q 53.8125 9.71875 47.515625 4.140625 
Q 41.21875 -1.421875 30.078125 -1.421875 
Q 18.953125 -1.421875 12.671875 4.125 
Q 6.390625 9.671875 6.390625 19.484375 
Q 6.390625 27.296875 10.265625 32.203125 
Q 14.15625 37.109375 21.484375 38.71875 
z
M 17.921875 54.390625 
Q 17.921875 48.53125 21.046875 45.453125 
Q 24.171875 42.390625 30.078125 42.390625 
Q 36.03125 42.390625 39.15625 45.453125 
Q 42.28125 48.53125 42.28125 54.390625 
Q 42.28125 60.359375 39.171875 63.484375 
Q 36.078125 66.609375 30.078125 66.609375 
Q 24.171875 66.609375 21.046875 63.453125 
Q 17.921875 60.296875 17.921875 54.390625 
z
" id="DejaVuSansMono-56"/>
       </defs>
       <use xlink:href="#DejaVuSansMono-56"/>
       <use x="60.205078" xlink:href="#DejaVuSansMono-48"/>
       <use x="120.410156" xlink:href="#DejaVuSansMono-48"/>
       <use x="180.615234" xlink:href="#DejaVuSansMono-48"/>
      </g>
     </g>
    </g>
    <g id="xtick_6">
     <g id="line2d_6">
      <path clip-path="url(#p2c89f0f692)" d="M 1107.12591 1089.36 
L 1107.12591 146.88 
" style="fill:none;stroke:#ffffff;stroke-linecap:round;"/>
     </g>
     <g id="text_6">
      <!-- 10000 -->
      <g style="fill:#262626;" transform="translate(1090.57005 1107.276719)scale(0.11 -0.11)">
       <defs>
        <path d="M 13.1875 8.296875 
L 28.515625 8.296875 
L 28.515625 64.015625 
L 12.015625 60.296875 
L 12.015625 69.28125 
L 28.421875 72.90625 
L 38.28125 72.90625 
L 38.28125 8.296875 
L 53.421875 8.296875 
L 53.421875 0 
L 13.1875 0 
z
" id="DejaVuSansMono-49"/>
       </defs>
       <use xlink:href="#DejaVuSansMono-49"/>
       <use x="60.205078" xlink:href="#DejaVuSansMono-48"/>
       <use x="120.410156" xlink:href="#DejaVuSansMono-48"/>
       <use x="180.615234" xlink:href="#DejaVuSansMono-48"/>
       <use x="240.820312" xlink:href="#DejaVuSansMono-48"/>
      </g>
     </g>
    </g>
    <g id="xtick_7">
     <g id="line2d_7">
      <path clip-path="url(#p2c89f0f692)" d="M 1292.551092 1089.36 
L 1292.551092 146.88 
" style="fill:none;stroke:#ffffff;stroke-linecap:round;"/>
     </g>
     <g id="text_7">
      <!-- 12000 -->
      <g style="fill:#262626;" transform="translate(1275.995232 1107.276719)scale(0.11 -0.11)">
       <use xlink:href="#DejaVuSansMono-49"/>
       <use x="60.205078" xlink:href="#DejaVuSansMono-50"/>
       <use x="120.410156" xlink:href="#DejaVuSansMono-48"/>
       <use x="180.615234" xlink:href="#DejaVuSansMono-48"/>
       <use x="240.820312" xlink:href="#DejaVuSansMono-48"/>
      </g>
     </g>
    </g>
    <g id="text_8">
     <!-- frequency -->
     <g style="fill:#262626;" transform="translate(705.490312 1122.721875)scale(0.12 -0.12)">
      <defs>
       <path d="M 51.90625 75.984375 
L 51.90625 68.5 
L 41.703125 68.5 
Q 36.859375 68.5 34.984375 66.515625 
Q 33.109375 64.546875 33.109375 59.515625 
L 33.109375 54.6875 
L 51.90625 54.6875 
L 51.90625 47.703125 
L 33.109375 47.703125 
L 33.109375 0 
L 24.125 0 
L 24.125 47.703125 
L 9.515625 47.703125 
L 9.515625 54.6875 
L 24.125 54.6875 
L 24.125 58.5 
Q 24.125 67.484375 28.25 71.734375 
Q 32.375 75.984375 41.109375 75.984375 
z
" id="DejaVuSansMono-102"/>
       <path d="M 56.390625 43.40625 
Q 53.515625 45.65625 50.53125 46.671875 
Q 47.5625 47.703125 44 47.703125 
Q 35.59375 47.703125 31.140625 42.421875 
Q 26.703125 37.15625 26.703125 27.203125 
L 26.703125 0 
L 17.671875 0 
L 17.671875 54.6875 
L 26.703125 54.6875 
L 26.703125 44 
Q 28.953125 49.8125 33.609375 52.90625 
Q 38.28125 56 44.671875 56 
Q 48 56 50.875 55.171875 
Q 53.765625 54.34375 56.390625 52.59375 
z
" id="DejaVuSansMono-114"/>
       <path d="M 54.296875 29.59375 
L 54.296875 25.203125 
L 15.375 25.203125 
L 15.375 24.90625 
Q 15.375 15.96875 20.03125 11.078125 
Q 24.703125 6.203125 33.203125 6.203125 
Q 37.5 6.203125 42.1875 7.5625 
Q 46.875 8.9375 52.203125 11.71875 
L 52.203125 2.78125 
Q 47.078125 0.6875 42.3125 -0.359375 
Q 37.546875 -1.421875 33.109375 -1.421875 
Q 20.359375 -1.421875 13.171875 6.21875 
Q 6 13.875 6 27.296875 
Q 6 40.375 13.03125 48.1875 
Q 20.0625 56 31.78125 56 
Q 42.234375 56 48.265625 48.921875 
Q 54.296875 41.84375 54.296875 29.59375 
z
M 45.3125 32.234375 
Q 45.125 40.140625 41.578125 44.265625 
Q 38.03125 48.390625 31.390625 48.390625 
Q 24.90625 48.390625 20.703125 44.09375 
Q 16.5 39.796875 15.71875 32.171875 
z
" id="DejaVuSansMono-101"/>
       <path d="M 16.21875 27.09375 
Q 16.21875 16.65625 19.5 11.328125 
Q 22.796875 6 29.296875 6 
Q 35.796875 6 39.140625 11.34375 
Q 42.484375 16.703125 42.484375 27.09375 
Q 42.484375 37.5 39.140625 42.84375 
Q 35.796875 48.1875 29.296875 48.1875 
Q 22.796875 48.1875 19.5 42.859375 
Q 16.21875 37.546875 16.21875 27.09375 
z
M 42.484375 6.78125 
Q 40.28125 2.734375 36.546875 0.5625 
Q 32.8125 -1.609375 27.875 -1.609375 
Q 18.0625 -1.609375 12.375 5.984375 
Q 6.6875 13.578125 6.6875 26.90625 
Q 6.6875 40.484375 12.34375 48.140625 
Q 18.015625 55.8125 27.875 55.8125 
Q 32.765625 55.8125 36.5 53.6875 
Q 40.234375 51.5625 42.484375 47.515625 
L 42.484375 54.5 
L 51.515625 54.5 
L 51.515625 -21 
L 42.484375 -21 
z
" id="DejaVuSansMono-113"/>
       <path d="M 9.515625 20.703125 
L 9.515625 54.59375 
L 18.5 54.59375 
L 18.5 20.703125 
Q 18.5 13.328125 21.109375 9.859375 
Q 23.734375 6.390625 29.203125 6.390625 
Q 35.546875 6.390625 38.90625 10.859375 
Q 42.28125 15.328125 42.28125 23.6875 
L 42.28125 54.59375 
L 51.3125 54.59375 
L 51.3125 0 
L 42.28125 0 
L 42.28125 8.203125 
Q 39.890625 3.46875 35.765625 1.015625 
Q 31.640625 -1.421875 26.125 -1.421875 
Q 17.71875 -1.421875 13.609375 4.078125 
Q 9.515625 9.578125 9.515625 20.703125 
z
" id="DejaVuSansMono-117"/>
       <path d="M 51.3125 33.890625 
L 51.3125 0 
L 42.28125 0 
L 42.28125 33.890625 
Q 42.28125 41.265625 39.6875 44.71875 
Q 37.109375 48.1875 31.59375 48.1875 
Q 25.296875 48.1875 21.890625 43.71875 
Q 18.5 39.265625 18.5 30.90625 
L 18.5 0 
L 9.515625 0 
L 9.515625 54.6875 
L 18.5 54.6875 
L 18.5 46.484375 
Q 20.90625 51.171875 25 53.578125 
Q 29.109375 56 34.71875 56 
Q 43.0625 56 47.1875 50.5 
Q 51.3125 45.015625 51.3125 33.890625 
z
" id="DejaVuSansMono-110"/>
       <path d="M 51.8125 2.78125 
Q 48.1875 0.6875 44.359375 -0.359375 
Q 40.53125 -1.421875 36.53125 -1.421875 
Q 23.828125 -1.421875 16.671875 6.1875 
Q 9.515625 13.8125 9.515625 27.296875 
Q 9.515625 40.765625 16.671875 48.375 
Q 23.828125 56 36.53125 56 
Q 40.484375 56 44.234375 54.96875 
Q 48 53.953125 51.8125 51.8125 
L 51.8125 42.390625 
Q 48.25 45.5625 44.65625 46.96875 
Q 41.0625 48.390625 36.53125 48.390625 
Q 28.078125 48.390625 23.53125 42.921875 
Q 19 37.453125 19 27.296875 
Q 19 17.1875 23.5625 11.6875 
Q 28.125 6.203125 36.53125 6.203125 
Q 41.21875 6.203125 44.921875 7.640625 
Q 48.640625 9.078125 51.8125 12.109375 
z
" id="DejaVuSansMono-99"/>
       <path d="M 41.890625 17.578125 
Q 39.65625 11.859375 36.1875 2.546875 
Q 31.34375 -10.359375 29.6875 -13.1875 
Q 27.4375 -17 24.0625 -18.890625 
Q 20.703125 -20.796875 16.21875 -20.796875 
L 8.984375 -20.796875 
L 8.984375 -13.28125 
L 14.3125 -13.28125 
Q 18.265625 -13.28125 20.5 -10.984375 
Q 22.75 -8.6875 26.21875 0.875 
L 5.078125 54.6875 
L 14.59375 54.6875 
L 30.8125 11.921875 
L 46.78125 54.6875 
L 56.296875 54.6875 
z
" id="DejaVuSansMono-121"/>
      </defs>
      <use xlink:href="#DejaVuSansMono-102"/>
      <use x="60.205078" xlink:href="#DejaVuSansMono-114"/>
      <use x="120.410156" xlink:href="#DejaVuSansMono-101"/>
      <use x="180.615234" xlink:href="#DejaVuSansMono-113"/>
      <use x="240.820312" xlink:href="#DejaVuSansMono-117"/>
      <use x="301.025391" xlink:href="#DejaVuSansMono-101"/>
      <use x="361.230469" xlink:href="#DejaVuSansMono-110"/>
      <use x="421.435547" xlink:href="#DejaVuSansMono-99"/>
      <use x="481.640625" xlink:href="#DejaVuSansMono-121"/>
     </g>
    </g>
   </g>
   <g id="matplotlib.axis_2">
    <g id="ytick_1">
     <g id="text_9">
      <!--  (1) -->
      <g style="fill:#262626;" transform="translate(144.010625 167.338015)scale(0.11 -0.11)">
       <defs>
        <path id="DejaVuSansMono-32"/>
        <path d="M 43.21875 75.875 
Q 36.71875 64.75 33.515625 53.6875 
Q 30.328125 42.625 30.328125 31.390625 
Q 30.328125 20.21875 33.515625 9.125 
Q 36.71875 -1.953125 43.21875 -13.1875 
L 35.40625 -13.1875 
Q 28.03125 -1.5625 24.40625 9.4375 
Q 20.796875 20.453125 20.796875 31.390625 
Q 20.796875 42.28125 24.40625 53.3125 
Q 28.03125 64.359375 35.40625 75.875 
z
" id="DejaVuSansMono-40"/>
        <path d="M 17 75.875 
L 24.8125 75.875 
Q 32.171875 64.359375 35.78125 53.3125 
Q 39.40625 42.28125 39.40625 31.390625 
Q 39.40625 20.40625 35.78125 9.375 
Q 32.171875 -1.65625 24.8125 -13.1875 
L 17 -13.1875 
Q 23.484375 -1.859375 26.6875 9.21875 
Q 29.890625 20.3125 29.890625 31.390625 
Q 29.890625 42.53125 26.6875 53.609375 
Q 23.484375 64.703125 17 75.875 
z
" id="DejaVuSansMono-41"/>
       </defs>
       <use xlink:href="#DejaVuSansMono-32"/>
       <use x="60.205078" xlink:href="#DejaVuSansMono-40"/>
       <use x="120.410156" xlink:href="#DejaVuSansMono-49"/>
       <use x="180.615234" xlink:href="#DejaVuSansMono-41"/>
      </g>
     </g>
    </g>
    <g id="ytick_2">
     <g id="text_10">
      <!-- SYM (1) -->
      <g style="fill:#262626;" transform="translate(124.143594 199.837325)scale(0.11 -0.11)">
       <defs>
        <path d="M 49.421875 70.40625 
L 49.421875 60.40625 
Q 44.921875 63.28125 40.40625 64.75 
Q 35.890625 66.21875 31.296875 66.21875 
Q 24.3125 66.21875 20.265625 62.96875 
Q 16.21875 59.71875 16.21875 54.203125 
Q 16.21875 49.359375 18.875 46.8125 
Q 21.53125 44.28125 28.8125 42.578125 
L 33.984375 41.40625 
Q 44.234375 39.015625 48.921875 33.890625 
Q 53.609375 28.765625 53.609375 19.921875 
Q 53.609375 9.515625 47.15625 4.046875 
Q 40.71875 -1.421875 28.421875 -1.421875 
Q 23.296875 -1.421875 18.109375 -0.3125 
Q 12.9375 0.78125 7.71875 2.984375 
L 7.71875 13.484375 
Q 13.328125 9.90625 18.328125 8.25 
Q 23.34375 6.59375 28.421875 6.59375 
Q 35.890625 6.59375 40.03125 9.9375 
Q 44.1875 13.28125 44.1875 19.28125 
Q 44.1875 24.75 41.328125 27.625 
Q 38.484375 30.515625 31.390625 32.078125 
L 26.125 33.296875 
Q 15.96875 35.59375 11.375 40.234375 
Q 6.78125 44.875 6.78125 52.6875 
Q 6.78125 62.453125 13.34375 68.328125 
Q 19.921875 74.21875 30.8125 74.21875 
Q 35.015625 74.21875 39.640625 73.265625 
Q 44.28125 72.3125 49.421875 70.40625 
z
" id="DejaVuSansMono-83"/>
        <path d="M 1.8125 72.90625 
L 12.3125 72.90625 
L 30.078125 40.71875 
L 47.796875 72.90625 
L 58.40625 72.90625 
L 35.015625 32.71875 
L 35.015625 0 
L 25.09375 0 
L 25.09375 32.71875 
z
" id="DejaVuSansMono-89"/>
        <path d="M 4.203125 72.90625 
L 17.390625 72.90625 
L 29.984375 35.796875 
L 42.671875 72.90625 
L 55.90625 72.90625 
L 55.90625 0 
L 46.78125 0 
L 46.78125 64.40625 
L 33.796875 25.984375 
L 26.3125 25.984375 
L 13.28125 64.40625 
L 13.28125 0 
L 4.203125 0 
z
" id="DejaVuSansMono-77"/>
       </defs>
       <use xlink:href="#DejaVuSansMono-83"/>
       <use x="60.205078" xlink:href="#DejaVuSansMono-89"/>
       <use x="120.410156" xlink:href="#DejaVuSansMono-77"/>
       <use x="180.615234" xlink:href="#DejaVuSansMono-32"/>
       <use x="240.820312" xlink:href="#DejaVuSansMono-40"/>
       <use x="301.025391" xlink:href="#DejaVuSansMono-49"/>
       <use x="361.230469" xlink:href="#DejaVuSansMono-41"/>
      </g>
     </g>
    </g>
    <g id="ytick_3">
     <g id="text_11">
      <!-- PRN (6) -->
      <g style="fill:#262626;" transform="translate(124.143594 232.336635)scale(0.11 -0.11)">
       <defs>
        <path d="M 19.484375 64.796875 
L 19.484375 37.40625 
L 30.90625 37.40625 
Q 37.75 37.40625 41.578125 41.015625 
Q 45.40625 44.625 45.40625 51.125 
Q 45.40625 57.625 41.59375 61.203125 
Q 37.796875 64.796875 30.90625 64.796875 
z
M 9.625 72.90625 
L 30.90625 72.90625 
Q 43.109375 72.90625 49.40625 67.359375 
Q 55.71875 61.8125 55.71875 51.125 
Q 55.71875 40.328125 49.4375 34.8125 
Q 43.171875 29.296875 30.90625 29.296875 
L 19.484375 29.296875 
L 19.484375 0 
L 9.625 0 
z
" id="DejaVuSansMono-80"/>
        <path d="M 37.109375 34.421875 
Q 40.921875 33.453125 43.609375 30.734375 
Q 46.296875 28.03125 50.296875 19.921875 
L 60.203125 0 
L 49.609375 0 
L 40.921875 18.40625 
Q 37.15625 26.265625 34.15625 28.53125 
Q 31.15625 30.8125 26.3125 30.8125 
L 16.890625 30.8125 
L 16.890625 0 
L 6.984375 0 
L 6.984375 72.90625 
L 27.296875 72.90625 
Q 39.3125 72.90625 45.703125 67.484375 
Q 52.09375 62.0625 52.09375 51.8125 
Q 52.09375 44.578125 48.15625 40.015625 
Q 44.234375 35.453125 37.109375 34.421875 
z
M 16.890625 64.796875 
L 16.890625 38.921875 
L 27.6875 38.921875 
Q 34.765625 38.921875 38.234375 42.09375 
Q 41.703125 45.265625 41.703125 51.8125 
Q 41.703125 58.109375 38.015625 61.453125 
Q 34.328125 64.796875 27.296875 64.796875 
z
" id="DejaVuSansMono-82"/>
        <path d="M 6.78125 72.90625 
L 19.28125 72.90625 
L 43.890625 12.890625 
L 43.890625 72.90625 
L 53.421875 72.90625 
L 53.421875 0 
L 40.921875 0 
L 16.3125 60.015625 
L 16.3125 0 
L 6.78125 0 
z
" id="DejaVuSansMono-78"/>
       </defs>
       <use xlink:href="#DejaVuSansMono-80"/>
       <use x="60.205078" xlink:href="#DejaVuSansMono-82"/>
       <use x="120.410156" xlink:href="#DejaVuSansMono-78"/>
       <use x="180.615234" xlink:href="#DejaVuSansMono-32"/>
       <use x="240.820312" xlink:href="#DejaVuSansMono-40"/>
       <use x="301.025391" xlink:href="#DejaVuSansMono-54"/>
       <use x="361.230469" xlink:href="#DejaVuSansMono-41"/>
      </g>
     </g>
    </g>
    <g id="ytick_4">
     <g id="text_12">
      <!-- - (10) -->
      <g style="fill:#262626;" transform="translate(130.765938 264.835946)scale(0.11 -0.11)">
       <defs>
        <path d="M 17.390625 31.390625 
L 42.828125 31.390625 
L 42.828125 23.390625 
L 17.390625 23.390625 
z
" id="DejaVuSansMono-45"/>
       </defs>
       <use xlink:href="#DejaVuSansMono-45"/>
       <use x="60.205078" xlink:href="#DejaVuSansMono-32"/>
       <use x="120.410156" xlink:href="#DejaVuSansMono-40"/>
       <use x="180.615234" xlink:href="#DejaVuSansMono-49"/>
       <use x="240.820312" xlink:href="#DejaVuSansMono-48"/>
       <use x="301.025391" xlink:href="#DejaVuSansMono-41"/>
      </g>
     </g>
    </g>
    <g id="ytick_5">
     <g id="text_13">
      <!-- CDC (23) -->
      <g style="fill:#262626;" transform="translate(117.52125 297.335256)scale(0.11 -0.11)">
       <defs>
        <path d="M 52.390625 2.59375 
Q 48.640625 0.59375 44.671875 -0.40625 
Q 40.71875 -1.421875 36.28125 -1.421875 
Q 22.265625 -1.421875 14.515625 8.484375 
Q 6.78125 18.40625 6.78125 36.375 
Q 6.78125 54.25 14.5625 64.234375 
Q 22.359375 74.21875 36.28125 74.21875 
Q 40.71875 74.21875 44.671875 73.21875 
Q 48.640625 72.21875 52.390625 70.21875 
L 52.390625 60.109375 
Q 48.78125 63.09375 44.625 64.65625 
Q 40.484375 66.21875 36.28125 66.21875 
Q 26.65625 66.21875 21.875 58.796875 
Q 17.09375 51.375 17.09375 36.375 
Q 17.09375 21.4375 21.875 14.015625 
Q 26.65625 6.59375 36.28125 6.59375 
Q 40.578125 6.59375 44.703125 8.15625 
Q 48.828125 9.71875 52.390625 12.703125 
z
" id="DejaVuSansMono-67"/>
        <path d="M 21.296875 8.109375 
Q 33.734375 8.109375 38.671875 14.234375 
Q 43.609375 20.359375 43.609375 36.375 
Q 43.609375 52.546875 38.703125 58.671875 
Q 33.796875 64.796875 21.296875 64.796875 
L 16.609375 64.796875 
L 16.609375 8.109375 
z
M 21.484375 72.90625 
Q 38.1875 72.90625 46.09375 64.015625 
Q 54 55.125 54 36.375 
Q 54 17.71875 46.09375 8.859375 
Q 38.1875 0 21.484375 0 
L 6.6875 0 
L 6.6875 72.90625 
z
" id="DejaVuSansMono-68"/>
        <path d="M 37.890625 39.015625 
Q 45.0625 37.109375 48.875 32.25 
Q 52.6875 27.390625 52.6875 20.125 
Q 52.6875 10.0625 45.921875 4.3125 
Q 39.15625 -1.421875 27.203125 -1.421875 
Q 22.171875 -1.421875 16.9375 -0.484375 
Q 11.71875 0.4375 6.6875 2.203125 
L 6.6875 12.015625 
Q 11.671875 9.421875 16.5 8.15625 
Q 21.34375 6.890625 26.125 6.890625 
Q 34.234375 6.890625 38.578125 10.546875 
Q 42.921875 14.203125 42.921875 21.09375 
Q 42.921875 27.4375 38.578125 31.171875 
Q 34.234375 34.90625 26.8125 34.90625 
L 19.28125 34.90625 
L 19.28125 43.015625 
L 26.8125 43.015625 
Q 33.59375 43.015625 37.40625 45.984375 
Q 41.21875 48.96875 41.21875 54.296875 
Q 41.21875 59.90625 37.671875 62.90625 
Q 34.125 65.921875 27.59375 65.921875 
Q 23.25 65.921875 18.609375 64.9375 
Q 13.96875 63.96875 8.890625 62.015625 
L 8.890625 71.09375 
Q 14.796875 72.65625 19.40625 73.4375 
Q 24.03125 74.21875 27.59375 74.21875 
Q 38.234375 74.21875 44.609375 68.875 
Q 50.984375 63.53125 50.984375 54.6875 
Q 50.984375 48.6875 47.625 44.671875 
Q 44.28125 40.671875 37.890625 39.015625 
z
" id="DejaVuSansMono-51"/>
       </defs>
       <use xlink:href="#DejaVuSansMono-67"/>
       <use x="60.205078" xlink:href="#DejaVuSansMono-68"/>
       <use x="120.410156" xlink:href="#DejaVuSansMono-67"/>
       <use x="180.615234" xlink:href="#DejaVuSansMono-32"/>
       <use x="240.820312" xlink:href="#DejaVuSansMono-40"/>
       <use x="301.025391" xlink:href="#DejaVuSansMono-50"/>
       <use x="361.230469" xlink:href="#DejaVuSansMono-51"/>
       <use x="421.435547" xlink:href="#DejaVuSansMono-41"/>
      </g>
     </g>
    </g>
    <g id="ytick_6">
     <g id="text_14">
      <!-- CDO (39) -->
      <g style="fill:#262626;" transform="translate(117.52125 329.834566)scale(0.11 -0.11)">
       <defs>
        <path d="M 44.1875 36.375 
Q 44.1875 52.4375 40.890625 59.328125 
Q 37.59375 66.21875 30.078125 66.21875 
Q 22.609375 66.21875 19.3125 59.328125 
Q 16.015625 52.4375 16.015625 36.375 
Q 16.015625 20.359375 19.3125 13.46875 
Q 22.609375 6.59375 30.078125 6.59375 
Q 37.59375 6.59375 40.890625 13.453125 
Q 44.1875 20.3125 44.1875 36.375 
z
M 54.5 36.375 
Q 54.5 17.328125 48.46875 7.953125 
Q 42.4375 -1.421875 30.078125 -1.421875 
Q 17.71875 -1.421875 11.71875 7.90625 
Q 5.71875 17.234375 5.71875 36.375 
Q 5.71875 55.46875 11.75 64.84375 
Q 17.78125 74.21875 30.078125 74.21875 
Q 42.4375 74.21875 48.46875 64.84375 
Q 54.5 55.46875 54.5 36.375 
z
" id="DejaVuSansMono-79"/>
        <path d="M 29.109375 32.328125 
Q 35.40625 32.328125 38.984375 36.859375 
Q 42.578125 41.40625 42.578125 49.421875 
Q 42.578125 57.421875 38.984375 61.953125 
Q 35.40625 66.5 29.109375 66.5 
Q 22.5625 66.5 19.234375 62.171875 
Q 15.921875 57.859375 15.921875 49.421875 
Q 15.921875 40.921875 19.21875 36.625 
Q 22.515625 32.328125 29.109375 32.328125 
z
M 11.53125 1.515625 
L 11.53125 10.59375 
Q 14.59375 8.796875 18.0625 7.84375 
Q 21.53125 6.890625 25.296875 6.890625 
Q 34.671875 6.890625 39.46875 13.9375 
Q 44.28125 21 44.28125 34.71875 
Q 42 29.828125 37.84375 27.21875 
Q 33.6875 24.609375 28.328125 24.609375 
Q 17.78125 24.609375 11.984375 31.09375 
Q 6.203125 37.59375 6.203125 49.515625 
Q 6.203125 61.28125 12.125 67.75 
Q 18.0625 74.21875 28.90625 74.21875 
Q 41.609375 74.21875 47.515625 65.078125 
Q 53.421875 55.953125 53.421875 36.375 
Q 53.421875 17.96875 46.3125 8.265625 
Q 39.203125 -1.421875 25.6875 -1.421875 
Q 22.125 -1.421875 18.5 -0.65625 
Q 14.890625 0.09375 11.53125 1.515625 
z
" id="DejaVuSansMono-57"/>
       </defs>
       <use xlink:href="#DejaVuSansMono-67"/>
       <use x="60.205078" xlink:href="#DejaVuSansMono-68"/>
       <use x="120.410156" xlink:href="#DejaVuSansMono-79"/>
       <use x="180.615234" xlink:href="#DejaVuSansMono-32"/>
       <use x="240.820312" xlink:href="#DejaVuSansMono-40"/>
       <use x="301.025391" xlink:href="#DejaVuSansMono-51"/>
       <use x="361.230469" xlink:href="#DejaVuSansMono-57"/>
       <use x="421.435547" xlink:href="#DejaVuSansMono-41"/>
      </g>
     </g>
    </g>
    <g id="ytick_7">
     <g id="text_15">
      <!-- FW (74) -->
      <g style="fill:#262626;" transform="translate(124.143594 362.333877)scale(0.11 -0.11)">
       <defs>
        <path d="M 11.375 72.90625 
L 54.296875 72.90625 
L 54.296875 64.59375 
L 21.296875 64.59375 
L 21.296875 43.109375 
L 51.21875 43.109375 
L 51.21875 34.8125 
L 21.296875 34.8125 
L 21.296875 0 
L 11.375 0 
z
" id="DejaVuSansMono-70"/>
        <path d="M 0 72.90625 
L 9.625 72.90625 
L 16.609375 13.71875 
L 24.90625 52.875 
L 35.203125 52.875 
L 43.609375 13.625 
L 50.59375 72.90625 
L 60.203125 72.90625 
L 49.3125 0 
L 39.984375 0 
L 30.078125 43.3125 
L 20.21875 0 
L 10.890625 0 
z
" id="DejaVuSansMono-87"/>
        <path d="M 6.78125 72.90625 
L 52.6875 72.90625 
L 52.6875 68.703125 
L 26.609375 0 
L 16.3125 0 
L 41.703125 64.59375 
L 6.78125 64.59375 
z
" id="DejaVuSansMono-55"/>
       </defs>
       <use xlink:href="#DejaVuSansMono-70"/>
       <use x="60.205078" xlink:href="#DejaVuSansMono-87"/>
       <use x="120.410156" xlink:href="#DejaVuSansMono-32"/>
       <use x="180.615234" xlink:href="#DejaVuSansMono-40"/>
       <use x="240.820312" xlink:href="#DejaVuSansMono-55"/>
       <use x="301.025391" xlink:href="#DejaVuSansMono-52"/>
       <use x="361.230469" xlink:href="#DejaVuSansMono-41"/>
      </g>
     </g>
    </g>
    <g id="ytick_8">
     <g id="text_16">
      <!-- UH (91) -->
      <g style="fill:#262626;" transform="translate(124.143594 394.833187)scale(0.11 -0.11)">
       <defs>
        <path d="M 7.171875 27.984375 
L 7.171875 72.90625 
L 17.09375 72.90625 
L 17.09375 23.484375 
Q 17.09375 18.171875 17.375 15.890625 
Q 17.671875 13.625 18.40625 12.40625 
Q 19.96875 9.515625 22.921875 8.046875 
Q 25.875 6.59375 30.078125 6.59375 
Q 34.328125 6.59375 37.25 8.046875 
Q 40.1875 9.515625 41.796875 12.40625 
Q 42.53125 13.625 42.8125 15.859375 
Q 43.109375 18.109375 43.109375 23.390625 
L 43.109375 72.90625 
L 52.984375 72.90625 
L 52.984375 27.984375 
Q 52.984375 16.796875 51.59375 12.078125 
Q 50.203125 7.375 46.78125 4.296875 
Q 43.5625 1.421875 39.40625 0 
Q 35.25 -1.421875 30.078125 -1.421875 
Q 24.953125 -1.421875 20.796875 0 
Q 16.65625 1.421875 13.375 4.296875 
Q 10.015625 7.328125 8.59375 12.125 
Q 7.171875 16.9375 7.171875 27.984375 
z
" id="DejaVuSansMono-85"/>
        <path d="M 6.6875 72.90625 
L 16.609375 72.90625 
L 16.609375 43.015625 
L 43.609375 43.015625 
L 43.609375 72.90625 
L 53.515625 72.90625 
L 53.515625 0 
L 43.609375 0 
L 43.609375 34.71875 
L 16.609375 34.71875 
L 16.609375 0 
L 6.6875 0 
z
" id="DejaVuSansMono-72"/>
       </defs>
       <use xlink:href="#DejaVuSansMono-85"/>
       <use x="60.205078" xlink:href="#DejaVuSansMono-72"/>
       <use x="120.410156" xlink:href="#DejaVuSansMono-32"/>
       <use x="180.615234" xlink:href="#DejaVuSansMono-40"/>
       <use x="240.820312" xlink:href="#DejaVuSansMono-57"/>
       <use x="301.025391" xlink:href="#DejaVuSansMono-49"/>
       <use x="361.230469" xlink:href="#DejaVuSansMono-41"/>
      </g>
     </g>
    </g>
    <g id="ytick_9">
     <g id="text_17">
      <!-- PRL (93) -->
      <g style="fill:#262626;" transform="translate(117.52125 427.332497)scale(0.11 -0.11)">
       <defs>
        <path d="M 10.5 72.90625 
L 20.40625 72.90625 
L 20.40625 8.296875 
L 55.609375 8.296875 
L 55.609375 0 
L 10.5 0 
z
" id="DejaVuSansMono-76"/>
       </defs>
       <use xlink:href="#DejaVuSansMono-80"/>
       <use x="60.205078" xlink:href="#DejaVuSansMono-82"/>
       <use x="120.410156" xlink:href="#DejaVuSansMono-76"/>
       <use x="180.615234" xlink:href="#DejaVuSansMono-32"/>
       <use x="240.820312" xlink:href="#DejaVuSansMono-40"/>
       <use x="301.025391" xlink:href="#DejaVuSansMono-57"/>
       <use x="361.230469" xlink:href="#DejaVuSansMono-51"/>
       <use x="421.435547" xlink:href="#DejaVuSansMono-41"/>
      </g>
     </g>
    </g>
    <g id="ytick_10">
     <g id="text_18">
      <!-- CDI (99) -->
      <g style="fill:#262626;" transform="translate(117.52125 459.831808)scale(0.11 -0.11)">
       <defs>
        <path d="M 9.8125 72.90625 
L 50.296875 72.90625 
L 50.296875 64.59375 
L 35.015625 64.59375 
L 35.015625 8.296875 
L 50.296875 8.296875 
L 50.296875 0 
L 9.8125 0 
L 9.8125 8.296875 
L 25.09375 8.296875 
L 25.09375 64.59375 
L 9.8125 64.59375 
z
" id="DejaVuSansMono-73"/>
       </defs>
       <use xlink:href="#DejaVuSansMono-67"/>
       <use x="60.205078" xlink:href="#DejaVuSansMono-68"/>
       <use x="120.410156" xlink:href="#DejaVuSansMono-73"/>
       <use x="180.615234" xlink:href="#DejaVuSansMono-32"/>
       <use x="240.820312" xlink:href="#DejaVuSansMono-40"/>
       <use x="301.025391" xlink:href="#DejaVuSansMono-57"/>
       <use x="361.230469" xlink:href="#DejaVuSansMono-57"/>
       <use x="421.435547" xlink:href="#DejaVuSansMono-41"/>
      </g>
     </g>
    </g>
    <g id="ytick_11">
     <g id="text_19">
      <!-- WP (146) -->
      <g style="fill:#262626;" transform="translate(117.52125 492.331118)scale(0.11 -0.11)">
       <use xlink:href="#DejaVuSansMono-87"/>
       <use x="60.205078" xlink:href="#DejaVuSansMono-80"/>
       <use x="120.410156" xlink:href="#DejaVuSansMono-32"/>
       <use x="180.615234" xlink:href="#DejaVuSansMono-40"/>
       <use x="240.820312" xlink:href="#DejaVuSansMono-49"/>
       <use x="301.025391" xlink:href="#DejaVuSansMono-52"/>
       <use x="361.230469" xlink:href="#DejaVuSansMono-54"/>
       <use x="421.435547" xlink:href="#DejaVuSansMono-41"/>
      </g>
     </g>
    </g>
    <g id="ytick_12">
     <g id="text_20">
      <!-- CDP (171) -->
      <g style="fill:#262626;" transform="translate(110.898906 524.830428)scale(0.11 -0.11)">
       <use xlink:href="#DejaVuSansMono-67"/>
       <use x="60.205078" xlink:href="#DejaVuSansMono-68"/>
       <use x="120.410156" xlink:href="#DejaVuSansMono-80"/>
       <use x="180.615234" xlink:href="#DejaVuSansMono-32"/>
       <use x="240.820312" xlink:href="#DejaVuSansMono-40"/>
       <use x="301.025391" xlink:href="#DejaVuSansMono-49"/>
       <use x="361.230469" xlink:href="#DejaVuSansMono-55"/>
       <use x="421.435547" xlink:href="#DejaVuSansMono-49"/>
       <use x="481.640625" xlink:href="#DejaVuSansMono-41"/>
      </g>
     </g>
    </g>
    <g id="ytick_13">
     <g id="text_21">
      <!-- MD (192) -->
      <g style="fill:#262626;" transform="translate(117.52125 557.329739)scale(0.11 -0.11)">
       <use xlink:href="#DejaVuSansMono-77"/>
       <use x="60.205078" xlink:href="#DejaVuSansMono-68"/>
       <use x="120.410156" xlink:href="#DejaVuSansMono-32"/>
       <use x="180.615234" xlink:href="#DejaVuSansMono-40"/>
       <use x="240.820312" xlink:href="#DejaVuSansMono-49"/>
       <use x="301.025391" xlink:href="#DejaVuSansMono-57"/>
       <use x="361.230469" xlink:href="#DejaVuSansMono-50"/>
       <use x="421.435547" xlink:href="#DejaVuSansMono-41"/>
      </g>
     </g>
    </g>
    <g id="ytick_14">
     <g id="text_22">
      <!-- NNG (278) -->
      <g style="fill:#262626;" transform="translate(110.898906 589.829049)scale(0.11 -0.11)">
       <defs>
        <path d="M 53.90625 6 
Q 49.953125 2.34375 45 0.453125 
Q 40.046875 -1.421875 34.28125 -1.421875 
Q 20.40625 -1.421875 12.6875 8.515625 
Q 4.984375 18.453125 4.984375 36.375 
Q 4.984375 54.25 12.796875 64.234375 
Q 20.609375 74.21875 34.515625 74.21875 
Q 39.109375 74.21875 43.3125 72.921875 
Q 47.515625 71.625 51.421875 69 
L 51.421875 58.890625 
Q 47.46875 62.640625 43.3125 64.421875 
Q 39.15625 66.21875 34.515625 66.21875 
Q 24.90625 66.21875 20.09375 58.765625 
Q 15.28125 51.3125 15.28125 36.375 
Q 15.28125 21.1875 19.9375 13.890625 
Q 24.609375 6.59375 34.28125 6.59375 
Q 37.546875 6.59375 40.015625 7.34375 
Q 42.484375 8.109375 44.484375 9.71875 
L 44.484375 29.296875 
L 33.890625 29.296875 
L 33.890625 37.40625 
L 53.90625 37.40625 
z
" id="DejaVuSansMono-71"/>
       </defs>
       <use xlink:href="#DejaVuSansMono-78"/>
       <use x="60.205078" xlink:href="#DejaVuSansMono-78"/>
       <use x="120.410156" xlink:href="#DejaVuSansMono-71"/>
       <use x="180.615234" xlink:href="#DejaVuSansMono-32"/>
       <use x="240.820312" xlink:href="#DejaVuSansMono-40"/>
       <use x="301.025391" xlink:href="#DejaVuSansMono-50"/>
       <use x="361.230469" xlink:href="#DejaVuSansMono-55"/>
       <use x="421.435547" xlink:href="#DejaVuSansMono-56"/>
       <use x="481.640625" xlink:href="#DejaVuSansMono-41"/>
      </g>
     </g>
    </g>
    <g id="ytick_15">
     <g id="text_23">
      <!-- , (301) -->
      <g style="fill:#262626;" transform="translate(124.143594 622.328359)scale(0.11 -0.11)">
       <defs>
        <path d="M 24.515625 14.796875 
L 36.8125 14.796875 
L 36.8125 4.6875 
L 27.203125 -14.015625 
L 19.671875 -14.015625 
L 24.515625 4.6875 
z
" id="DejaVuSansMono-44"/>
       </defs>
       <use xlink:href="#DejaVuSansMono-44"/>
       <use x="60.205078" xlink:href="#DejaVuSansMono-32"/>
       <use x="120.410156" xlink:href="#DejaVuSansMono-40"/>
       <use x="180.615234" xlink:href="#DejaVuSansMono-51"/>
       <use x="240.820312" xlink:href="#DejaVuSansMono-48"/>
       <use x="301.025391" xlink:href="#DejaVuSansMono-49"/>
       <use x="361.230469" xlink:href="#DejaVuSansMono-41"/>
      </g>
     </g>
    </g>
    <g id="ytick_16">
     <g id="text_24">
      <!-- NEG (327) -->
      <g style="fill:#262626;" transform="translate(110.898906 654.82767)scale(0.11 -0.11)">
       <defs>
        <path d="M 9.625 72.90625 
L 52.875 72.90625 
L 52.875 64.59375 
L 19.484375 64.59375 
L 19.484375 43.015625 
L 51.421875 43.015625 
L 51.421875 34.71875 
L 19.484375 34.71875 
L 19.484375 8.296875 
L 53.8125 8.296875 
L 53.8125 0 
L 9.625 0 
z
" id="DejaVuSansMono-69"/>
       </defs>
       <use xlink:href="#DejaVuSansMono-78"/>
       <use x="60.205078" xlink:href="#DejaVuSansMono-69"/>
       <use x="120.410156" xlink:href="#DejaVuSansMono-71"/>
       <use x="180.615234" xlink:href="#DejaVuSansMono-32"/>
       <use x="240.820312" xlink:href="#DejaVuSansMono-40"/>
       <use x="301.025391" xlink:href="#DejaVuSansMono-51"/>
       <use x="361.230469" xlink:href="#DejaVuSansMono-50"/>
       <use x="421.435547" xlink:href="#DejaVuSansMono-55"/>
       <use x="481.640625" xlink:href="#DejaVuSansMono-41"/>
      </g>
     </g>
    </g>
    <g id="ytick_17">
     <g id="text_25">
      <!-- RP (387) -->
      <g style="fill:#262626;" transform="translate(117.52125 687.32698)scale(0.11 -0.11)">
       <use xlink:href="#DejaVuSansMono-82"/>
       <use x="60.205078" xlink:href="#DejaVuSansMono-80"/>
       <use x="120.410156" xlink:href="#DejaVuSansMono-32"/>
       <use x="180.615234" xlink:href="#DejaVuSansMono-40"/>
       <use x="240.820312" xlink:href="#DejaVuSansMono-51"/>
       <use x="301.025391" xlink:href="#DejaVuSansMono-56"/>
       <use x="361.230469" xlink:href="#DejaVuSansMono-55"/>
       <use x="421.435547" xlink:href="#DejaVuSansMono-41"/>
      </g>
     </g>
    </g>
    <g id="ytick_18">
     <g id="text_26">
      <!-- CC (439) -->
      <g style="fill:#262626;" transform="translate(117.52125 719.82629)scale(0.11 -0.11)">
       <use xlink:href="#DejaVuSansMono-67"/>
       <use x="60.205078" xlink:href="#DejaVuSansMono-67"/>
       <use x="120.410156" xlink:href="#DejaVuSansMono-32"/>
       <use x="180.615234" xlink:href="#DejaVuSansMono-40"/>
       <use x="240.820312" xlink:href="#DejaVuSansMono-52"/>
       <use x="301.025391" xlink:href="#DejaVuSansMono-51"/>
       <use x="361.230469" xlink:href="#DejaVuSansMono-57"/>
       <use x="421.435547" xlink:href="#DejaVuSansMono-41"/>
      </g>
     </g>
    </g>
    <g id="ytick_19">
     <g id="text_27">
      <!-- SC (498) -->
      <g style="fill:#262626;" transform="translate(117.52125 752.325601)scale(0.11 -0.11)">
       <use xlink:href="#DejaVuSansMono-83"/>
       <use x="60.205078" xlink:href="#DejaVuSansMono-67"/>
       <use x="120.410156" xlink:href="#DejaVuSansMono-32"/>
       <use x="180.615234" xlink:href="#DejaVuSansMono-40"/>
       <use x="240.820312" xlink:href="#DejaVuSansMono-52"/>
       <use x="301.025391" xlink:href="#DejaVuSansMono-57"/>
       <use x="361.230469" xlink:href="#DejaVuSansMono-56"/>
       <use x="421.435547" xlink:href="#DejaVuSansMono-41"/>
      </g>
     </g>
    </g>
    <g id="ytick_20">
     <g id="text_28">
      <!-- DT (708) -->
      <g style="fill:#262626;" transform="translate(117.52125 784.824911)scale(0.11 -0.11)">
       <defs>
        <path d="M 2.296875 72.90625 
L 57.90625 72.90625 
L 57.90625 64.59375 
L 35.109375 64.59375 
L 35.109375 0 
L 25.203125 0 
L 25.203125 64.59375 
L 2.296875 64.59375 
z
" id="DejaVuSansMono-84"/>
       </defs>
       <use xlink:href="#DejaVuSansMono-68"/>
       <use x="60.205078" xlink:href="#DejaVuSansMono-84"/>
       <use x="120.410156" xlink:href="#DejaVuSansMono-32"/>
       <use x="180.615234" xlink:href="#DejaVuSansMono-40"/>
       <use x="240.820312" xlink:href="#DejaVuSansMono-55"/>
       <use x="301.025391" xlink:href="#DejaVuSansMono-48"/>
       <use x="361.230469" xlink:href="#DejaVuSansMono-56"/>
       <use x="421.435547" xlink:href="#DejaVuSansMono-41"/>
      </g>
     </g>
    </g>
    <g id="ytick_21">
     <g id="text_29">
      <!-- PRP (742) -->
      <g style="fill:#262626;" transform="translate(110.898906 817.324221)scale(0.11 -0.11)">
       <use xlink:href="#DejaVuSansMono-80"/>
       <use x="60.205078" xlink:href="#DejaVuSansMono-82"/>
       <use x="120.410156" xlink:href="#DejaVuSansMono-80"/>
       <use x="180.615234" xlink:href="#DejaVuSansMono-32"/>
       <use x="240.820312" xlink:href="#DejaVuSansMono-40"/>
       <use x="301.025391" xlink:href="#DejaVuSansMono-55"/>
       <use x="361.230469" xlink:href="#DejaVuSansMono-52"/>
       <use x="421.435547" xlink:href="#DejaVuSansMono-50"/>
       <use x="481.640625" xlink:href="#DejaVuSansMono-41"/>
      </g>
     </g>
    </g>
    <g id="ytick_22">
     <g id="text_30">
      <!-- IN (779) -->
      <g style="fill:#262626;" transform="translate(117.52125 849.823532)scale(0.11 -0.11)">
       <use xlink:href="#DejaVuSansMono-73"/>
       <use x="60.205078" xlink:href="#DejaVuSansMono-78"/>
       <use x="120.410156" xlink:href="#DejaVuSansMono-32"/>
       <use x="180.615234" xlink:href="#DejaVuSansMono-40"/>
       <use x="240.820312" xlink:href="#DejaVuSansMono-55"/>
       <use x="301.025391" xlink:href="#DejaVuSansMono-55"/>
       <use x="361.230469" xlink:href="#DejaVuSansMono-57"/>
       <use x="421.435547" xlink:href="#DejaVuSansMono-41"/>
      </g>
     </g>
    </g>
    <g id="ytick_23">
     <g id="text_31">
      <!-- NNP (874) -->
      <g style="fill:#262626;" transform="translate(110.898906 882.322842)scale(0.11 -0.11)">
       <use xlink:href="#DejaVuSansMono-78"/>
       <use x="60.205078" xlink:href="#DejaVuSansMono-78"/>
       <use x="120.410156" xlink:href="#DejaVuSansMono-80"/>
       <use x="180.615234" xlink:href="#DejaVuSansMono-32"/>
       <use x="240.820312" xlink:href="#DejaVuSansMono-40"/>
       <use x="301.025391" xlink:href="#DejaVuSansMono-56"/>
       <use x="361.230469" xlink:href="#DejaVuSansMono-55"/>
       <use x="421.435547" xlink:href="#DejaVuSansMono-52"/>
       <use x="481.640625" xlink:href="#DejaVuSansMono-41"/>
      </g>
     </g>
    </g>
    <g id="ytick_24">
     <g id="text_32">
      <!-- RB (992) -->
      <g style="fill:#262626;" transform="translate(117.52125 914.822152)scale(0.11 -0.11)">
       <defs>
        <path d="M 18.015625 34.8125 
L 18.015625 8.109375 
L 29.6875 8.109375 
Q 38.28125 8.109375 41.9375 11.109375 
Q 45.609375 14.109375 45.609375 21 
Q 45.609375 28.125 41.75 31.46875 
Q 37.890625 34.8125 29.6875 34.8125 
z
M 18.015625 64.796875 
L 18.015625 42.828125 
L 29.5 42.828125 
Q 36.625 42.828125 39.8125 45.5625 
Q 43.015625 48.296875 43.015625 54.390625 
Q 43.015625 59.90625 39.859375 62.34375 
Q 36.71875 64.796875 29.5 64.796875 
z
M 8.109375 72.90625 
L 29.6875 72.90625 
Q 40.875 72.90625 46.921875 68.0625 
Q 52.984375 63.234375 52.984375 54.390625 
Q 52.984375 47.703125 49.78125 43.84375 
Q 46.578125 39.984375 40.1875 39.015625 
Q 47.359375 37.9375 51.4375 32.875 
Q 55.515625 27.828125 55.515625 20.015625 
Q 55.515625 10.109375 49.015625 5.046875 
Q 42.53125 0 29.6875 0 
L 8.109375 0 
z
" id="DejaVuSansMono-66"/>
       </defs>
       <use xlink:href="#DejaVuSansMono-82"/>
       <use x="60.205078" xlink:href="#DejaVuSansMono-66"/>
       <use x="120.410156" xlink:href="#DejaVuSansMono-32"/>
       <use x="180.615234" xlink:href="#DejaVuSansMono-40"/>
       <use x="240.820312" xlink:href="#DejaVuSansMono-57"/>
       <use x="301.025391" xlink:href="#DejaVuSansMono-57"/>
       <use x="361.230469" xlink:href="#DejaVuSansMono-50"/>
       <use x="421.435547" xlink:href="#DejaVuSansMono-41"/>
      </g>
     </g>
    </g>
    <g id="ytick_25">
     <g id="text_33">
      <!-- JJ (1015) -->
      <g style="fill:#262626;" transform="translate(110.898906 947.321463)scale(0.11 -0.11)">
       <defs>
        <path d="M 5.328125 2.984375 
L 5.328125 14.5 
Q 9.765625 10.546875 14.5 8.5625 
Q 19.234375 6.59375 24.3125 6.59375 
Q 31.296875 6.59375 34.046875 10.234375 
Q 36.8125 13.875 36.8125 23.78125 
L 36.8125 64.59375 
L 18.21875 64.59375 
L 18.21875 72.90625 
L 46.6875 72.90625 
L 46.6875 23.78125 
Q 46.6875 10.015625 41.53125 4.296875 
Q 36.375 -1.421875 24.3125 -1.421875 
Q 19.625 -1.421875 14.984375 -0.34375 
Q 10.359375 0.734375 5.328125 2.984375 
z
" id="DejaVuSansMono-74"/>
        <path d="M 10.109375 72.90625 
L 47.015625 72.90625 
L 47.015625 64.59375 
L 19.09375 64.59375 
L 19.09375 46.6875 
Q 21.1875 47.46875 23.3125 47.828125 
Q 25.4375 48.1875 27.59375 48.1875 
Q 38.921875 48.1875 45.5625 41.5 
Q 52.203125 34.8125 52.203125 23.390625 
Q 52.203125 11.859375 45.234375 5.21875 
Q 38.28125 -1.421875 26.21875 -1.421875 
Q 20.40625 -1.421875 15.59375 -0.640625 
Q 10.796875 0.140625 6.984375 1.703125 
L 6.984375 11.71875 
Q 11.46875 9.28125 16.015625 8.078125 
Q 20.5625 6.890625 25.296875 6.890625 
Q 33.453125 6.890625 37.859375 11.1875 
Q 42.28125 15.484375 42.28125 23.390625 
Q 42.28125 31.203125 37.71875 35.546875 
Q 33.15625 39.890625 25 39.890625 
Q 21.046875 39.890625 17.28125 38.984375 
Q 13.53125 38.09375 10.109375 36.28125 
z
" id="DejaVuSansMono-53"/>
       </defs>
       <use xlink:href="#DejaVuSansMono-74"/>
       <use x="60.205078" xlink:href="#DejaVuSansMono-74"/>
       <use x="120.410156" xlink:href="#DejaVuSansMono-32"/>
       <use x="180.615234" xlink:href="#DejaVuSansMono-40"/>
       <use x="240.820312" xlink:href="#DejaVuSansMono-49"/>
       <use x="301.025391" xlink:href="#DejaVuSansMono-48"/>
       <use x="361.230469" xlink:href="#DejaVuSansMono-49"/>
       <use x="421.435547" xlink:href="#DejaVuSansMono-53"/>
       <use x="481.640625" xlink:href="#DejaVuSansMono-41"/>
      </g>
     </g>
    </g>
    <g id="ytick_26">
     <g id="text_34">
      <!-- VBI (1101) -->
      <g style="fill:#262626;" transform="translate(104.276562 979.820773)scale(0.11 -0.11)">
       <defs>
        <path d="M 30.078125 8.296875 
L 47.21875 72.90625 
L 57.421875 72.90625 
L 36.078125 0 
L 24.125 0 
L 2.78125 72.90625 
L 12.984375 72.90625 
z
" id="DejaVuSansMono-86"/>
       </defs>
       <use xlink:href="#DejaVuSansMono-86"/>
       <use x="60.205078" xlink:href="#DejaVuSansMono-66"/>
       <use x="120.410156" xlink:href="#DejaVuSansMono-73"/>
       <use x="180.615234" xlink:href="#DejaVuSansMono-32"/>
       <use x="240.820312" xlink:href="#DejaVuSansMono-40"/>
       <use x="301.025391" xlink:href="#DejaVuSansMono-49"/>
       <use x="361.230469" xlink:href="#DejaVuSansMono-49"/>
       <use x="421.435547" xlink:href="#DejaVuSansMono-48"/>
       <use x="481.640625" xlink:href="#DejaVuSansMono-49"/>
       <use x="541.845703" xlink:href="#DejaVuSansMono-41"/>
      </g>
     </g>
    </g>
    <g id="ytick_27">
     <g id="text_35">
      <!-- VBT (1104) -->
      <g style="fill:#262626;" transform="translate(104.276562 1012.320084)scale(0.11 -0.11)">
       <use xlink:href="#DejaVuSansMono-86"/>
       <use x="60.205078" xlink:href="#DejaVuSansMono-66"/>
       <use x="120.410156" xlink:href="#DejaVuSansMono-84"/>
       <use x="180.615234" xlink:href="#DejaVuSansMono-32"/>
       <use x="240.820312" xlink:href="#DejaVuSansMono-40"/>
       <use x="301.025391" xlink:href="#DejaVuSansMono-49"/>
       <use x="361.230469" xlink:href="#DejaVuSansMono-49"/>
       <use x="421.435547" xlink:href="#DejaVuSansMono-48"/>
       <use x="481.640625" xlink:href="#DejaVuSansMono-52"/>
       <use x="541.845703" xlink:href="#DejaVuSansMono-41"/>
      </g>
     </g>
    </g>
    <g id="ytick_28">
     <g id="text_36">
      <!-- . (1499) -->
      <g style="fill:#262626;" transform="translate(117.52125 1044.819394)scale(0.11 -0.11)">
       <defs>
        <path d="M 23.875 14.890625 
L 36.1875 14.890625 
L 36.1875 0 
L 23.875 0 
z
" id="DejaVuSansMono-46"/>
       </defs>
       <use xlink:href="#DejaVuSansMono-46"/>
       <use x="60.205078" xlink:href="#DejaVuSansMono-32"/>
       <use x="120.410156" xlink:href="#DejaVuSansMono-40"/>
       <use x="180.615234" xlink:href="#DejaVuSansMono-49"/>
       <use x="240.820312" xlink:href="#DejaVuSansMono-52"/>
       <use x="301.025391" xlink:href="#DejaVuSansMono-57"/>
       <use x="361.230469" xlink:href="#DejaVuSansMono-57"/>
       <use x="421.435547" xlink:href="#DejaVuSansMono-41"/>
      </g>
     </g>
    </g>
    <g id="ytick_29">
     <g id="text_37">
      <!-- NN (2689) -->
      <g style="fill:#262626;" transform="translate(110.898906 1077.318704)scale(0.11 -0.11)">
       <use xlink:href="#DejaVuSansMono-78"/>
       <use x="60.205078" xlink:href="#DejaVuSansMono-78"/>
       <use x="120.410156" xlink:href="#DejaVuSansMono-32"/>
       <use x="180.615234" xlink:href="#DejaVuSansMono-40"/>
       <use x="240.820312" xlink:href="#DejaVuSansMono-50"/>
       <use x="301.025391" xlink:href="#DejaVuSansMono-54"/>
       <use x="361.230469" xlink:href="#DejaVuSansMono-56"/>
       <use x="421.435547" xlink:href="#DejaVuSansMono-57"/>
       <use x="481.640625" xlink:href="#DejaVuSansMono-41"/>
      </g>
     </g>
    </g>
    <g id="text_38">
     <!-- POS -->
     <g style="fill:#262626;" transform="translate(97.780937 628.956562)rotate(-90)scale(0.12 -0.12)">
      <use xlink:href="#DejaVuSansMono-80"/>
      <use x="60.205078" xlink:href="#DejaVuSansMono-79"/>
      <use x="120.410156" xlink:href="#DejaVuSansMono-83"/>
     </g>
    </g>
   </g>
   <g id="patch_3">
    <path clip-path="url(#p2c89f0f692)" d="M 180 150.129931 
L 180.741701 150.129931 
L 180.741701 176.129379 
L 180 176.129379 
z
" style="fill:#1f77b4;stroke:#ffffff;stroke-linejoin:miter;"/>
   </g>
   <g id="patch_4">
    <path clip-path="url(#p2c89f0f692)" d="M 180 182.629241 
L 183.059516 182.629241 
L 183.059516 208.62869 
L 180 208.62869 
z
" style="fill:#ff7f0e;stroke:#ffffff;stroke-linejoin:miter;"/>
   </g>
   <g id="patch_5">
    <path clip-path="url(#p2c89f0f692)" d="M 180 215.128552 
L 183.244941 215.128552 
L 183.244941 241.128 
L 180 241.128 
z
" style="fill:#2ca02c;stroke:#ffffff;stroke-linejoin:miter;"/>
   </g>
   <g id="patch_6">
    <path clip-path="url(#p2c89f0f692)" d="M 180 247.627862 
L 184.264779 247.627862 
L 184.264779 273.62731 
L 180 273.62731 
z
" style="fill:#d62728;stroke:#ffffff;stroke-linejoin:miter;"/>
   </g>
   <g id="patch_7">
    <path clip-path="url(#p2c89f0f692)" d="M 180 280.127172 
L 184.542917 280.127172 
L 184.542917 306.126621 
L 180 306.126621 
z
" style="fill:#9467bd;stroke:#ffffff;stroke-linejoin:miter;"/>
   </g>
   <g id="patch_8">
    <path clip-path="url(#p2c89f0f692)" d="M 180 312.626483 
L 184.821055 312.626483 
L 184.821055 338.625931 
L 180 338.625931 
z
" style="fill:#8c564b;stroke:#ffffff;stroke-linejoin:miter;"/>
   </g>
   <g id="patch_9">
    <path clip-path="url(#p2c89f0f692)" d="M 180 345.125793 
L 199.562357 345.125793 
L 199.562357 371.125241 
L 180 371.125241 
z
" style="fill:#e377c2;stroke:#ffffff;stroke-linejoin:miter;"/>
   </g>
   <g id="patch_10">
    <path clip-path="url(#p2c89f0f692)" d="M 180 377.625103 
L 235.442129 377.625103 
L 235.442129 403.624552 
L 180 403.624552 
z
" style="fill:#7f7f7f;stroke:#ffffff;stroke-linejoin:miter;"/>
   </g>
   <g id="patch_11">
    <path clip-path="url(#p2c89f0f692)" d="M 180 410.124414 
L 240.541322 410.124414 
L 240.541322 436.123862 
L 180 436.123862 
z
" style="fill:#bcbd22;stroke:#ffffff;stroke-linejoin:miter;"/>
   </g>
   <g id="patch_12">
    <path clip-path="url(#p2c89f0f692)" d="M 180 442.623724 
L 273.639717 442.623724 
L 273.639717 468.623172 
L 180 468.623172 
z
" style="fill:#17becf;stroke:#ffffff;stroke-linejoin:miter;"/>
   </g>
   <g id="patch_13">
    <path clip-path="url(#p2c89f0f692)" d="M 180 475.123034 
L 274.566843 475.123034 
L 274.566843 501.122483 
L 180 501.122483 
z
" style="fill:#1f77b4;stroke:#ffffff;stroke-linejoin:miter;"/>
   </g>
   <g id="patch_14">
    <path clip-path="url(#p2c89f0f692)" d="M 180 507.622345 
L 315.638521 507.622345 
L 315.638521 533.621793 
L 180 533.621793 
z
" style="fill:#ff7f0e;stroke:#ffffff;stroke-linejoin:miter;"/>
   </g>
   <g id="patch_15">
    <path clip-path="url(#p2c89f0f692)" d="M 180 540.121655 
L 319.161599 540.121655 
L 319.161599 566.121103 
L 180 566.121103 
z
" style="fill:#2ca02c;stroke:#ffffff;stroke-linejoin:miter;"/>
   </g>
   <g id="patch_16">
    <path clip-path="url(#p2c89f0f692)" d="M 180 572.620966 
L 345.770113 572.620966 
L 345.770113 598.620414 
L 180 598.620414 
z
" style="fill:#d62728;stroke:#ffffff;stroke-linejoin:miter;"/>
   </g>
   <g id="patch_17">
    <path clip-path="url(#p2c89f0f692)" d="M 180 605.120276 
L 348.736916 605.120276 
L 348.736916 631.119724 
L 180 631.119724 
z
" style="fill:#9467bd;stroke:#ffffff;stroke-linejoin:miter;"/>
   </g>
   <g id="patch_18">
    <path clip-path="url(#p2c89f0f692)" d="M 180 637.619586 
L 371.544213 637.619586 
L 371.544213 663.619034 
L 180 663.619034 
z
" style="fill:#8c564b;stroke:#ffffff;stroke-linejoin:miter;"/>
   </g>
   <g id="patch_19">
    <path clip-path="url(#p2c89f0f692)" d="M 180 670.118897 
L 424.297677 670.118897 
L 424.297677 696.118345 
L 180 696.118345 
z
" style="fill:#e377c2;stroke:#ffffff;stroke-linejoin:miter;"/>
   </g>
   <g id="patch_20">
    <path clip-path="url(#p2c89f0f692)" d="M 180 702.618207 
L 719.123716 702.618207 
L 719.123716 728.617655 
L 180 728.617655 
z
" style="fill:#7f7f7f;stroke:#ffffff;stroke-linejoin:miter;"/>
   </g>
   <g id="patch_21">
    <path clip-path="url(#p2c89f0f692)" d="M 180 735.117517 
L 740.076762 735.117517 
L 740.076762 761.116966 
L 180 761.116966 
z
" style="fill:#bcbd22;stroke:#ffffff;stroke-linejoin:miter;"/>
   </g>
   <g id="patch_22">
    <path clip-path="url(#p2c89f0f692)" d="M 180 767.616828 
L 920.217326 767.616828 
L 920.217326 793.616276 
L 180 793.616276 
z
" style="fill:#17becf;stroke:#ffffff;stroke-linejoin:miter;"/>
   </g>
   <g id="patch_23">
    <path clip-path="url(#p2c89f0f692)" d="M 180 150.129931 
L 181.019839 150.129931 
L 181.019839 176.129379 
L 180 176.129379 
z
" style="fill:#1f77b4;stroke:#ffffff;stroke-linejoin:miter;"/>
   </g>
   <g id="patch_24">
    <path clip-path="url(#p2c89f0f692)" d="M 180 182.629241 
L 181.205264 182.629241 
L 181.205264 208.62869 
L 180 208.62869 
z
" style="fill:#ff7f0e;stroke:#ffffff;stroke-linejoin:miter;"/>
   </g>
   <g id="patch_25">
    <path clip-path="url(#p2c89f0f692)" d="M 180 215.128552 
L 181.761539 215.128552 
L 181.761539 241.128 
L 180 241.128 
z
" style="fill:#2ca02c;stroke:#ffffff;stroke-linejoin:miter;"/>
   </g>
   <g id="patch_26">
    <path clip-path="url(#p2c89f0f692)" d="M 180 247.627862 
L 182.781378 247.627862 
L 182.781378 273.62731 
L 180 273.62731 
z
" style="fill:#d62728;stroke:#ffffff;stroke-linejoin:miter;"/>
   </g>
   <g id="patch_27">
    <path clip-path="url(#p2c89f0f692)" d="M 180 280.127172 
L 186.860732 280.127172 
L 186.860732 306.126621 
L 180 306.126621 
z
" style="fill:#9467bd;stroke:#ffffff;stroke-linejoin:miter;"/>
   </g>
   <g id="patch_28">
    <path clip-path="url(#p2c89f0f692)" d="M 180 312.626483 
L 188.436846 312.626483 
L 188.436846 338.625931 
L 180 338.625931 
z
" style="fill:#8c564b;stroke:#ffffff;stroke-linejoin:miter;"/>
   </g>
   <g id="patch_29">
    <path clip-path="url(#p2c89f0f692)" d="M 180 345.125793 
L 190.198385 345.125793 
L 190.198385 371.125241 
L 180 371.125241 
z
" style="fill:#e377c2;stroke:#ffffff;stroke-linejoin:miter;"/>
   </g>
   <g id="patch_30">
    <path clip-path="url(#p2c89f0f692)" d="M 180 377.625103 
L 192.330775 377.625103 
L 192.330775 403.624552 
L 180 403.624552 
z
" style="fill:#7f7f7f;stroke:#ffffff;stroke-linejoin:miter;"/>
   </g>
   <g id="patch_31">
    <path clip-path="url(#p2c89f0f692)" d="M 180 410.124414 
L 196.595554 410.124414 
L 196.595554 436.123862 
L 180 436.123862 
z
" style="fill:#bcbd22;stroke:#ffffff;stroke-linejoin:miter;"/>
   </g>
   <g id="patch_32">
    <path clip-path="url(#p2c89f0f692)" d="M 180 442.623724 
L 210.317017 442.623724 
L 210.317017 468.623172 
L 180 468.623172 
z
" style="fill:#17becf;stroke:#ffffff;stroke-linejoin:miter;"/>
   </g>
   <g id="patch_33">
    <path clip-path="url(#p2c89f0f692)" d="M 180 475.123034 
L 224.780181 475.123034 
L 224.780181 501.122483 
L 180 501.122483 
z
" style="fill:#1f77b4;stroke:#ffffff;stroke-linejoin:miter;"/>
   </g>
   <g id="patch_34">
    <path clip-path="url(#p2c89f0f692)" d="M 180 507.622345 
L 247.123916 507.622345 
L 247.123916 533.621793 
L 180 533.621793 
z
" style="fill:#ff7f0e;stroke:#ffffff;stroke-linejoin:miter;"/>
   </g>
   <g id="patch_35">
    <path clip-path="url(#p2c89f0f692)" d="M 180 540.121655 
L 247.309341 540.121655 
L 247.309341 566.121103 
L 180 566.121103 
z
" style="fill:#2ca02c;stroke:#ffffff;stroke-linejoin:miter;"/>
   </g>
   <g id="patch_36">
    <path clip-path="url(#p2c89f0f692)" d="M 180 572.620966 
L 250.925132 572.620966 
L 250.925132 598.620414 
L 180 598.620414 
z
" style="fill:#d62728;stroke:#ffffff;stroke-linejoin:miter;"/>
   </g>
   <g id="patch_37">
    <path clip-path="url(#p2c89f0f692)" d="M 180 605.120276 
L 261.494367 605.120276 
L 261.494367 631.119724 
L 180 631.119724 
z
" style="fill:#9467bd;stroke:#ffffff;stroke-linejoin:miter;"/>
   </g>
   <g id="patch_38">
    <path clip-path="url(#p2c89f0f692)" d="M 180 637.619586 
L 268.818662 637.619586 
L 268.818662 663.619034 
L 180 663.619034 
z
" style="fill:#8c564b;stroke:#ffffff;stroke-linejoin:miter;"/>
   </g>
   <g id="patch_39">
    <path clip-path="url(#p2c89f0f692)" d="M 180 670.118897 
L 274.752268 670.118897 
L 274.752268 696.118345 
L 180 696.118345 
z
" style="fill:#e377c2;stroke:#ffffff;stroke-linejoin:miter;"/>
   </g>
   <g id="patch_40">
    <path clip-path="url(#p2c89f0f692)" d="M 180 702.618207 
L 299.599242 702.618207 
L 299.599242 728.617655 
L 180 728.617655 
z
" style="fill:#7f7f7f;stroke:#ffffff;stroke-linejoin:miter;"/>
   </g>
   <g id="patch_41">
    <path clip-path="url(#p2c89f0f692)" d="M 180 735.117517 
L 311.002891 735.117517 
L 311.002891 761.116966 
L 180 761.116966 
z
" style="fill:#bcbd22;stroke:#ffffff;stroke-linejoin:miter;"/>
   </g>
   <g id="patch_42">
    <path clip-path="url(#p2c89f0f692)" d="M 180 767.616828 
L 390.735719 767.616828 
L 390.735719 793.616276 
L 180 793.616276 
z
" style="fill:#17becf;stroke:#ffffff;stroke-linejoin:miter;"/>
   </g>
   <g id="patch_43">
    <path clip-path="url(#p2c89f0f692)" d="M 180 800.116138 
L 444.323597 800.116138 
L 444.323597 826.115586 
L 180 826.115586 
z
" style="fill:#1f77b4;stroke:#ffffff;stroke-linejoin:miter;"/>
   </g>
   <g id="patch_44">
    <path clip-path="url(#p2c89f0f692)" d="M 180 150.129931 
L 180.092713 150.129931 
L 180.092713 176.129379 
L 180 176.129379 
z
" style="fill:#1f77b4;stroke:#ffffff;stroke-linejoin:miter;"/>
   </g>
   <g id="patch_45">
    <path clip-path="url(#p2c89f0f692)" d="M 180 182.629241 
L 180.556276 182.629241 
L 180.556276 208.62869 
L 180 208.62869 
z
" style="fill:#ff7f0e;stroke:#ffffff;stroke-linejoin:miter;"/>
   </g>
   <g id="patch_46">
    <path clip-path="url(#p2c89f0f692)" d="M 180 215.128552 
L 180.556276 215.128552 
L 180.556276 241.128 
L 180 241.128 
z
" style="fill:#2ca02c;stroke:#ffffff;stroke-linejoin:miter;"/>
   </g>
   <g id="patch_47">
    <path clip-path="url(#p2c89f0f692)" d="M 180 247.627862 
L 180.556276 247.627862 
L 180.556276 273.62731 
L 180 273.62731 
z
" style="fill:#d62728;stroke:#ffffff;stroke-linejoin:miter;"/>
   </g>
   <g id="patch_48">
    <path clip-path="url(#p2c89f0f692)" d="M 180 280.127172 
L 180.556276 280.127172 
L 180.556276 306.126621 
L 180 306.126621 
z
" style="fill:#9467bd;stroke:#ffffff;stroke-linejoin:miter;"/>
   </g>
   <g id="patch_49">
    <path clip-path="url(#p2c89f0f692)" d="M 180 312.626483 
L 180.648988 312.626483 
L 180.648988 338.625931 
L 180 338.625931 
z
" style="fill:#8c564b;stroke:#ffffff;stroke-linejoin:miter;"/>
   </g>
   <g id="patch_50">
    <path clip-path="url(#p2c89f0f692)" d="M 180 345.125793 
L 180.648988 345.125793 
L 180.648988 371.125241 
L 180 371.125241 
z
" style="fill:#e377c2;stroke:#ffffff;stroke-linejoin:miter;"/>
   </g>
   <g id="patch_51">
    <path clip-path="url(#p2c89f0f692)" d="M 180 377.625103 
L 180.648988 377.625103 
L 180.648988 403.624552 
L 180 403.624552 
z
" style="fill:#7f7f7f;stroke:#ffffff;stroke-linejoin:miter;"/>
   </g>
   <g id="patch_52">
    <path clip-path="url(#p2c89f0f692)" d="M 180 410.124414 
L 181.576114 410.124414 
L 181.576114 436.123862 
L 180 436.123862 
z
" style="fill:#bcbd22;stroke:#ffffff;stroke-linejoin:miter;"/>
   </g>
   <g id="patch_53">
    <path clip-path="url(#p2c89f0f692)" d="M 180 442.623724 
L 183.893929 442.623724 
L 183.893929 468.623172 
L 180 468.623172 
z
" style="fill:#17becf;stroke:#ffffff;stroke-linejoin:miter;"/>
   </g>
   <g id="patch_54">
    <path clip-path="url(#p2c89f0f692)" d="M 180 475.123034 
L 196.410129 475.123034 
L 196.410129 501.122483 
L 180 501.122483 
z
" style="fill:#1f77b4;stroke:#ffffff;stroke-linejoin:miter;"/>
   </g>
   <g id="patch_55">
    <path clip-path="url(#p2c89f0f692)" d="M 180 507.622345 
L 197.986243 507.622345 
L 197.986243 533.621793 
L 180 533.621793 
z
" style="fill:#ff7f0e;stroke:#ffffff;stroke-linejoin:miter;"/>
   </g>
   <g id="patch_56">
    <path clip-path="url(#p2c89f0f692)" d="M 180 540.121655 
L 200.76762 540.121655 
L 200.76762 566.121103 
L 180 566.121103 
z
" style="fill:#2ca02c;stroke:#ffffff;stroke-linejoin:miter;"/>
   </g>
   <g id="patch_57">
    <path clip-path="url(#p2c89f0f692)" d="M 180 572.620966 
L 206.979364 572.620966 
L 206.979364 598.620414 
L 180 598.620414 
z
" style="fill:#d62728;stroke:#ffffff;stroke-linejoin:miter;"/>
   </g>
   <g id="patch_58">
    <path clip-path="url(#p2c89f0f692)" d="M 180 605.120276 
L 210.40973 605.120276 
L 210.40973 631.119724 
L 180 631.119724 
z
" style="fill:#9467bd;stroke:#ffffff;stroke-linejoin:miter;"/>
   </g>
   <g id="patch_59">
    <path clip-path="url(#p2c89f0f692)" d="M 180 637.619586 
L 212.078556 637.619586 
L 212.078556 663.619034 
L 180 663.619034 
z
" style="fill:#8c564b;stroke:#ffffff;stroke-linejoin:miter;"/>
   </g>
   <g id="patch_60">
    <path clip-path="url(#p2c89f0f692)" d="M 180 670.118897 
L 235.071279 670.118897 
L 235.071279 696.118345 
L 180 696.118345 
z
" style="fill:#e377c2;stroke:#ffffff;stroke-linejoin:miter;"/>
   </g>
   <g id="patch_61">
    <path clip-path="url(#p2c89f0f692)" d="M 180 702.618207 
L 250.090719 702.618207 
L 250.090719 728.617655 
L 180 728.617655 
z
" style="fill:#7f7f7f;stroke:#ffffff;stroke-linejoin:miter;"/>
   </g>
   <g id="patch_62">
    <path clip-path="url(#p2c89f0f692)" d="M 180 735.117517 
L 265.202871 735.117517 
L 265.202871 761.116966 
L 180 761.116966 
z
" style="fill:#bcbd22;stroke:#ffffff;stroke-linejoin:miter;"/>
   </g>
   <g id="patch_63">
    <path clip-path="url(#p2c89f0f692)" d="M 180 767.616828 
L 270.487489 767.616828 
L 270.487489 793.616276 
L 180 793.616276 
z
" style="fill:#17becf;stroke:#ffffff;stroke-linejoin:miter;"/>
   </g>
   <g id="patch_64">
    <path clip-path="url(#p2c89f0f692)" d="M 180 800.116138 
L 273.825142 800.116138 
L 273.825142 826.115586 
L 180 826.115586 
z
" style="fill:#1f77b4;stroke:#ffffff;stroke-linejoin:miter;"/>
   </g>
   <g id="patch_65">
    <path clip-path="url(#p2c89f0f692)" d="M 180 832.615448 
L 283.374539 832.615448 
L 283.374539 858.614897 
L 180 858.614897 
z
" style="fill:#ff7f0e;stroke:#ffffff;stroke-linejoin:miter;"/>
   </g>
   <g id="patch_66">
    <path clip-path="url(#p2c89f0f692)" d="M 180 865.114759 
L 315.823946 865.114759 
L 315.823946 891.114207 
L 180 891.114207 
z
" style="fill:#2ca02c;stroke:#ffffff;stroke-linejoin:miter;"/>
   </g>
   <g id="patch_67">
    <path clip-path="url(#p2c89f0f692)" d="M 180 897.614069 
L 319.068886 897.614069 
L 319.068886 923.613517 
L 180 923.613517 
z
" style="fill:#d62728;stroke:#ffffff;stroke-linejoin:miter;"/>
   </g>
   <g id="patch_68">
    <path clip-path="url(#p2c89f0f692)" d="M 180 930.113379 
L 346.975376 930.113379 
L 346.975376 956.112828 
L 180 956.112828 
z
" style="fill:#9467bd;stroke:#ffffff;stroke-linejoin:miter;"/>
   </g>
   <g id="patch_69">
    <path clip-path="url(#p2c89f0f692)" d="M 180 962.61269 
L 412.986741 962.61269 
L 412.986741 988.612138 
L 180 988.612138 
z
" style="fill:#8c564b;stroke:#ffffff;stroke-linejoin:miter;"/>
   </g>
   <g id="patch_70">
    <path clip-path="url(#p2c89f0f692)" d="M 180 995.112 
L 417.158808 995.112 
L 417.158808 1021.111448 
L 180 1021.111448 
z
" style="fill:#e377c2;stroke:#ffffff;stroke-linejoin:miter;"/>
   </g>
   <g id="patch_71">
    <path clip-path="url(#p2c89f0f692)" d="M 180 1027.61131 
L 458.786761 1027.61131 
L 458.786761 1053.610759 
L 180 1053.610759 
z
" style="fill:#7f7f7f;stroke:#ffffff;stroke-linejoin:miter;"/>
   </g>
   <g id="patch_72">
    <path clip-path="url(#p2c89f0f692)" d="M 180 1060.110621 
L 506.719171 1060.110621 
L 506.719171 1086.110069 
L 180 1086.110069 
z
" style="fill:#bcbd22;stroke:#ffffff;stroke-linejoin:miter;"/>
   </g>
   <g id="patch_73">
    <path clip-path="url(#p2c89f0f692)" d="M 180 1092.609931 
L 1242.857143 1092.609931 
L 1242.857143 1118.609379 
L 180 1118.609379 
z
" style="fill:#17becf;stroke:#ffffff;stroke-linejoin:miter;"/>
   </g>
   <g id="patch_74">
    <path clip-path="url(#p2c89f0f692)" d="M 180 150.129931 
L 180.092713 150.129931 
L 180.092713 176.129379 
L 180 176.129379 
z
" style="fill:#1f77b4;stroke:#ffffff;stroke-linejoin:miter;"/>
   </g>
   <g id="patch_75">
    <path clip-path="url(#p2c89f0f692)" d="M 180 182.629241 
L 180.092713 182.629241 
L 180.092713 208.62869 
L 180 208.62869 
z
" style="fill:#ff7f0e;stroke:#ffffff;stroke-linejoin:miter;"/>
   </g>
   <g id="patch_76">
    <path clip-path="url(#p2c89f0f692)" d="M 180 215.128552 
L 180.556276 215.128552 
L 180.556276 241.128 
L 180 241.128 
z
" style="fill:#2ca02c;stroke:#ffffff;stroke-linejoin:miter;"/>
   </g>
   <g id="patch_77">
    <path clip-path="url(#p2c89f0f692)" d="M 180 247.627862 
L 180.927126 247.627862 
L 180.927126 273.62731 
L 180 273.62731 
z
" style="fill:#d62728;stroke:#ffffff;stroke-linejoin:miter;"/>
   </g>
   <g id="patch_78">
    <path clip-path="url(#p2c89f0f692)" d="M 180 280.127172 
L 182.13239 280.127172 
L 182.13239 306.126621 
L 180 306.126621 
z
" style="fill:#9467bd;stroke:#ffffff;stroke-linejoin:miter;"/>
   </g>
   <g id="patch_79">
    <path clip-path="url(#p2c89f0f692)" d="M 180 312.626483 
L 183.615791 312.626483 
L 183.615791 338.625931 
L 180 338.625931 
z
" style="fill:#8c564b;stroke:#ffffff;stroke-linejoin:miter;"/>
   </g>
   <g id="patch_80">
    <path clip-path="url(#p2c89f0f692)" d="M 180 345.125793 
L 186.860732 345.125793 
L 186.860732 371.125241 
L 180 371.125241 
z
" style="fill:#e377c2;stroke:#ffffff;stroke-linejoin:miter;"/>
   </g>
   <g id="patch_81">
    <path clip-path="url(#p2c89f0f692)" d="M 180 377.625103 
L 188.436846 377.625103 
L 188.436846 403.624552 
L 180 403.624552 
z
" style="fill:#7f7f7f;stroke:#ffffff;stroke-linejoin:miter;"/>
   </g>
   <g id="patch_82">
    <path clip-path="url(#p2c89f0f692)" d="M 180 410.124414 
L 188.622271 410.124414 
L 188.622271 436.123862 
L 180 436.123862 
z
" style="fill:#bcbd22;stroke:#ffffff;stroke-linejoin:miter;"/>
   </g>
   <g id="patch_83">
    <path clip-path="url(#p2c89f0f692)" d="M 180 442.623724 
L 189.178547 442.623724 
L 189.178547 468.623172 
L 180 468.623172 
z
" style="fill:#17becf;stroke:#ffffff;stroke-linejoin:miter;"/>
   </g>
   <g id="patch_84">
    <path clip-path="url(#p2c89f0f692)" d="M 180 475.123034 
L 193.536038 475.123034 
L 193.536038 501.122483 
L 180 501.122483 
z
" style="fill:#1f77b4;stroke:#ffffff;stroke-linejoin:miter;"/>
   </g>
   <g id="patch_85">
    <path clip-path="url(#p2c89f0f692)" d="M 180 507.622345 
L 195.853853 507.622345 
L 195.853853 533.621793 
L 180 533.621793 
z
" style="fill:#ff7f0e;stroke:#ffffff;stroke-linejoin:miter;"/>
   </g>
   <g id="patch_86">
    <path clip-path="url(#p2c89f0f692)" d="M 180 540.121655 
L 197.800817 540.121655 
L 197.800817 566.121103 
L 180 566.121103 
z
" style="fill:#2ca02c;stroke:#ffffff;stroke-linejoin:miter;"/>
   </g>
   <g id="patch_87">
    <path clip-path="url(#p2c89f0f692)" d="M 180 572.620966 
L 205.7741 572.620966 
L 205.7741 598.620414 
L 180 598.620414 
z
" style="fill:#d62728;stroke:#ffffff;stroke-linejoin:miter;"/>
   </g>
   <g id="patch_88">
    <path clip-path="url(#p2c89f0f692)" d="M 180 605.120276 
L 207.90649 605.120276 
L 207.90649 631.119724 
L 180 631.119724 
z
" style="fill:#9467bd;stroke:#ffffff;stroke-linejoin:miter;"/>
   </g>
   <g id="patch_89">
    <path clip-path="url(#p2c89f0f692)" d="M 180 637.619586 
L 210.317017 637.619586 
L 210.317017 663.619034 
L 180 663.619034 
z
" style="fill:#8c564b;stroke:#ffffff;stroke-linejoin:miter;"/>
   </g>
   <g id="patch_90">
    <path clip-path="url(#p2c89f0f692)" d="M 180 670.118897 
L 215.879773 670.118897 
L 215.879773 696.118345 
L 180 696.118345 
z
" style="fill:#e377c2;stroke:#ffffff;stroke-linejoin:miter;"/>
   </g>
   <g id="patch_91">
    <path clip-path="url(#p2c89f0f692)" d="M 180 702.618207 
L 220.700827 702.618207 
L 220.700827 728.617655 
L 180 728.617655 
z
" style="fill:#7f7f7f;stroke:#ffffff;stroke-linejoin:miter;"/>
   </g>
   <g id="patch_92">
    <path clip-path="url(#p2c89f0f692)" d="M 180 735.117517 
L 226.17087 735.117517 
L 226.17087 761.116966 
L 180 761.116966 
z
" style="fill:#bcbd22;stroke:#ffffff;stroke-linejoin:miter;"/>
   </g>
   <g id="patch_93">
    <path clip-path="url(#p2c89f0f692)" d="M 180 767.616828 
L 245.640514 767.616828 
L 245.640514 793.616276 
L 180 793.616276 
z
" style="fill:#17becf;stroke:#ffffff;stroke-linejoin:miter;"/>
   </g>
   <g id="patch_94">
    <path clip-path="url(#p2c89f0f692)" d="M 180 800.116138 
L 248.792742 800.116138 
L 248.792742 826.115586 
L 180 826.115586 
z
" style="fill:#1f77b4;stroke:#ffffff;stroke-linejoin:miter;"/>
   </g>
   <g id="patch_95">
    <path clip-path="url(#p2c89f0f692)" d="M 180 832.615448 
L 252.223108 832.615448 
L 252.223108 858.614897 
L 180 858.614897 
z
" style="fill:#ff7f0e;stroke:#ffffff;stroke-linejoin:miter;"/>
   </g>
   <g id="patch_96">
    <path clip-path="url(#p2c89f0f692)" d="M 180 865.114759 
L 261.030805 865.114759 
L 261.030805 891.114207 
L 180 891.114207 
z
" style="fill:#2ca02c;stroke:#ffffff;stroke-linejoin:miter;"/>
   </g>
   <g id="patch_97">
    <path clip-path="url(#p2c89f0f692)" d="M 180 897.614069 
L 271.97089 897.614069 
L 271.97089 923.613517 
L 180 923.613517 
z
" style="fill:#d62728;stroke:#ffffff;stroke-linejoin:miter;"/>
   </g>
   <g id="patch_98">
    <path clip-path="url(#p2c89f0f692)" d="M 180 930.113379 
L 274.10328 930.113379 
L 274.10328 956.112828 
L 180 956.112828 
z
" style="fill:#9467bd;stroke:#ffffff;stroke-linejoin:miter;"/>
   </g>
   <g id="patch_99">
    <path clip-path="url(#p2c89f0f692)" d="M 180 962.61269 
L 282.076563 962.61269 
L 282.076563 988.612138 
L 180 988.612138 
z
" style="fill:#8c564b;stroke:#ffffff;stroke-linejoin:miter;"/>
   </g>
   <g id="patch_100">
    <path clip-path="url(#p2c89f0f692)" d="M 180 995.112 
L 282.3547 995.112 
L 282.3547 1021.111448 
L 180 1021.111448 
z
" style="fill:#e377c2;stroke:#ffffff;stroke-linejoin:miter;"/>
   </g>
   <g id="patch_101">
    <path clip-path="url(#p2c89f0f692)" d="M 180 1027.61131 
L 318.976174 1027.61131 
L 318.976174 1053.610759 
L 180 1053.610759 
z
" style="fill:#7f7f7f;stroke:#ffffff;stroke-linejoin:miter;"/>
   </g>
   <g id="patch_102">
    <path clip-path="url(#p2c89f0f692)" d="M 180 1060.110621 
L 429.304157 1060.110621 
L 429.304157 1086.110069 
L 180 1086.110069 
z
" style="fill:#bcbd22;stroke:#ffffff;stroke-linejoin:miter;"/>
   </g>
   <g id="line2d_8">
    <path clip-path="url(#p2c89f0f692)" d="M 0 0 
" style="fill:none;stroke:#424242;stroke-linecap:round;stroke-width:2.7;"/>
   </g>
   <g id="line2d_9">
    <path clip-path="url(#p2c89f0f692)" d="M 0 0 
" style="fill:none;stroke:#424242;stroke-linecap:round;stroke-width:2.7;"/>
   </g>
   <g id="line2d_10">
    <path clip-path="url(#p2c89f0f692)" d="M 0 0 
" style="fill:none;stroke:#424242;stroke-linecap:round;stroke-width:2.7;"/>
   </g>
   <g id="line2d_11">
    <path clip-path="url(#p2c89f0f692)" d="M 0 0 
" style="fill:none;stroke:#424242;stroke-linecap:round;stroke-width:2.7;"/>
   </g>
   <g id="line2d_12">
    <path clip-path="url(#p2c89f0f692)" d="M 0 0 
" style="fill:none;stroke:#424242;stroke-linecap:round;stroke-width:2.7;"/>
   </g>
   <g id="line2d_13">
    <path clip-path="url(#p2c89f0f692)" d="M 0 0 
" style="fill:none;stroke:#424242;stroke-linecap:round;stroke-width:2.7;"/>
   </g>
   <g id="line2d_14">
    <path clip-path="url(#p2c89f0f692)" d="M 0 0 
" style="fill:none;stroke:#424242;stroke-linecap:round;stroke-width:2.7;"/>
   </g>
   <g id="line2d_15">
    <path clip-path="url(#p2c89f0f692)" d="M 0 0 
" style="fill:none;stroke:#424242;stroke-linecap:round;stroke-width:2.7;"/>
   </g>
   <g id="line2d_16">
    <path clip-path="url(#p2c89f0f692)" d="M 0 0 
" style="fill:none;stroke:#424242;stroke-linecap:round;stroke-width:2.7;"/>
   </g>
   <g id="line2d_17">
    <path clip-path="url(#p2c89f0f692)" d="M 0 0 
" style="fill:none;stroke:#424242;stroke-linecap:round;stroke-width:2.7;"/>
   </g>
   <g id="line2d_18">
    <path clip-path="url(#p2c89f0f692)" d="M 0 0 
" style="fill:none;stroke:#424242;stroke-linecap:round;stroke-width:2.7;"/>
   </g>
   <g id="line2d_19">
    <path clip-path="url(#p2c89f0f692)" d="M 0 0 
" style="fill:none;stroke:#424242;stroke-linecap:round;stroke-width:2.7;"/>
   </g>
   <g id="line2d_20">
    <path clip-path="url(#p2c89f0f692)" d="M 0 0 
" style="fill:none;stroke:#424242;stroke-linecap:round;stroke-width:2.7;"/>
   </g>
   <g id="line2d_21">
    <path clip-path="url(#p2c89f0f692)" d="M 0 0 
" style="fill:none;stroke:#424242;stroke-linecap:round;stroke-width:2.7;"/>
   </g>
   <g id="line2d_22">
    <path clip-path="url(#p2c89f0f692)" d="M 0 0 
" style="fill:none;stroke:#424242;stroke-linecap:round;stroke-width:2.7;"/>
   </g>
   <g id="line2d_23">
    <path clip-path="url(#p2c89f0f692)" d="M 0 0 
" style="fill:none;stroke:#424242;stroke-linecap:round;stroke-width:2.7;"/>
   </g>
   <g id="line2d_24">
    <path clip-path="url(#p2c89f0f692)" d="M 0 0 
" style="fill:none;stroke:#424242;stroke-linecap:round;stroke-width:2.7;"/>
   </g>
   <g id="line2d_25">
    <path clip-path="url(#p2c89f0f692)" d="M 0 0 
" style="fill:none;stroke:#424242;stroke-linecap:round;stroke-width:2.7;"/>
   </g>
   <g id="line2d_26">
    <path clip-path="url(#p2c89f0f692)" d="M 0 0 
" style="fill:none;stroke:#424242;stroke-linecap:round;stroke-width:2.7;"/>
   </g>
   <g id="line2d_27">
    <path clip-path="url(#p2c89f0f692)" d="M 0 0 
" style="fill:none;stroke:#424242;stroke-linecap:round;stroke-width:2.7;"/>
   </g>
   <g id="line2d_28">
    <path clip-path="url(#p2c89f0f692)" d="M 0 0 
" style="fill:none;stroke:#424242;stroke-linecap:round;stroke-width:2.7;"/>
   </g>
   <g id="line2d_29">
    <path clip-path="url(#p2c89f0f692)" d="M 0 0 
" style="fill:none;stroke:#424242;stroke-linecap:round;stroke-width:2.7;"/>
   </g>
   <g id="line2d_30">
    <path clip-path="url(#p2c89f0f692)" d="M 0 0 
" style="fill:none;stroke:#424242;stroke-linecap:round;stroke-width:2.7;"/>
   </g>
   <g id="line2d_31">
    <path clip-path="url(#p2c89f0f692)" d="M 0 0 
" style="fill:none;stroke:#424242;stroke-linecap:round;stroke-width:2.7;"/>
   </g>
   <g id="line2d_32">
    <path clip-path="url(#p2c89f0f692)" d="M 0 0 
" style="fill:none;stroke:#424242;stroke-linecap:round;stroke-width:2.7;"/>
   </g>
   <g id="line2d_33">
    <path clip-path="url(#p2c89f0f692)" d="M 0 0 
" style="fill:none;stroke:#424242;stroke-linecap:round;stroke-width:2.7;"/>
   </g>
   <g id="line2d_34">
    <path clip-path="url(#p2c89f0f692)" d="M 0 0 
" style="fill:none;stroke:#424242;stroke-linecap:round;stroke-width:2.7;"/>
   </g>
   <g id="line2d_35">
    <path clip-path="url(#p2c89f0f692)" d="M 0 0 
" style="fill:none;stroke:#424242;stroke-linecap:round;stroke-width:2.7;"/>
   </g>
   <g id="line2d_36">
    <path clip-path="url(#p2c89f0f692)" d="M 0 0 
" style="fill:none;stroke:#424242;stroke-linecap:round;stroke-width:2.7;"/>
   </g>
   <g id="line2d_37">
    <path clip-path="url(#p2c89f0f692)" d="M 0 0 
" style="fill:none;stroke:#424242;stroke-linecap:round;stroke-width:2.7;"/>
   </g>
   <g id="line2d_38">
    <path clip-path="url(#p2c89f0f692)" d="M 0 0 
" style="fill:none;stroke:#424242;stroke-linecap:round;stroke-width:2.7;"/>
   </g>
   <g id="line2d_39">
    <path clip-path="url(#p2c89f0f692)" d="M 0 0 
" style="fill:none;stroke:#424242;stroke-linecap:round;stroke-width:2.7;"/>
   </g>
   <g id="line2d_40">
    <path clip-path="url(#p2c89f0f692)" d="M 0 0 
" style="fill:none;stroke:#424242;stroke-linecap:round;stroke-width:2.7;"/>
   </g>
   <g id="line2d_41">
    <path clip-path="url(#p2c89f0f692)" d="M 0 0 
" style="fill:none;stroke:#424242;stroke-linecap:round;stroke-width:2.7;"/>
   </g>
   <g id="line2d_42">
    <path clip-path="url(#p2c89f0f692)" d="M 0 0 
" style="fill:none;stroke:#424242;stroke-linecap:round;stroke-width:2.7;"/>
   </g>
   <g id="line2d_43">
    <path clip-path="url(#p2c89f0f692)" d="M 0 0 
" style="fill:none;stroke:#424242;stroke-linecap:round;stroke-width:2.7;"/>
   </g>
   <g id="line2d_44">
    <path clip-path="url(#p2c89f0f692)" d="M 0 0 
" style="fill:none;stroke:#424242;stroke-linecap:round;stroke-width:2.7;"/>
   </g>
   <g id="line2d_45">
    <path clip-path="url(#p2c89f0f692)" d="M 0 0 
" style="fill:none;stroke:#424242;stroke-linecap:round;stroke-width:2.7;"/>
   </g>
   <g id="line2d_46">
    <path clip-path="url(#p2c89f0f692)" d="M 0 0 
" style="fill:none;stroke:#424242;stroke-linecap:round;stroke-width:2.7;"/>
   </g>
   <g id="line2d_47">
    <path clip-path="url(#p2c89f0f692)" d="M 0 0 
" style="fill:none;stroke:#424242;stroke-linecap:round;stroke-width:2.7;"/>
   </g>
   <g id="line2d_48">
    <path clip-path="url(#p2c89f0f692)" d="M 0 0 
" style="fill:none;stroke:#424242;stroke-linecap:round;stroke-width:2.7;"/>
   </g>
   <g id="line2d_49">
    <path clip-path="url(#p2c89f0f692)" d="M 0 0 
" style="fill:none;stroke:#424242;stroke-linecap:round;stroke-width:2.7;"/>
   </g>
   <g id="line2d_50">
    <path clip-path="url(#p2c89f0f692)" d="M 0 0 
" style="fill:none;stroke:#424242;stroke-linecap:round;stroke-width:2.7;"/>
   </g>
   <g id="line2d_51">
    <path clip-path="url(#p2c89f0f692)" d="M 0 0 
" style="fill:none;stroke:#424242;stroke-linecap:round;stroke-width:2.7;"/>
   </g>
   <g id="line2d_52">
    <path clip-path="url(#p2c89f0f692)" d="M 0 0 
" style="fill:none;stroke:#424242;stroke-linecap:round;stroke-width:2.7;"/>
   </g>
   <g id="line2d_53">
    <path clip-path="url(#p2c89f0f692)" d="M 0 0 
" style="fill:none;stroke:#424242;stroke-linecap:round;stroke-width:2.7;"/>
   </g>
   <g id="line2d_54">
    <path clip-path="url(#p2c89f0f692)" d="M 0 0 
" style="fill:none;stroke:#424242;stroke-linecap:round;stroke-width:2.7;"/>
   </g>
   <g id="line2d_55">
    <path clip-path="url(#p2c89f0f692)" d="M 0 0 
" style="fill:none;stroke:#424242;stroke-linecap:round;stroke-width:2.7;"/>
   </g>
   <g id="line2d_56">
    <path clip-path="url(#p2c89f0f692)" d="M 0 0 
" style="fill:none;stroke:#424242;stroke-linecap:round;stroke-width:2.7;"/>
   </g>
   <g id="line2d_57">
    <path clip-path="url(#p2c89f0f692)" d="M 0 0 
" style="fill:none;stroke:#424242;stroke-linecap:round;stroke-width:2.7;"/>
   </g>
   <g id="line2d_58">
    <path clip-path="url(#p2c89f0f692)" d="M 0 0 
" style="fill:none;stroke:#424242;stroke-linecap:round;stroke-width:2.7;"/>
   </g>
   <g id="line2d_59">
    <path clip-path="url(#p2c89f0f692)" d="M 0 0 
" style="fill:none;stroke:#424242;stroke-linecap:round;stroke-width:2.7;"/>
   </g>
   <g id="line2d_60">
    <path clip-path="url(#p2c89f0f692)" d="M 0 0 
" style="fill:none;stroke:#424242;stroke-linecap:round;stroke-width:2.7;"/>
   </g>
   <g id="line2d_61">
    <path clip-path="url(#p2c89f0f692)" d="M 0 0 
" style="fill:none;stroke:#424242;stroke-linecap:round;stroke-width:2.7;"/>
   </g>
   <g id="line2d_62">
    <path clip-path="url(#p2c89f0f692)" d="M 0 0 
" style="fill:none;stroke:#424242;stroke-linecap:round;stroke-width:2.7;"/>
   </g>
   <g id="line2d_63">
    <path clip-path="url(#p2c89f0f692)" d="M 0 0 
" style="fill:none;stroke:#424242;stroke-linecap:round;stroke-width:2.7;"/>
   </g>
   <g id="line2d_64">
    <path clip-path="url(#p2c89f0f692)" d="M 0 0 
" style="fill:none;stroke:#424242;stroke-linecap:round;stroke-width:2.7;"/>
   </g>
   <g id="line2d_65">
    <path clip-path="url(#p2c89f0f692)" d="M 0 0 
" style="fill:none;stroke:#424242;stroke-linecap:round;stroke-width:2.7;"/>
   </g>
   <g id="line2d_66">
    <path clip-path="url(#p2c89f0f692)" d="M 0 0 
" style="fill:none;stroke:#424242;stroke-linecap:round;stroke-width:2.7;"/>
   </g>
   <g id="line2d_67">
    <path clip-path="url(#p2c89f0f692)" d="M 0 0 
" style="fill:none;stroke:#424242;stroke-linecap:round;stroke-width:2.7;"/>
   </g>
   <g id="line2d_68">
    <path clip-path="url(#p2c89f0f692)" d="M 0 0 
" style="fill:none;stroke:#424242;stroke-linecap:round;stroke-width:2.7;"/>
   </g>
   <g id="line2d_69">
    <path clip-path="url(#p2c89f0f692)" d="M 0 0 
" style="fill:none;stroke:#424242;stroke-linecap:round;stroke-width:2.7;"/>
   </g>
   <g id="line2d_70">
    <path clip-path="url(#p2c89f0f692)" d="M 0 0 
" style="fill:none;stroke:#424242;stroke-linecap:round;stroke-width:2.7;"/>
   </g>
   <g id="line2d_71">
    <path clip-path="url(#p2c89f0f692)" d="M 0 0 
" style="fill:none;stroke:#424242;stroke-linecap:round;stroke-width:2.7;"/>
   </g>
   <g id="line2d_72">
    <path clip-path="url(#p2c89f0f692)" d="M 0 0 
" style="fill:none;stroke:#424242;stroke-linecap:round;stroke-width:2.7;"/>
   </g>
   <g id="line2d_73">
    <path clip-path="url(#p2c89f0f692)" d="M 0 0 
" style="fill:none;stroke:#424242;stroke-linecap:round;stroke-width:2.7;"/>
   </g>
   <g id="line2d_74">
    <path clip-path="url(#p2c89f0f692)" d="M 0 0 
" style="fill:none;stroke:#424242;stroke-linecap:round;stroke-width:2.7;"/>
   </g>
   <g id="line2d_75">
    <path clip-path="url(#p2c89f0f692)" d="M 0 0 
" style="fill:none;stroke:#424242;stroke-linecap:round;stroke-width:2.7;"/>
   </g>
   <g id="line2d_76">
    <path clip-path="url(#p2c89f0f692)" d="M 0 0 
" style="fill:none;stroke:#424242;stroke-linecap:round;stroke-width:2.7;"/>
   </g>
   <g id="line2d_77">
    <path clip-path="url(#p2c89f0f692)" d="M 0 0 
" style="fill:none;stroke:#424242;stroke-linecap:round;stroke-width:2.7;"/>
   </g>
   <g id="line2d_78">
    <path clip-path="url(#p2c89f0f692)" d="M 0 0 
" style="fill:none;stroke:#424242;stroke-linecap:round;stroke-width:2.7;"/>
   </g>
   <g id="line2d_79">
    <path clip-path="url(#p2c89f0f692)" d="M 0 0 
" style="fill:none;stroke:#424242;stroke-linecap:round;stroke-width:2.7;"/>
   </g>
   <g id="line2d_80">
    <path clip-path="url(#p2c89f0f692)" d="M 0 0 
" style="fill:none;stroke:#424242;stroke-linecap:round;stroke-width:2.7;"/>
   </g>
   <g id="line2d_81">
    <path clip-path="url(#p2c89f0f692)" d="M 0 0 
" style="fill:none;stroke:#424242;stroke-linecap:round;stroke-width:2.7;"/>
   </g>
   <g id="line2d_82">
    <path clip-path="url(#p2c89f0f692)" d="M 0 0 
" style="fill:none;stroke:#424242;stroke-linecap:round;stroke-width:2.7;"/>
   </g>
   <g id="line2d_83">
    <path clip-path="url(#p2c89f0f692)" d="M 0 0 
" style="fill:none;stroke:#424242;stroke-linecap:round;stroke-width:2.7;"/>
   </g>
   <g id="line2d_84">
    <path clip-path="url(#p2c89f0f692)" d="M 0 0 
" style="fill:none;stroke:#424242;stroke-linecap:round;stroke-width:2.7;"/>
   </g>
   <g id="line2d_85">
    <path clip-path="url(#p2c89f0f692)" d="M 0 0 
" style="fill:none;stroke:#424242;stroke-linecap:round;stroke-width:2.7;"/>
   </g>
   <g id="line2d_86">
    <path clip-path="url(#p2c89f0f692)" d="M 0 0 
" style="fill:none;stroke:#424242;stroke-linecap:round;stroke-width:2.7;"/>
   </g>
   <g id="line2d_87">
    <path clip-path="url(#p2c89f0f692)" d="M 0 0 
" style="fill:none;stroke:#424242;stroke-linecap:round;stroke-width:2.7;"/>
   </g>
   <g id="line2d_88">
    <path clip-path="url(#p2c89f0f692)" d="M 0 0 
" style="fill:none;stroke:#424242;stroke-linecap:round;stroke-width:2.7;"/>
   </g>
   <g id="line2d_89">
    <path clip-path="url(#p2c89f0f692)" d="M 0 0 
" style="fill:none;stroke:#424242;stroke-linecap:round;stroke-width:2.7;"/>
   </g>
   <g id="line2d_90">
    <path clip-path="url(#p2c89f0f692)" d="M 0 0 
" style="fill:none;stroke:#424242;stroke-linecap:round;stroke-width:2.7;"/>
   </g>
   <g id="line2d_91">
    <path clip-path="url(#p2c89f0f692)" d="M 0 0 
" style="fill:none;stroke:#424242;stroke-linecap:round;stroke-width:2.7;"/>
   </g>
   <g id="line2d_92">
    <path clip-path="url(#p2c89f0f692)" d="M 0 0 
" style="fill:none;stroke:#424242;stroke-linecap:round;stroke-width:2.7;"/>
   </g>
   <g id="line2d_93">
    <path clip-path="url(#p2c89f0f692)" d="M 0 0 
" style="fill:none;stroke:#424242;stroke-linecap:round;stroke-width:2.7;"/>
   </g>
   <g id="line2d_94">
    <path clip-path="url(#p2c89f0f692)" d="M 0 0 
" style="fill:none;stroke:#424242;stroke-linecap:round;stroke-width:2.7;"/>
   </g>
   <g id="line2d_95">
    <path clip-path="url(#p2c89f0f692)" d="M 0 0 
" style="fill:none;stroke:#424242;stroke-linecap:round;stroke-width:2.7;"/>
   </g>
   <g id="line2d_96">
    <path clip-path="url(#p2c89f0f692)" d="M 0 0 
" style="fill:none;stroke:#424242;stroke-linecap:round;stroke-width:2.7;"/>
   </g>
   <g id="line2d_97">
    <path clip-path="url(#p2c89f0f692)" d="M 0 0 
" style="fill:none;stroke:#424242;stroke-linecap:round;stroke-width:2.7;"/>
   </g>
   <g id="line2d_98">
    <path clip-path="url(#p2c89f0f692)" d="M 0 0 
" style="fill:none;stroke:#424242;stroke-linecap:round;stroke-width:2.7;"/>
   </g>
   <g id="line2d_99">
    <path clip-path="url(#p2c89f0f692)" d="M 0 0 
" style="fill:none;stroke:#424242;stroke-linecap:round;stroke-width:2.7;"/>
   </g>
   <g id="line2d_100">
    <path clip-path="url(#p2c89f0f692)" d="M 0 0 
" style="fill:none;stroke:#424242;stroke-linecap:round;stroke-width:2.7;"/>
   </g>
   <g id="line2d_101">
    <path clip-path="url(#p2c89f0f692)" d="M 0 0 
" style="fill:none;stroke:#424242;stroke-linecap:round;stroke-width:2.7;"/>
   </g>
   <g id="line2d_102">
    <path clip-path="url(#p2c89f0f692)" d="M 0 0 
" style="fill:none;stroke:#424242;stroke-linecap:round;stroke-width:2.7;"/>
   </g>
   <g id="line2d_103">
    <path clip-path="url(#p2c89f0f692)" d="M 0 0 
" style="fill:none;stroke:#424242;stroke-linecap:round;stroke-width:2.7;"/>
   </g>
   <g id="line2d_104">
    <path clip-path="url(#p2c89f0f692)" d="M 0 0 
" style="fill:none;stroke:#424242;stroke-linecap:round;stroke-width:2.7;"/>
   </g>
   <g id="line2d_105">
    <path clip-path="url(#p2c89f0f692)" d="M 0 0 
" style="fill:none;stroke:#424242;stroke-linecap:round;stroke-width:2.7;"/>
   </g>
   <g id="line2d_106">
    <path clip-path="url(#p2c89f0f692)" d="M 0 0 
" style="fill:none;stroke:#424242;stroke-linecap:round;stroke-width:2.7;"/>
   </g>
   <g id="line2d_107">
    <path clip-path="url(#p2c89f0f692)" d="M 0 0 
" style="fill:none;stroke:#424242;stroke-linecap:round;stroke-width:2.7;"/>
   </g>
   <g id="patch_103">
    <path d="M 180 1089.36 
L 180 146.88 
" style="fill:none;stroke:#ffffff;stroke-linecap:square;stroke-linejoin:miter;stroke-width:1.25;"/>
   </g>
   <g id="patch_104">
    <path d="M 1296 1089.36 
L 1296 146.88 
" style="fill:none;stroke:#ffffff;stroke-linecap:square;stroke-linejoin:miter;stroke-width:1.25;"/>
   </g>
   <g id="patch_105">
    <path d="M 180 1089.36 
L 1296 1089.36 
" style="fill:none;stroke:#ffffff;stroke-linecap:square;stroke-linejoin:miter;stroke-width:1.25;"/>
   </g>
   <g id="patch_106">
    <path d="M 180 146.88 
L 1296 146.88 
" style="fill:none;stroke:#ffffff;stroke-linecap:square;stroke-linejoin:miter;stroke-width:1.25;"/>
   </g>
  </g>
 </g>
 <defs>
  <clipPath id="p2c89f0f692">
   <rect height="942.48" width="1116" x="180" y="146.88"/>
  </clipPath>
 </defs>
</svg>
